Benne_2112.ufo
<glyph name="eight" format="1">
  <advance width="452"/>
  <unicode hex="0038"/>
  <outline>
    <contour>
      <point x="316" y="-13"/>
      <point x="403" y="62"/>
      <point x="403" y="157" type="curve" smooth="yes"/>
      <point x="403" y="226"/>
      <point x="367" y="262"/>
      <point x="286" y="315" type="curve"/>
      <point x="281" y="318"/>
      <point x="278" y="321"/>
      <point x="279" y="323" type="curve"/>
      <point x="279" y="325"/>
      <point x="287" y="332"/>
      <point x="302" y="343" type="curve" smooth="yes"/>
      <point x="317" y="354"/>
      <point x="330" y="365"/>
      <point x="341" y="374" type="curve" smooth="yes"/>
      <point x="373" y="401"/>
      <point x="389" y="432"/>
      <point x="389" y="467" type="curve" smooth="yes"/>
      <point x="389" y="536"/>
      <point x="321" y="589"/>
      <point x="238" y="589" type="curve" smooth="yes"/>
      <point x="155" y="589"/>
      <point x="72" y="539"/>
      <point x="72" y="467" type="curve" smooth="yes"/>
      <point x="72" y="442"/>
      <point x="78" y="419"/>
      <point x="89" y="397" type="curve" smooth="yes"/>
      <point x="112" y="353"/>
      <point x="138" y="330"/>
      <point x="166" y="307" type="curve" smooth="yes"/>
      <point x="180" y="296"/>
      <point x="187" y="290"/>
      <point x="188" y="289" type="curve" smooth="yes"/>
      <point x="189" y="288"/>
      <point x="187" y="285"/>
      <point x="183" y="282" type="curve"/>
      <point x="127" y="253"/>
      <point x="61" y="211"/>
      <point x="61" y="132" type="curve" smooth="yes"/>
      <point x="61" y="49"/>
      <point x="134" y="-13"/>
      <point x="225" y="-13" type="curve" smooth="yes"/>
    </contour>
    <contour>
      <point x="175" y="24"/>
      <point x="131" y="81"/>
      <point x="131" y="148" type="curve" smooth="yes"/>
      <point x="131" y="181"/>
      <point x="141" y="209"/>
      <point x="161" y="230" type="curve" smooth="yes"/>
      <point x="176" y="245"/>
      <point x="204" y="267"/>
      <point x="209" y="267" type="curve" smooth="yes"/>
      <point x="211" y="267"/>
      <point x="216" y="264"/>
      <point x="223" y="259" type="curve" smooth="yes"/>
      <point x="296" y="209"/>
      <point x="333" y="162"/>
      <point x="333" y="118" type="curve" smooth="yes"/>
      <point x="333" y="65"/>
      <point x="293" y="24"/>
      <point x="234" y="24" type="curve" smooth="yes"/>
    </contour>
    <contour>
      <point x="261" y="337"/>
      <point x="256" y="338"/>
      <point x="251" y="342" type="curve" smooth="yes"/>
      <point x="246" y="346"/>
      <point x="235" y="355"/>
      <point x="218" y="368" type="curve" smooth="yes"/>
      <point x="184" y="394"/>
      <point x="182" y="397"/>
      <point x="164" y="418" type="curve" smooth="yes"/>
      <point x="146" y="439"/>
      <point x="142" y="456"/>
      <point x="142" y="492" type="curve" smooth="yes"/>
      <point x="142" y="528"/>
      <point x="188" y="565"/>
      <point x="236" y="565" type="curve" smooth="yes"/>
      <point x="283" y="565"/>
      <point x="319" y="520"/>
      <point x="319" y="472" type="curve" smooth="yes"/>
      <point x="319" y="413"/>
      <point x="301" y="369"/>
      <point x="265" y="340" type="curve" smooth="yes"/>
    </contour>
  </outline>
</glyph>
<glyph name="nine" format="1">
  <advance width="466"/>
  <unicode hex="0039"/>
  <outline>
    <contour>
      <point x="55" y="-186" type="line"/>
      <point x="120" y="-177"/>
      <point x="241" y="-104"/>
      <point x="300" y="-47" type="curve" smooth="yes"/>
      <point x="384" y="36"/>
      <point x="426" y="121"/>
      <point x="426" y="210" type="curve" smooth="yes"/>
      <point x="426" y="327"/>
      <point x="351" y="414"/>
      <point x="245" y="414" type="curve" smooth="yes"/>
      <point x="139" y="414"/>
      <point x="53" y="314"/>
      <point x="53" y="215" type="curve" smooth="yes"/>
      <point x="53" y="144"/>
      <point x="112" y="89"/>
      <point x="179" y="89" type="curve" smooth="yes"/>
      <point x="212" y="89"/>
      <point x="244" y="100"/>
      <point x="274" y="122" type="curve" smooth="yes"/>
      <point x="289" y="133"/>
      <point x="300" y="145"/>
      <point x="307" y="157" type="curve"/>
      <point x="310" y="161"/>
      <point x="306" y="170"/>
      <point x="300" y="168" type="curve" smooth="yes"/>
      <point x="297" y="167"/>
      <point x="291" y="164"/>
      <point x="284" y="160" type="curve" smooth="yes"/>
      <point x="268" y="151"/>
      <point x="257" y="142"/>
      <point x="220" y="142" type="curve" smooth="yes"/>
      <point x="168" y="142"/>
      <point x="122" y="205"/>
      <point x="122" y="265" type="curve" smooth="yes"/>
      <point x="122" y="324"/>
      <point x="157" y="378"/>
      <point x="223" y="378" type="curve" smooth="yes"/>
      <point x="289" y="378"/>
      <point x="346" y="311"/>
      <point x="346" y="227" type="curve" smooth="yes"/>
      <point x="346" y="143"/>
      <point x="321" y="67"/>
      <point x="270" y="0" type="curve" smooth="yes"/>
      <point x="226" y="-57"/>
      <point x="111" y="-151"/>
      <point x="55" y="-168" type="curve" smooth="yes"/>
      <point x="46" y="-171"/>
      <point x="41" y="-175"/>
      <point x="41" y="-181" type="curve" smooth="yes"/>
      <point x="41" y="-184"/>
      <point x="44" y="-186"/>
      <point x="50" y="-186" type="curve" smooth="yes"/>
    </contour>
  </outline>
</glyph>
<glyph name="question" format="1">
  <advance width="355"/>
  <unicode hex="003F"/>
  <outline>
    <contour>
      <point x="144" y="181"/>
      <point x="149" y="189"/>
      <point x="149" y="204" type="curve"/>
      <point x="152" y="284"/>
      <point x="203" y="299"/>
      <point x="264" y="332" type="curve" smooth="yes"/>
      <point x="294" y="349"/>
      <point x="309" y="377"/>
      <point x="309" y="418" type="curve" smooth="yes"/>
      <point x="309" y="445"/>
      <point x="300" y="477"/>
      <point x="283" y="514" type="curve" smooth="yes"/>
      <point x="248" y="589"/>
      <point x="185" y="661"/>
      <point x="108" y="661" type="curve" smooth="yes"/>
      <point x="91" y="661"/>
      <point x="68" y="645"/>
      <point x="68" y="622" type="curve" smooth="yes"/>
      <point x="68" y="599"/>
      <point x="89" y="569"/>
      <point x="110" y="569" type="curve"/>
      <point x="157" y="573" type="line"/>
      <point x="222" y="572"/>
      <point x="258" y="526"/>
      <point x="258" y="458" type="curve" smooth="yes"/>
      <point x="258" y="431"/>
      <point x="233" y="405"/>
      <point x="182" y="380" type="curve" smooth="yes"/>
      <point x="131" y="353"/>
      <point x="96" y="330"/>
      <point x="96" y="294" type="curve" smooth="yes"/>
      <point x="96" y="257"/>
      <point x="113" y="201"/>
      <point x="122" y="190" type="curve" smooth="yes"/>
      <point x="127" y="184"/>
      <point x="131" y="181"/>
      <point x="134" y="181" type="curve" smooth="yes"/>
    </contour>
    <contour>
      <point x="181" y="-14"/>
      <point x="208" y="13"/>
      <point x="208" y="46" type="curve" smooth="yes"/>
      <point x="208" y="79"/>
      <point x="181" y="106"/>
      <point x="148" y="106" type="curve" smooth="yes"/>
      <point x="131" y="106"/>
      <point x="117" y="100"/>
      <point x="106" y="89" type="curve" smooth="yes"/>
      <point x="94" y="77"/>
      <point x="88" y="63"/>
      <point x="88" y="46" type="curve" smooth="yes"/>
      <point x="88" y="13"/>
      <point x="115" y="-14"/>
      <point x="148" y="-14" type="curve" smooth="yes"/>
    </contour>
  </outline>
</glyph>
<glyph name="C" format="1">
  <advance width="640"/>
  <unicode hex="0043"/>
  <outline>
    <contour>
      <point x="438" y="-15"/>
      <point x="491" y="-9"/>
      <point x="528" y="2" type="curve" smooth="yes"/>
      <point x="564" y="13"/>
      <point x="583" y="21"/>
      <point x="586" y="26" type="curve"/>
      <point x="603" y="51"/>
      <point x="614" y="88"/>
      <point x="620" y="138" type="curve"/>
      <point x="620" y="151"/>
      <point x="618" y="157"/>
      <point x="613" y="157" type="curve" smooth="yes"/>
      <point x="612" y="157"/>
      <point x="612" y="157"/>
      <point x="611" y="156" type="curve" smooth="yes"/>
      <point x="610" y="155"/>
      <point x="607" y="153"/>
      <point x="600" y="150" type="curve"/>
      <point x="593" y="146"/>
      <point x="589" y="142"/>
      <point x="586" y="137" type="curve"/>
      <point x="545" y="56"/>
      <point x="483" y="16"/>
      <point x="400" y="16" type="curve" smooth="yes"/>
      <point x="350" y="16"/>
      <point x="305" y="32"/>
      <point x="266" y="65" type="curve" smooth="yes"/>
      <point x="186" y="130"/>
      <point x="146" y="236"/>
      <point x="146" y="347" type="curve" smooth="yes"/>
      <point x="146" y="499"/>
      <point x="253" y="632"/>
      <point x="389" y="632" type="curve" smooth="yes"/>
      <point x="456" y="632"/>
      <point x="507" y="615"/>
      <point x="541" y="581" type="curve" smooth="yes"/>
      <point x="560" y="563"/>
      <point x="572" y="539"/>
      <point x="576" y="508" type="curve"/>
      <point x="580" y="485"/>
      <point x="589" y="472"/>
      <point x="602" y="471" type="curve"/>
      <point x="607" y="470"/>
      <point x="610" y="473"/>
      <point x="612" y="478" type="curve"/>
      <point x="613" y="483"/>
      <point x="614" y="497"/>
      <point x="613" y="518" type="curve" smooth="yes"/>
      <point x="612" y="560"/>
      <point x="607" y="632"/>
      <point x="592" y="633" type="curve"/>
      <point x="565" y="637"/>
      <point x="540" y="643"/>
      <point x="516" y="651" type="curve" smooth="yes"/>
      <point x="492" y="659"/>
      <point x="457" y="663"/>
      <point x="410" y="663" type="curve" smooth="yes"/>
      <point x="213" y="663"/>
      <point x="46" y="513"/>
      <point x="46" y="326" type="curve" smooth="yes"/>
      <point x="46" y="138"/>
      <point x="189" y="-15"/>
      <point x="369" y="-15" type="curve" smooth="yes"/>
    </contour>
  </outline>
</glyph>
<glyph name="L" format="1">
  <advance width="574"/>
  <unicode hex="004C"/>
  <outline>
    <contour>
      <point x="190" y="0" type="line"/>
      <point x="533" y="-5" type="line" smooth="yes"/>
      <point x="541" y="-5"/>
      <point x="546" y="1"/>
      <point x="547" y="12" type="curve" smooth="yes"/>
      <point x="550" y="39"/>
      <point x="559" y="82"/>
      <point x="574" y="139" type="curve"/>
      <point x="574" y="141" type="line" smooth="yes"/>
      <point x="574" y="142"/>
      <point x="574" y="143"/>
      <point x="575" y="144" type="curve"/>
      <point x="575" y="156"/>
      <point x="571" y="162"/>
      <point x="564" y="162" type="curve" smooth="yes"/>
      <point x="556" y="162"/>
      <point x="548" y="152"/>
      <point x="541" y="132" type="curve"/>
      <point x="520" y="87"/>
      <point x="493" y="58"/>
      <point x="458" y="43" type="curve"/>
      <point x="445" y="38"/>
      <point x="437" y="35"/>
      <point x="433" y="35" type="curve" smooth="yes"/>
      <point x="287" y="35" type="line" smooth="yes"/>
      <point x="224" y="35"/>
      <point x="210" y="52"/>
      <point x="210" y="96" type="curve" smooth="yes"/>
      <point x="210" y="567" type="line" smooth="yes"/>
      <point x="210" y="586"/>
      <point x="219" y="599"/>
      <point x="236" y="606" type="curve" smooth="yes"/>
      <point x="256" y="614"/>
      <point x="266" y="616"/>
      <point x="304" y="623" type="curve" smooth="yes"/>
      <point x="323" y="626"/>
      <point x="332" y="633"/>
      <point x="332" y="642" type="curve" smooth="yes"/>
      <point x="332" y="649"/>
      <point x="322" y="653"/>
      <point x="303" y="653" type="curve" smooth="yes"/>
      <point x="177" y="650" type="line"/>
      <point x="65" y="653" type="line" smooth="yes"/>
      <point x="46" y="653"/>
      <point x="36" y="649"/>
      <point x="36" y="642" type="curve" smooth="yes"/>
      <point x="36" y="633"/>
      <point x="48" y="626"/>
      <point x="72" y="622" type="curve" smooth="yes"/>
      <point x="120" y="613"/>
      <point x="130" y="607"/>
      <point x="130" y="560" type="curve" smooth="yes"/>
      <point x="130" y="96" type="line" smooth="yes"/>
      <point x="130" y="53"/>
      <point x="104" y="35"/>
      <point x="49" y="24" type="curve"/>
      <point x="34" y="20"/>
      <point x="27" y="14"/>
      <point x="27" y="7" type="curve" smooth="yes"/>
      <point x="27" y="-1"/>
      <point x="36" y="-5"/>
      <point x="55" y="-5" type="curve"/>
    </contour>
  </outline>
</glyph>
<glyph name="W" format="1">
  <advance width="916"/>
  <unicode hex="0057"/>
  <outline>
    <contour>
      <point x="342" y="-16"/>
      <point x="350" y="-6"/>
      <point x="357" y="15" type="curve" smooth="yes"/>
      <point x="396" y="124"/>
      <point x="434" y="223"/>
      <point x="471" y="310" type="curve"/>
      <point x="472" y="315"/>
      <point x="477" y="329"/>
      <point x="482" y="316" type="curve" smooth="yes"/>
      <point x="489" y="299"/>
      <point x="506" y="255"/>
      <point x="533" y="184" type="curve" smooth="yes"/>
      <point x="560" y="113"/>
      <point x="584" y="54"/>
      <point x="605" y="7" type="curve"/>
      <point x="610" y="-6"/>
      <point x="616" y="-12"/>
      <point x="622" y="-12" type="curve" smooth="yes"/>
      <point x="627" y="-12"/>
      <point x="637" y="11"/>
      <point x="654" y="58" type="curve" smooth="yes"/>
      <point x="815" y="534" type="line" smooth="yes"/>
      <point x="834" y="585"/>
      <point x="862" y="614"/>
      <point x="897" y="622" type="curve" smooth="yes"/>
      <point x="919" y="627"/>
      <point x="930" y="633"/>
      <point x="930" y="642" type="curve" smooth="yes"/>
      <point x="930" y="649"/>
      <point x="920" y="653"/>
      <point x="901" y="653" type="curve" smooth="yes"/>
      <point x="811" y="650" type="line"/>
      <point x="739" y="651" type="line" smooth="yes"/>
      <point x="720" y="651"/>
      <point x="710" y="647"/>
      <point x="710" y="640" type="curve" smooth="yes"/>
      <point x="710" y="633"/>
      <point x="721" y="626"/>
      <point x="742" y="621" type="curve"/>
      <point x="763" y="615"/>
      <point x="773" y="600"/>
      <point x="773" y="577" type="curve" smooth="yes"/>
      <point x="773" y="565"/>
      <point x="771" y="553"/>
      <point x="767" y="541" type="curve"/>
      <point x="711" y="350"/>
      <point x="670" y="221"/>
      <point x="645" y="154" type="curve"/>
      <point x="640" y="143"/>
      <point x="637" y="141"/>
      <point x="634" y="148" type="curve" smooth="yes"/>
      <point x="531" y="413" type="line"/>
      <point x="530" y="414"/>
      <point x="530" y="418"/>
      <point x="530" y="424" type="curve" smooth="yes"/>
      <point x="530" y="436"/>
      <point x="564" y="529"/>
      <point x="587" y="568" type="curve" smooth="yes"/>
      <point x="610" y="607"/>
      <point x="618" y="613"/>
      <point x="660" y="622" type="curve" smooth="yes"/>
      <point x="681" y="627"/>
      <point x="691" y="633"/>
      <point x="691" y="642" type="curve" smooth="yes"/>
      <point x="691" y="649"/>
      <point x="681" y="653"/>
      <point x="662" y="653" type="curve"/>
      <point x="603" y="650" type="line"/>
      <point x="551" y="652" type="line"/>
      <point x="532" y="652"/>
      <point x="522" y="648"/>
      <point x="522" y="641" type="curve" smooth="yes"/>
      <point x="522" y="636"/>
      <point x="528" y="629"/>
      <point x="541" y="622" type="curve" smooth="yes"/>
      <point x="553" y="615"/>
      <point x="559" y="607"/>
      <point x="559" y="598" type="curve" smooth="yes"/>
      <point x="559" y="593"/>
      <point x="542" y="533"/>
      <point x="525" y="494" type="curve" smooth="yes"/>
      <point x="516" y="475"/>
      <point x="511" y="465"/>
      <point x="509" y="465" type="curve" smooth="yes"/>
      <point x="507" y="465"/>
      <point x="501" y="476"/>
      <point x="491" y="498" type="curve"/>
      <point x="480" y="519"/>
      <point x="471" y="541"/>
      <point x="464" y="564" type="curve" smooth="yes"/>
      <point x="457" y="586"/>
      <point x="453" y="598"/>
      <point x="453" y="599" type="curve" smooth="yes"/>
      <point x="453" y="607"/>
      <point x="460" y="615"/>
      <point x="474" y="622" type="curve" smooth="yes"/>
      <point x="487" y="629"/>
      <point x="494" y="636"/>
      <point x="494" y="641" type="curve" smooth="yes"/>
      <point x="494" y="648"/>
      <point x="484" y="652"/>
      <point x="465" y="652" type="curve" smooth="yes"/>
      <point x="388" y="650" type="line"/>
      <point x="294" y="653" type="line" smooth="yes"/>
      <point x="275" y="653"/>
      <point x="265" y="649"/>
      <point x="265" y="642" type="curve" smooth="yes"/>
      <point x="265" y="634"/>
      <point x="275" y="627"/>
      <point x="296" y="621" type="curve" smooth="yes"/>
      <point x="337" y="609"/>
      <point x="377" y="578"/>
      <point x="393" y="538" type="curve" smooth="yes"/>
      <point x="450" y="396" type="line"/>
      <point x="455" y="382"/>
      <point x="458" y="372"/>
      <point x="458" y="367" type="curve" smooth="yes"/>
      <point x="458" y="362"/>
      <point x="456" y="354"/>
      <point x="452" y="344" type="curve" smooth="yes"/>
      <point x="374" y="151" type="line"/>
      <point x="370" y="139"/>
      <point x="365" y="139"/>
      <point x="359" y="152" type="curve" smooth="yes"/>
      <point x="301" y="283"/>
      <point x="246" y="414"/>
      <point x="195" y="545" type="curve"/>
      <point x="190" y="561"/>
      <point x="187" y="575"/>
      <point x="187" y="588" type="curve" smooth="yes"/>
      <point x="187" y="607"/>
      <point x="194" y="618"/>
      <point x="207" y="621" type="curve"/>
      <point x="229" y="627"/>
      <point x="240" y="634"/>
      <point x="240" y="641" type="curve" smooth="yes"/>
      <point x="240" y="648"/>
      <point x="230" y="652"/>
      <point x="211" y="652" type="curve" smooth="yes"/>
      <point x="118" y="650" type="line"/>
      <point x="59" y="652"/>
      <point x="29" y="653"/>
      <point x="29" y="653" type="curve"/>
      <point x="10" y="653"/>
      <point x="0" y="649"/>
      <point x="0" y="642" type="curve" smooth="yes"/>
      <point x="0" y="634"/>
      <point x="11" y="627"/>
      <point x="33" y="620" type="curve" smooth="yes"/>
      <point x="65" y="611"/>
      <point x="89" y="589"/>
      <point x="105" y="554" type="curve"/>
      <point x="321" y="12" type="line" smooth="yes"/>
      <point x="328" y="-7"/>
      <point x="333" y="-16"/>
      <point x="335" y="-16" type="curve" smooth="yes"/>
    </contour>
  </outline>
</glyph>
<glyph name="Z" format="1">
  <advance width="603"/>
  <unicode hex="005A"/>
  <outline>
    <contour>
      <point x="539" y="-5"/>
      <point x="545" y="1"/>
      <point x="551" y="12" type="curve"/>
      <point x="562" y="35"/>
      <point x="588" y="137"/>
      <point x="588" y="152" type="curve" smooth="yes"/>
      <point x="588" y="159"/>
      <point x="585" y="163"/>
      <point x="579" y="163" type="curve" smooth="yes"/>
      <point x="570" y="163"/>
      <point x="562" y="156"/>
      <point x="557" y="142" type="curve"/>
      <point x="504" y="17"/>
      <point x="376" y="36"/>
      <point x="291" y="36" type="curve" smooth="yes"/>
      <point x="248" y="36"/>
      <point x="211" y="38"/>
      <point x="179" y="41" type="curve"/>
      <point x="172" y="42"/>
      <point x="168" y="47"/>
      <point x="168" y="54" type="curve" smooth="yes"/>
      <point x="168" y="61"/>
      <point x="169" y="67"/>
      <point x="171" y="70" type="curve" smooth="yes"/>
      <point x="252" y="196"/>
      <point x="365" y="356"/>
      <point x="509" y="550" type="curve" smooth="yes"/>
      <point x="570" y="631" type="line" smooth="yes"/>
      <point x="574" y="636"/>
      <point x="566" y="649"/>
      <point x="559" y="649" type="curve" smooth="yes"/>
      <point x="485" y="647"/>
      <point x="413" y="646"/>
      <point x="342" y="646" type="curve" smooth="yes"/>
      <point x="271" y="646"/>
      <point x="216" y="646"/>
      <point x="178" y="647" type="curve" smooth="yes"/>
      <point x="140" y="647"/>
      <point x="117" y="650"/>
      <point x="110" y="655" type="curve" smooth="yes"/>
      <point x="98" y="664"/>
      <point x="90" y="669"/>
      <point x="85" y="669" type="curve" smooth="yes"/>
      <point x="76" y="669"/>
      <point x="71" y="663"/>
      <point x="70" y="652" type="curve" smooth="yes"/>
      <point x="67" y="624"/>
      <point x="61" y="595"/>
      <point x="51" y="566" type="curve" smooth="yes"/>
      <point x="41" y="537"/>
      <point x="36" y="519"/>
      <point x="36" y="513" type="curve" smooth="yes"/>
      <point x="36" y="506"/>
      <point x="39" y="503"/>
      <point x="45" y="503" type="curve" smooth="yes"/>
      <point x="55" y="503"/>
      <point x="64" y="514"/>
      <point x="73" y="536" type="curve"/>
      <point x="89" y="580"/>
      <point x="128" y="601"/>
      <point x="164" y="604" type="curve" smooth="yes"/>
      <point x="181" y="605"/>
      <point x="215" y="606"/>
      <point x="266" y="606" type="curve" smooth="yes"/>
      <point x="316" y="606"/>
      <point x="365" y="605"/>
      <point x="413" y="604" type="curve"/>
      <point x="426" y="603"/>
      <point x="432" y="601"/>
      <point x="432" y="596" type="curve" smooth="yes"/>
      <point x="432" y="595"/>
      <point x="431" y="592"/>
      <point x="428" y="588" type="curve"/>
      <point x="357" y="479"/>
      <point x="243" y="318"/>
      <point x="86" y="104" type="curve" smooth="yes"/>
      <point x="47" y="52"/>
      <point x="28" y="21"/>
      <point x="28" y="11" type="curve" smooth="yes"/>
      <point x="28" y="8" type="line" smooth="yes"/>
      <point x="28" y="1"/>
      <point x="30" y="-3"/>
      <point x="35" y="-3" type="curve" smooth="yes"/>
      <point x="112" y="-3" type="line"/>
      <point x="231" y="-2" type="line"/>
      <point x="533" y="-5" type="line" smooth="yes"/>
    </contour>
  </outline>
</glyph>
<glyph name="underscore" format="1">
  <advance width="500"/>
  <unicode hex="005F"/>
  <outline>
    <contour>
      <point x="469" y="-182" type="line" smooth="yes"/>
      <point x="480" y="-182"/>
      <point x="488" y="-176"/>
      <point x="494" y="-164" type="curve"/>
      <point x="495" y="-160"/>
      <point x="497" y="-156"/>
      <point x="499" y="-151" type="curve"/>
      <point x="500" y="-146"/>
      <point x="501" y="-143"/>
      <point x="501" y="-141" type="curve" smooth="yes"/>
      <point x="501" y="-138"/>
      <point x="494" y="-132"/>
      <point x="487" y="-132" type="curve" smooth="yes"/>
      <point x="24" y="-132" type="line" smooth="yes"/>
      <point x="8" y="-132"/>
      <point x="0" y="-156"/>
      <point x="0" y="-166" type="curve" smooth="yes"/>
      <point x="0" y="-176"/>
      <point x="7" y="-182"/>
      <point x="14" y="-182" type="curve" smooth="yes"/>
    </contour>
  </outline>
</glyph>
<glyph name="grave" format="1">
  <advance width="400"/>
  <unicode hex="0060"/>
  <outline>
    <contour>
      <point x="293" y="648" type="line"/>
      <point x="191" y="798" type="line"/>
      <point x="110" y="798" type="line"/>
      <point x="238" y="648" type="line"/>
    </contour>
  </outline>
</glyph>
<glyph name="f" format="1">
  <advance width="305"/>
  <unicode hex="0066"/>
  <outline>
    <contour>
      <point x="127" y="2" type="line"/>
      <point x="208" y="-3" type="line"/>
      <point x="221" y="-3"/>
      <point x="228" y="0"/>
      <point x="228" y="7" type="curve" smooth="yes"/>
      <point x="228" y="13"/>
      <point x="220" y="19"/>
      <point x="205" y="24" type="curve" smooth="yes"/>
      <point x="177" y="33"/>
      <point x="163" y="47"/>
      <point x="162" y="68" type="curve"/>
      <point x="162" y="335" type="line" smooth="yes"/>
      <point x="162" y="341"/>
      <point x="165" y="345"/>
      <point x="170" y="348" type="curve" smooth="yes"/>
      <point x="175" y="351"/>
      <point x="185" y="352"/>
      <point x="202" y="352" type="curve" smooth="yes"/>
      <point x="296" y="352" type="line" smooth="yes"/>
      <point x="303" y="352"/>
      <point x="309" y="373"/>
      <point x="309" y="389" type="curve" smooth="yes"/>
      <point x="309" y="396"/>
      <point x="308" y="400"/>
      <point x="305" y="400" type="curve" smooth="yes"/>
      <point x="187" y="400" type="line" smooth="yes"/>
      <point x="170" y="400"/>
      <point x="162" y="407"/>
      <point x="162" y="422" type="curve" smooth="yes"/>
      <point x="162" y="475" type="line" smooth="yes"/>
      <point x="162" y="604"/>
      <point x="203" y="665"/>
      <point x="268" y="665" type="curve" smooth="yes"/>
      <point x="303" y="665"/>
      <point x="333" y="651"/>
      <point x="346" y="636" type="curve" smooth="yes"/>
      <point x="359" y="620"/>
      <point x="374" y="606"/>
      <point x="389" y="606" type="curve" smooth="yes"/>
      <point x="404" y="606"/>
      <point x="420" y="625"/>
      <point x="420" y="646" type="curve" smooth="yes"/>
      <point x="420" y="686"/>
      <point x="383" y="706"/>
      <point x="310" y="706" type="curve" smooth="yes"/>
      <point x="260" y="706"/>
      <point x="213" y="684"/>
      <point x="168" y="641" type="curve" smooth="yes"/>
      <point x="121" y="597"/>
      <point x="90" y="511"/>
      <point x="90" y="402" type="curve"/>
      <point x="61" y="387"/>
      <point x="41" y="379"/>
      <point x="31" y="376" type="curve"/>
      <point x="26" y="373"/>
      <point x="24" y="371"/>
      <point x="24" y="369" type="curve" smooth="yes"/>
      <point x="24" y="364"/>
      <point x="34" y="353"/>
      <point x="38" y="352" type="curve"/>
      <point x="52" y="351"/>
      <point x="69" y="350"/>
      <point x="90" y="350" type="curve"/>
      <point x="90" y="68" type="line" smooth="yes"/>
      <point x="90" y="47"/>
      <point x="76" y="33"/>
      <point x="47" y="24" type="curve" smooth="yes"/>
      <point x="32" y="19"/>
      <point x="24" y="13"/>
      <point x="24" y="7" type="curve" smooth="yes"/>
      <point x="24" y="0"/>
      <point x="31" y="-3"/>
      <point x="44" y="-3" type="curve"/>
    </contour>
  </outline>
</glyph>
<glyph name="g" format="1">
  <advance width="435"/>
  <unicode hex="0067"/>
  <outline>
    <contour>
      <point x="299" y="-290"/>
      <point x="418" y="-184"/>
      <point x="418" y="-77" type="curve" smooth="yes"/>
      <point x="418" y="-20"/>
      <point x="378" y="-7"/>
      <point x="348" y="6" type="curve" smooth="yes"/>
      <point x="333" y="13"/>
      <point x="282" y="20"/>
      <point x="195" y="28" type="curve" smooth="yes"/>
      <point x="131" y="34"/>
      <point x="99" y="48"/>
      <point x="99" y="69" type="curve" smooth="yes"/>
      <point x="99" y="79"/>
      <point x="114" y="95"/>
      <point x="143" y="118" type="curve"/>
      <point x="158" y="110"/>
      <point x="176" y="106"/>
      <point x="197" y="106" type="curve" smooth="yes"/>
      <point x="293" y="106"/>
      <point x="365" y="195"/>
      <point x="365" y="295" type="curve" smooth="yes"/>
      <point x="365" y="318"/>
      <point x="366" y="334"/>
      <point x="369" y="341" type="curve"/>
      <point x="372" y="342"/>
      <point x="374" y="343"/>
      <point x="376" y="344" type="curve" smooth="yes"/>
      <point x="378" y="345"/>
      <point x="381" y="346"/>
      <point x="384" y="347" type="curve" smooth="yes"/>
      <point x="387" y="348"/>
      <point x="401" y="349"/>
      <point x="426" y="349" type="curve" smooth="yes"/>
      <point x="432" y="349"/>
      <point x="435" y="355"/>
      <point x="435" y="367" type="curve" smooth="yes"/>
      <point x="435" y="390"/>
      <point x="421" y="386"/>
      <point x="405" y="386" type="curve" smooth="yes"/>
      <point x="373" y="385" type="line" smooth="yes"/>
      <point x="348" y="385"/>
      <point x="314" y="392"/>
      <point x="272" y="405" type="curve" smooth="yes"/>
      <point x="249" y="412"/>
      <point x="230" y="416"/>
      <point x="213" y="416" type="curve" smooth="yes"/>
      <point x="120" y="416"/>
      <point x="35" y="351"/>
      <point x="35" y="264" type="curve" smooth="yes"/>
      <point x="35" y="221"/>
      <point x="51" y="184"/>
      <point x="84" y="153" type="curve" smooth="yes"/>
      <point x="100" y="138"/>
      <point x="113" y="129"/>
      <point x="122" y="127" type="curve"/>
      <point x="113" y="115"/>
      <point x="100" y="104"/>
      <point x="82" y="93" type="curve"/>
      <point x="73" y="88"/>
      <point x="67" y="84"/>
      <point x="63" y="81" type="curve" smooth="yes"/>
      <point x="48" y="69"/>
      <point x="40" y="57"/>
      <point x="40" y="44" type="curve" smooth="yes"/>
      <point x="40" y="3"/>
      <point x="85" y="-22"/>
      <point x="130" y="-31" type="curve"/>
      <point x="120" y="-46"/>
      <point x="103" y="-62"/>
      <point x="79" y="-77" type="curve" smooth="yes"/>
      <point x="30" y="-108"/>
      <point x="11" y="-135"/>
      <point x="11" y="-176" type="curve" smooth="yes"/>
      <point x="11" y="-256"/>
      <point x="95" y="-290"/>
      <point x="197" y="-290" type="curve" smooth="yes"/>
    </contour>
    <contour>
      <point x="131" y="-250"/>
      <point x="82" y="-202"/>
      <point x="82" y="-134" type="curve" smooth="yes"/>
      <point x="82" y="-117"/>
      <point x="90" y="-99"/>
      <point x="106" y="-80" type="curve"/>
      <point x="131" y="-55"/>
      <point x="148" y="-39"/>
      <point x="156" y="-34" type="curve"/>
      <point x="179" y="-34" type="line"/>
      <point x="220" y="-36"/>
      <point x="251" y="-39"/>
      <point x="274" y="-43" type="curve" smooth="yes"/>
      <point x="319" y="-52"/>
      <point x="357" y="-76"/>
      <point x="357" y="-109" type="curve" smooth="yes"/>
      <point x="357" y="-190"/>
      <point x="289" y="-250"/>
      <point x="210" y="-250" type="curve" smooth="yes"/>
    </contour>
    <contour>
      <point x="153" y="141"/>
      <point x="113" y="206"/>
      <point x="113" y="266" type="curve" smooth="yes"/>
      <point x="113" y="326"/>
      <point x="148" y="386"/>
      <point x="201" y="386" type="curve" smooth="yes"/>
      <point x="254" y="386"/>
      <point x="295" y="328"/>
      <point x="295" y="264" type="curve" smooth="yes"/>
      <point x="295" y="199"/>
      <point x="257" y="141"/>
      <point x="205" y="141" type="curve" smooth="yes"/>
    </contour>
  </outline>
</glyph>
<glyph name="v" format="1">
  <advance width="438"/>
  <unicode hex="0076"/>
  <outline>
    <contour>
      <point x="219" y="-22"/>
      <point x="228" y="-7"/>
      <point x="243" y="23" type="curve"/>
      <point x="280" y="123" type="line"/>
      <point x="358" y="311" type="line" smooth="yes"/>
      <point x="371" y="343"/>
      <point x="398" y="371"/>
      <point x="424" y="380" type="curve" smooth="yes"/>
      <point x="437" y="384"/>
      <point x="443" y="389"/>
      <point x="443" y="396" type="curve" smooth="yes"/>
      <point x="443" y="402"/>
      <point x="439" y="405"/>
      <point x="430" y="405" type="curve" smooth="yes"/>
      <point x="421" y="405"/>
      <point x="411" y="404"/>
      <point x="400" y="403" type="curve"/>
      <point x="389" y="401"/>
      <point x="377" y="400"/>
      <point x="364" y="400" type="curve"/>
      <point x="291" y="405" type="line"/>
      <point x="278" y="405"/>
      <point x="271" y="402"/>
      <point x="271" y="396" type="curve" smooth="yes"/>
      <point x="271" y="389"/>
      <point x="279" y="383"/>
      <point x="294" y="378" type="curve"/>
      <point x="311" y="373"/>
      <point x="319" y="358"/>
      <point x="319" y="331" type="curve" smooth="yes"/>
      <point x="319" y="319"/>
      <point x="317" y="307"/>
      <point x="312" y="295" type="curve" smooth="yes"/>
      <point x="240" y="110" type="line" smooth="yes"/>
      <point x="237" y="103"/>
      <point x="235" y="100"/>
      <point x="234" y="100" type="curve" smooth="yes"/>
      <point x="233" y="100"/>
      <point x="231" y="104"/>
      <point x="228" y="111" type="curve"/>
      <point x="154" y="310" type="line"/>
      <point x="151" y="317"/>
      <point x="150" y="326"/>
      <point x="150" y="337" type="curve" smooth="yes"/>
      <point x="150" y="360"/>
      <point x="157" y="374"/>
      <point x="170" y="378" type="curve" smooth="yes"/>
      <point x="185" y="383"/>
      <point x="193" y="389"/>
      <point x="193" y="396" type="curve" smooth="yes"/>
      <point x="193" y="402"/>
      <point x="186" y="405"/>
      <point x="173" y="405" type="curve"/>
      <point x="98" y="400" type="line"/>
      <point x="25" y="405" type="line"/>
      <point x="12" y="405"/>
      <point x="5" y="402"/>
      <point x="5" y="396" type="curve" smooth="yes"/>
      <point x="5" y="389"/>
      <point x="13" y="383"/>
      <point x="28" y="378" type="curve" smooth="yes"/>
      <point x="47" y="372"/>
      <point x="63" y="356"/>
      <point x="74" y="329" type="curve" smooth="yes"/>
      <point x="196" y="17" type="line"/>
      <point x="205" y="-9"/>
      <point x="211" y="-22"/>
      <point x="216" y="-22" type="curve" smooth="yes"/>
    </contour>
  </outline>
</glyph>
<glyph name="Lcommaaccent" format="1">
  <advance width="474"/>
  <unicode hex="013B"/>
  <outline>
    <contour>
      <point x="142" y="0" type="line"/>
      <point x="142" y="674" type="line"/>
      <point x="80" y="674" type="line"/>
      <point x="80" y="0" type="line"/>
    </contour>
    <contour>
      <point x="193" y="-238" type="line"/>
      <point x="303" y="-51" type="line"/>
      <point x="227" y="-51" type="line"/>
      <point x="139" y="-238" type="line"/>
    </contour>
    <contour>
      <point x="439" y="0" type="line"/>
      <point x="439" y="57" type="line"/>
      <point x="88" y="57" type="line"/>
      <point x="88" y="0" type="line"/>
    </contour>
  </outline>
</glyph>
<glyph name="Tcedilla" format="1">
  <advance width="465"/>
  <unicode hex="0162"/>
  <outline>
    <contour>
      <point x="263" y="0" type="line"/>
      <point x="263" y="674" type="line"/>
      <point x="201" y="674" type="line"/>
      <point x="201" y="0" type="line"/>
    </contour>
    <contour>
      <point x="450" y="617" type="line"/>
      <point x="450" y="674" type="line"/>
      <point x="15" y="674" type="line"/>
      <point x="15" y="617" type="line"/>
    </contour>
    <component base="cedilla" xOffset="10"/>
  </outline>
</glyph>
<glyph name="knCandrabindu" format="1">
  <advance width="3"/>
  <unicode hex="0C81"/>
  <outline>
    <contour>
      <point x="93" y="651"/>
      <point x="152" y="714"/>
      <point x="153" y="807" type="curve"/>
      <point x="123" y="807" type="line"/>
      <point x="113" y="747"/>
      <point x="75" y="709"/>
      <point x="1" y="709" type="curve" smooth="yes"/>
      <point x="-72" y="709"/>
      <point x="-109" y="747"/>
      <point x="-120" y="807" type="curve"/>
      <point x="-150" y="807" type="line"/>
      <point x="-147" y="714"/>
      <point x="-89" y="651"/>
      <point x="1" y="651" type="curve" smooth="yes"/>
    </contour>
    <contour>
      <point x="27" y="819"/>
      <point x="47" y="839"/>
      <point x="47" y="867" type="curve" smooth="yes"/>
      <point x="47" y="895"/>
      <point x="27" y="914"/>
      <point x="-1" y="914" type="curve" smooth="yes"/>
      <point x="-28" y="914"/>
      <point x="-48" y="895"/>
      <point x="-48" y="867" type="curve" smooth="yes"/>
      <point x="-48" y="839"/>
      <point x="-28" y="819"/>
      <point x="-1" y="819" type="curve" smooth="yes"/>
    </contour>
  </outline>
</glyph>
<glyph name="knVisarga" format="1">
  <advance width="369"/>
  <unicode hex="0C83"/>
  <outline>
    <contour>
      <point x="237" y="-14"/>
      <point x="279" y="35"/>
      <point x="279" y="93" type="curve" smooth="yes"/>
      <point x="279" y="151"/>
      <point x="237" y="200"/>
      <point x="184" y="200" type="curve" smooth="yes"/>
      <point x="132" y="200"/>
      <point x="90" y="151"/>
      <point x="90" y="93" type="curve" smooth="yes"/>
      <point x="90" y="35"/>
      <point x="132" y="-14"/>
      <point x="184" y="-14" type="curve" smooth="yes"/>
    </contour>
    <contour>
      <point x="152" y="34"/>
      <point x="125" y="59"/>
      <point x="125" y="93" type="curve" smooth="yes"/>
      <point x="125" y="126"/>
      <point x="152" y="153"/>
      <point x="184" y="153" type="curve" smooth="yes"/>
      <point x="217" y="153"/>
      <point x="244" y="126"/>
      <point x="244" y="93" type="curve" smooth="yes"/>
      <point x="244" y="59"/>
      <point x="217" y="34"/>
      <point x="184" y="34" type="curve" smooth="yes"/>
    </contour>
    <contour>
      <point x="237" y="271"/>
      <point x="279" y="319"/>
      <point x="279" y="377" type="curve" smooth="yes"/>
      <point x="279" y="436"/>
      <point x="237" y="484"/>
      <point x="184" y="484" type="curve" smooth="yes"/>
      <point x="132" y="484"/>
      <point x="90" y="436"/>
      <point x="90" y="377" type="curve" smooth="yes"/>
      <point x="90" y="319"/>
      <point x="132" y="271"/>
      <point x="184" y="271" type="curve" smooth="yes"/>
    </contour>
    <contour>
      <point x="152" y="318"/>
      <point x="125" y="344"/>
      <point x="125" y="377" type="curve" smooth="yes"/>
      <point x="125" y="410"/>
      <point x="152" y="437"/>
      <point x="184" y="437" type="curve" smooth="yes"/>
      <point x="217" y="437"/>
      <point x="244" y="410"/>
      <point x="244" y="377" type="curve" smooth="yes"/>
      <point x="244" y="344"/>
      <point x="217" y="318"/>
      <point x="184" y="318" type="curve" smooth="yes"/>
    </contour>
  </outline>
</glyph>
<glyph name="knA" format="1">
  <advance width="782"/>
  <unicode hex="0C85"/>
  <outline>
    <contour>
      <point x="602" y="-14"/>
      <point x="722" y="104"/>
      <point x="722" y="283" type="curve" smooth="yes"/>
      <point x="722" y="414"/>
      <point x="650" y="520"/>
      <point x="556" y="520" type="curve" smooth="yes"/>
      <point x="482" y="520"/>
      <point x="455" y="471"/>
      <point x="455" y="416" type="curve" smooth="yes"/>
      <point x="455" y="392"/>
      <point x="470" y="364"/>
      <point x="479" y="354" type="curve"/>
      <point x="384" y="354" type="line"/>
      <point x="384" y="283" type="line"/>
      <point x="614" y="283" type="line"/>
      <point x="614" y="354" type="line"/>
      <point x="561" y="354" type="line" smooth="yes"/>
      <point x="516" y="354"/>
      <point x="495" y="379"/>
      <point x="495" y="405" type="curve" smooth="yes"/>
      <point x="495" y="437"/>
      <point x="519" y="454"/>
      <point x="561" y="454" type="curve" smooth="yes"/>
      <point x="639" y="454"/>
      <point x="683" y="389"/>
      <point x="683" y="294" type="curve" smooth="yes"/>
      <point x="683" y="171"/>
      <point x="581" y="71"/>
      <point x="391" y="71" type="curve" smooth="yes"/>
      <point x="200" y="71"/>
      <point x="100" y="171"/>
      <point x="100" y="294" type="curve" smooth="yes"/>
      <point x="100" y="387"/>
      <point x="142" y="454"/>
      <point x="235" y="454" type="curve" smooth="yes"/>
      <point x="273" y="454"/>
      <point x="307" y="440"/>
      <point x="307" y="401" type="curve" smooth="yes"/>
      <point x="307" y="365"/>
      <point x="279" y="344"/>
      <point x="232" y="344" type="curve" smooth="yes"/>
      <point x="190" y="344"/>
      <point x="159" y="365"/>
      <point x="159" y="408" type="curve" smooth="yes"/>
      <point x="159" y="419"/>
      <point x="163" y="440"/>
      <point x="166" y="450" type="curve"/>
      <point x="177" y="475"/>
      <point x="172" y="501"/>
      <point x="157" y="497" type="curve"/>
      <point x="135" y="429" type="line"/>
      <point x="132" y="407"/>
      <point x="131" y="394"/>
      <point x="131" y="381" type="curve" smooth="yes"/>
      <point x="131" y="308"/>
      <point x="174" y="273"/>
      <point x="232" y="273" type="curve" smooth="yes"/>
      <point x="295" y="273"/>
      <point x="337" y="325"/>
      <point x="337" y="391" type="curve" smooth="yes"/>
      <point x="337" y="457"/>
      <point x="301" y="519"/>
      <point x="230" y="519" type="curve" smooth="yes"/>
      <point x="128" y="519"/>
      <point x="60" y="414"/>
      <point x="60" y="283" type="curve" smooth="yes"/>
      <point x="60" y="104"/>
      <point x="180" y="-14"/>
      <point x="391" y="-14" type="curve" smooth="yes"/>
    </contour>
  </outline>
</glyph>
<glyph name="knAA" format="1">
  <advance width="744"/>
  <unicode hex="0C86"/>
  <outline>
    <contour>
      <point x="575" y="-14"/>
      <point x="665" y="90"/>
      <point x="665" y="188" type="curve" smooth="yes"/>
      <point x="665" y="303"/>
      <point x="554" y="333"/>
      <point x="554" y="405" type="curve" smooth="yes"/>
      <point x="554" y="432"/>
      <point x="576" y="454"/>
      <point x="616" y="454" type="curve" smooth="yes"/>
      <point x="654" y="454"/>
      <point x="678" y="431"/>
      <point x="678" y="406" type="curve" smooth="yes"/>
      <point x="678" y="373"/>
      <point x="652" y="355"/>
      <point x="601" y="355" type="curve" smooth="yes"/>
      <point x="396" y="355" type="line"/>
      <point x="396" y="283" type="line"/>
      <point x="568" y="283" type="line" smooth="yes"/>
      <point x="655" y="283"/>
      <point x="709" y="332"/>
      <point x="709" y="408" type="curve" smooth="yes"/>
      <point x="709" y="463"/>
      <point x="668" y="519"/>
      <point x="605" y="519" type="curve" smooth="yes"/>
      <point x="552" y="519"/>
      <point x="515" y="485"/>
      <point x="515" y="423" type="curve" smooth="yes"/>
      <point x="515" y="335"/>
      <point x="621" y="293"/>
      <point x="621" y="213" type="curve" smooth="yes"/>
      <point x="621" y="136"/>
      <point x="535" y="71"/>
      <point x="371" y="71" type="curve" smooth="yes"/>
      <point x="202" y="71"/>
      <point x="100" y="171"/>
      <point x="100" y="294" type="curve" smooth="yes"/>
      <point x="100" y="387"/>
      <point x="142" y="454"/>
      <point x="235" y="454" type="curve" smooth="yes"/>
      <point x="273" y="454"/>
      <point x="307" y="440"/>
      <point x="307" y="401" type="curve" smooth="yes"/>
      <point x="307" y="365"/>
      <point x="279" y="344"/>
      <point x="232" y="344" type="curve" smooth="yes"/>
      <point x="190" y="344"/>
      <point x="159" y="365"/>
      <point x="159" y="408" type="curve" smooth="yes"/>
      <point x="159" y="419"/>
      <point x="163" y="440"/>
      <point x="166" y="450" type="curve"/>
      <point x="177" y="475"/>
      <point x="172" y="501"/>
      <point x="157" y="497" type="curve"/>
      <point x="135" y="429" type="line"/>
      <point x="132" y="407"/>
      <point x="131" y="394"/>
      <point x="131" y="381" type="curve" smooth="yes"/>
      <point x="131" y="308"/>
      <point x="174" y="273"/>
      <point x="232" y="273" type="curve" smooth="yes"/>
      <point x="295" y="273"/>
      <point x="337" y="325"/>
      <point x="337" y="391" type="curve" smooth="yes"/>
      <point x="337" y="457"/>
      <point x="301" y="519"/>
      <point x="230" y="519" type="curve" smooth="yes"/>
      <point x="128" y="519"/>
      <point x="60" y="414"/>
      <point x="60" y="283" type="curve" smooth="yes"/>
      <point x="60" y="109"/>
      <point x="180" y="-14"/>
      <point x="381" y="-14" type="curve" smooth="yes"/>
    </contour>
  </outline>
</glyph>
<glyph name="knU" format="1">
  <advance width="1029"/>
  <unicode hex="0C89"/>
  <outline>
    <contour>
      <point x="387" y="-14"/>
      <point x="473" y="42"/>
      <point x="473" y="150" type="curve" smooth="yes"/>
      <point x="473" y="229"/>
      <point x="461" y="284"/>
      <point x="461" y="339" type="curve" smooth="yes"/>
      <point x="461" y="396"/>
      <point x="492" y="441"/>
      <point x="551" y="441" type="curve" smooth="yes"/>
      <point x="605" y="441"/>
      <point x="639" y="406"/>
      <point x="639" y="339" type="curve" smooth="yes"/>
      <point x="639" y="276"/>
      <point x="634" y="220"/>
      <point x="634" y="150" type="curve" smooth="yes"/>
      <point x="634" y="65"/>
      <point x="679" y="-14"/>
      <point x="786" y="-14" type="curve" smooth="yes"/>
      <point x="899" y="-14"/>
      <point x="979" y="95"/>
      <point x="979" y="242" type="curve" smooth="yes"/>
      <point x="979" y="415"/>
      <point x="883" y="513"/>
      <point x="812" y="513" type="curve" smooth="yes"/>
      <point x="781" y="513"/>
      <point x="764" y="493"/>
      <point x="764" y="470" type="curve" smooth="yes"/>
      <point x="764" y="451"/>
      <point x="776" y="435"/>
      <point x="792" y="430" type="curve" smooth="yes"/>
      <point x="815" y="423"/>
      <point x="836" y="428"/>
      <point x="860" y="420" type="curve" smooth="yes"/>
      <point x="897" y="407"/>
      <point x="944" y="344"/>
      <point x="944" y="255" type="curve" smooth="yes"/>
      <point x="944" y="137"/>
      <point x="874" y="71"/>
      <point x="786" y="71" type="curve" smooth="yes"/>
      <point x="713" y="71"/>
      <point x="672" y="138"/>
      <point x="672" y="206" type="curve" smooth="yes"/>
      <point x="672" y="256"/>
      <point x="681" y="312"/>
      <point x="681" y="375" type="curve" smooth="yes"/>
      <point x="681" y="453"/>
      <point x="637" y="519"/>
      <point x="556" y="519" type="curve" smooth="yes"/>
      <point x="469" y="519"/>
      <point x="419" y="453"/>
      <point x="419" y="368" type="curve" smooth="yes"/>
      <point x="419" y="312"/>
      <point x="436" y="256"/>
      <point x="436" y="189" type="curve" smooth="yes"/>
      <point x="436" y="118"/>
      <point x="379" y="71"/>
      <point x="321" y="71" type="curve" smooth="yes"/>
      <point x="190" y="71"/>
      <point x="100" y="171"/>
      <point x="100" y="294" type="curve" smooth="yes"/>
      <point x="100" y="387"/>
      <point x="142" y="454"/>
      <point x="235" y="454" type="curve" smooth="yes"/>
      <point x="273" y="454"/>
      <point x="307" y="440"/>
      <point x="307" y="401" type="curve" smooth="yes"/>
      <point x="307" y="365"/>
      <point x="279" y="344"/>
      <point x="232" y="344" type="curve" smooth="yes"/>
      <point x="190" y="344"/>
      <point x="159" y="365"/>
      <point x="159" y="408" type="curve" smooth="yes"/>
      <point x="159" y="419"/>
      <point x="163" y="440"/>
      <point x="166" y="450" type="curve"/>
      <point x="177" y="475"/>
      <point x="172" y="501"/>
      <point x="157" y="497" type="curve"/>
      <point x="135" y="429" type="line"/>
      <point x="132" y="407"/>
      <point x="131" y="394"/>
      <point x="131" y="381" type="curve" smooth="yes"/>
      <point x="131" y="308"/>
      <point x="174" y="273"/>
      <point x="232" y="273" type="curve" smooth="yes"/>
      <point x="295" y="273"/>
      <point x="337" y="325"/>
      <point x="337" y="391" type="curve" smooth="yes"/>
      <point x="337" y="457"/>
      <point x="301" y="519"/>
      <point x="230" y="519" type="curve" smooth="yes"/>
      <point x="128" y="519"/>
      <point x="60" y="414"/>
      <point x="60" y="283" type="curve" smooth="yes"/>
      <point x="60" y="104"/>
      <point x="168" y="-14"/>
      <point x="319" y="-14" type="curve" smooth="yes"/>
    </contour>
  </outline>
</glyph>
<glyph name="knUU" format="1">
  <advance width="1409"/>
  <unicode hex="0C8A"/>
  <outline>
    <contour>
      <point x="387" y="-14"/>
      <point x="473" y="42"/>
      <point x="473" y="150" type="curve" smooth="yes"/>
      <point x="473" y="229"/>
      <point x="461" y="284"/>
      <point x="461" y="339" type="curve" smooth="yes"/>
      <point x="461" y="396"/>
      <point x="492" y="441"/>
      <point x="551" y="441" type="curve" smooth="yes"/>
      <point x="605" y="441"/>
      <point x="639" y="406"/>
      <point x="639" y="339" type="curve" smooth="yes"/>
      <point x="639" y="276"/>
      <point x="634" y="220"/>
      <point x="634" y="150" type="curve" smooth="yes"/>
      <point x="634" y="65"/>
      <point x="674" y="-14"/>
      <point x="779" y="-14" type="curve" smooth="yes"/>
      <point x="879" y="-14"/>
      <point x="922" y="73"/>
      <point x="922" y="231" type="curve" smooth="yes"/>
      <point x="922" y="371"/>
      <point x="998" y="441"/>
      <point x="1105" y="441" type="curve" smooth="yes"/>
      <point x="1220" y="441"/>
      <point x="1319" y="363"/>
      <point x="1319" y="235" type="curve" smooth="yes"/>
      <point x="1319" y="129"/>
      <point x="1257" y="68"/>
      <point x="1167" y="68" type="curve" smooth="yes"/>
      <point x="1094" y="68"/>
      <point x="1050" y="111"/>
      <point x="1049" y="169" type="curve" smooth="yes"/>
      <point x="1048" y="211"/>
      <point x="1070" y="237"/>
      <point x="1082" y="237" type="curve" smooth="yes"/>
      <point x="1087" y="237"/>
      <point x="1088" y="233"/>
      <point x="1088" y="227" type="curve"/>
      <point x="1089" y="191"/>
      <point x="1110" y="165"/>
      <point x="1143" y="165" type="curve" smooth="yes"/>
      <point x="1178" y="165"/>
      <point x="1204" y="194"/>
      <point x="1203" y="230" type="curve"/>
      <point x="1204" y="262"/>
      <point x="1179" y="299"/>
      <point x="1124" y="299" type="curve" smooth="yes"/>
      <point x="1052" y="299"/>
      <point x="1012" y="235"/>
      <point x="1011" y="157" type="curve" smooth="yes"/>
      <point x="1012" y="58"/>
      <point x="1072" y="-14"/>
      <point x="1168" y="-14" type="curve" smooth="yes"/>
      <point x="1280" y="-14"/>
      <point x="1354" y="92"/>
      <point x="1354" y="238" type="curve" smooth="yes"/>
      <point x="1354" y="402"/>
      <point x="1244" y="519"/>
      <point x="1096" y="519" type="curve" smooth="yes"/>
      <point x="974" y="519"/>
      <point x="885" y="423"/>
      <point x="885" y="248" type="curve" smooth="yes"/>
      <point x="885" y="116"/>
      <point x="849" y="71"/>
      <point x="776" y="71" type="curve" smooth="yes"/>
      <point x="706" y="71"/>
      <point x="672" y="138"/>
      <point x="672" y="206" type="curve" smooth="yes"/>
      <point x="672" y="256"/>
      <point x="681" y="312"/>
      <point x="681" y="375" type="curve" smooth="yes"/>
      <point x="681" y="453"/>
      <point x="637" y="519"/>
      <point x="556" y="519" type="curve" smooth="yes"/>
      <point x="469" y="519"/>
      <point x="419" y="453"/>
      <point x="419" y="368" type="curve" smooth="yes"/>
      <point x="419" y="312"/>
      <point x="436" y="256"/>
      <point x="436" y="189" type="curve" smooth="yes"/>
      <point x="436" y="118"/>
      <point x="379" y="71"/>
      <point x="321" y="71" type="curve" smooth="yes"/>
      <point x="190" y="71"/>
      <point x="100" y="171"/>
      <point x="100" y="294" type="curve" smooth="yes"/>
      <point x="100" y="387"/>
      <point x="142" y="454"/>
      <point x="235" y="454" type="curve" smooth="yes"/>
      <point x="273" y="454"/>
      <point x="307" y="440"/>
      <point x="307" y="401" type="curve" smooth="yes"/>
      <point x="307" y="365"/>
      <point x="279" y="344"/>
      <point x="232" y="344" type="curve" smooth="yes"/>
      <point x="190" y="344"/>
      <point x="159" y="365"/>
      <point x="159" y="408" type="curve" smooth="yes"/>
      <point x="159" y="419"/>
      <point x="163" y="440"/>
      <point x="166" y="450" type="curve"/>
      <point x="177" y="475"/>
      <point x="172" y="501"/>
      <point x="157" y="497" type="curve"/>
      <point x="135" y="429" type="line"/>
      <point x="132" y="407"/>
      <point x="131" y="394"/>
      <point x="131" y="381" type="curve" smooth="yes"/>
      <point x="131" y="308"/>
      <point x="174" y="273"/>
      <point x="232" y="273" type="curve" smooth="yes"/>
      <point x="295" y="273"/>
      <point x="337" y="325"/>
      <point x="337" y="391" type="curve" smooth="yes"/>
      <point x="337" y="457"/>
      <point x="301" y="519"/>
      <point x="230" y="519" type="curve" smooth="yes"/>
      <point x="128" y="519"/>
      <point x="60" y="414"/>
      <point x="60" y="283" type="curve" smooth="yes"/>
      <point x="60" y="104"/>
      <point x="168" y="-14"/>
      <point x="319" y="-14" type="curve" smooth="yes"/>
    </contour>
  </outline>
</glyph>
<glyph name="knvR" format="1">
  <advance width="1102"/>
  <unicode hex="0C8B"/>
  <outline>
    <contour>
      <point x="972" y="-14"/>
      <point x="1052" y="95"/>
      <point x="1052" y="242" type="curve" smooth="yes"/>
      <point x="1052" y="415"/>
      <point x="956" y="513"/>
      <point x="885" y="513" type="curve" smooth="yes"/>
      <point x="854" y="513"/>
      <point x="837" y="493"/>
      <point x="837" y="470" type="curve" smooth="yes"/>
      <point x="837" y="451"/>
      <point x="849" y="435"/>
      <point x="865" y="430" type="curve" smooth="yes"/>
      <point x="888" y="423"/>
      <point x="909" y="428"/>
      <point x="933" y="420" type="curve" smooth="yes"/>
      <point x="970" y="407"/>
      <point x="1017" y="344"/>
      <point x="1017" y="255" type="curve" smooth="yes"/>
      <point x="1017" y="137"/>
      <point x="947" y="71"/>
      <point x="859" y="71" type="curve" smooth="yes"/>
      <point x="790" y="71"/>
      <point x="737" y="105"/>
      <point x="700" y="207" type="curve"/>
      <point x="680" y="188" type="line"/>
      <point x="698" y="61"/>
      <point x="773" y="-14"/>
      <point x="859" y="-14" type="curve" smooth="yes"/>
    </contour>
    <contour>
      <point x="308" y="-15"/>
      <point x="388" y="120"/>
      <point x="388" y="251" type="curve" smooth="yes"/>
      <point x="388" y="382"/>
      <point x="310" y="519"/>
      <point x="158" y="519" type="curve" smooth="yes"/>
      <point x="96" y="519"/>
      <point x="43" y="471"/>
      <point x="43" y="405" type="curve" smooth="yes"/>
      <point x="43" y="339"/>
      <point x="102" y="289"/>
      <point x="155" y="289" type="curve" smooth="yes"/>
      <point x="213" y="289"/>
      <point x="257" y="332"/>
      <point x="257" y="405" type="curve" smooth="yes"/>
      <point x="257" y="418"/>
      <point x="256" y="431"/>
      <point x="253" y="453" type="curve"/>
      <point x="222" y="470" type="line"/>
      <point x="225" y="460"/>
      <point x="229" y="439"/>
      <point x="229" y="428" type="curve" smooth="yes"/>
      <point x="229" y="382"/>
      <point x="199" y="355"/>
      <point x="157" y="355" type="curve" smooth="yes"/>
      <point x="111" y="355"/>
      <point x="80" y="377"/>
      <point x="80" y="405" type="curve" smooth="yes"/>
      <point x="80" y="432"/>
      <point x="109" y="449"/>
      <point x="153" y="449" type="curve" smooth="yes"/>
      <point x="266" y="449"/>
      <point x="348" y="365"/>
      <point x="348" y="249" type="curve" smooth="yes"/>
      <point x="348" y="149"/>
      <point x="281" y="57"/>
      <point x="158" y="57" type="curve" smooth="yes"/>
      <point x="108" y="57"/>
      <point x="78" y="83"/>
      <point x="78" y="112" type="curve" smooth="yes"/>
      <point x="78" y="140"/>
      <point x="107" y="161"/>
      <point x="154" y="161" type="curve" smooth="yes"/>
      <point x="196" y="161"/>
      <point x="226" y="122"/>
      <point x="226" y="76" type="curve" smooth="yes"/>
      <point x="226" y="65"/>
      <point x="222" y="44"/>
      <point x="219" y="34" type="curve"/>
      <point x="250" y="54" type="line"/>
      <point x="253" y="76"/>
      <point x="254" y="89"/>
      <point x="254" y="102" type="curve" smooth="yes"/>
      <point x="254" y="175"/>
      <point x="210" y="227"/>
      <point x="152" y="227" type="curve" smooth="yes"/>
      <point x="89" y="227"/>
      <point x="40" y="176"/>
      <point x="40" y="110" type="curve" smooth="yes"/>
      <point x="40" y="42"/>
      <point x="96" y="-15"/>
      <point x="165" y="-15" type="curve" smooth="yes"/>
    </contour>
    <contour>
      <point x="636" y="-14"/>
      <point x="716" y="95"/>
      <point x="716" y="242" type="curve" smooth="yes"/>
      <point x="716" y="415"/>
      <point x="620" y="509"/>
      <point x="549" y="509" type="curve" smooth="yes"/>
      <point x="518" y="509"/>
      <point x="501" y="493"/>
      <point x="501" y="470" type="curve" smooth="yes"/>
      <point x="501" y="464"/>
      <point x="530" y="453"/>
      <point x="569" y="434" type="curve" smooth="yes"/>
      <point x="616" y="411"/>
      <point x="681" y="344"/>
      <point x="681" y="255" type="curve" smooth="yes"/>
      <point x="681" y="137"/>
      <point x="611" y="71"/>
      <point x="523" y="71" type="curve" smooth="yes"/>
      <point x="454" y="71"/>
      <point x="401" y="105"/>
      <point x="364" y="207" type="curve"/>
      <point x="344" y="188" type="line"/>
      <point x="362" y="61"/>
      <point x="437" y="-14"/>
      <point x="523" y="-14" type="curve" smooth="yes"/>
    </contour>
    <contour>
      <point x="613" y="434" type="line" smooth="yes"/>
      <point x="694" y="434"/>
      <point x="748" y="480"/>
      <point x="748" y="552" type="curve" smooth="yes"/>
      <point x="748" y="607"/>
      <point x="717" y="648"/>
      <point x="674" y="664" type="curve"/>
      <point x="659" y="644" type="line"/>
      <point x="683" y="635"/>
      <point x="705" y="610"/>
      <point x="705" y="576" type="curve" smooth="yes"/>
      <point x="705" y="536"/>
      <point x="674" y="509"/>
      <point x="613" y="509" type="curve" smooth="yes"/>
      <point x="421" y="509" type="line"/>
      <point x="421" y="434" type="line"/>
    </contour>
  </outline>
</glyph>
<glyph name="knE" format="1">
  <advance width="725"/>
  <unicode hex="0C8E"/>
  <outline>
    <contour>
      <point x="243" y="-14"/>
      <point x="311" y="43"/>
      <point x="334" y="126" type="curve"/>
      <point x="336" y="126" type="line"/>
      <point x="359" y="43"/>
      <point x="427" y="-14"/>
      <point x="497" y="-14" type="curve" smooth="yes"/>
      <point x="608" y="-14"/>
      <point x="670" y="88"/>
      <point x="670" y="211" type="curve" smooth="yes"/>
      <point x="670" y="426"/>
      <point x="476" y="519"/>
      <point x="343" y="519" type="curve" smooth="yes"/>
      <point x="308" y="519"/>
      <point x="288" y="500"/>
      <point x="288" y="477" type="curve" smooth="yes"/>
      <point x="288" y="460"/>
      <point x="297" y="444"/>
      <point x="312" y="438" type="curve" smooth="yes"/>
      <point x="334" y="430"/>
      <point x="354" y="439"/>
      <point x="383" y="439" type="curve" smooth="yes"/>
      <point x="522" y="439"/>
      <point x="635" y="352"/>
      <point x="635" y="227" type="curve" smooth="yes"/>
      <point x="635" y="138"/>
      <point x="579" y="71"/>
      <point x="491" y="71" type="curve" smooth="yes"/>
      <point x="418" y="71"/>
      <point x="352" y="146"/>
      <point x="339" y="221" type="curve"/>
      <point x="330" y="221" type="line"/>
      <point x="316" y="145"/>
      <point x="251" y="71"/>
      <point x="178" y="71" type="curve" smooth="yes"/>
      <point x="127" y="71"/>
      <point x="92" y="104"/>
      <point x="90" y="156" type="curve"/>
      <point x="92" y="201"/>
      <point x="121" y="227"/>
      <point x="156" y="227" type="curve" smooth="yes"/>
      <point x="188" y="227"/>
      <point x="213" y="217"/>
      <point x="222" y="193" type="curve"/>
      <point x="238" y="208" type="line"/>
      <point x="227" y="250"/>
      <point x="203" y="287"/>
      <point x="153" y="287" type="curve" smooth="yes"/>
      <point x="95" y="287"/>
      <point x="52" y="232"/>
      <point x="50" y="143" type="curve"/>
      <point x="52" y="56"/>
      <point x="101" y="-14"/>
      <point x="173" y="-14" type="curve" smooth="yes"/>
    </contour>
  </outline>
</glyph>
<glyph name="knO" format="1">
  <advance width="680"/>
  <unicode hex="0C92"/>
  <outline>
    <contour>
      <point x="261" y="-14"/>
      <point x="329" y="43"/>
      <point x="352" y="126" type="curve"/>
      <point x="354" y="126" type="line"/>
      <point x="377" y="43"/>
      <point x="445" y="-14"/>
      <point x="513" y="-14" type="curve" smooth="yes"/>
      <point x="579" y="-14"/>
      <point x="640" y="38"/>
      <point x="640" y="125" type="curve" smooth="yes"/>
      <point x="640" y="172"/>
      <point x="611" y="222"/>
      <point x="577" y="251" type="curve"/>
      <point x="556" y="236" type="line"/>
      <point x="580" y="212"/>
      <point x="592" y="183"/>
      <point x="592" y="154" type="curve" smooth="yes"/>
      <point x="592" y="116"/>
      <point x="567" y="71"/>
      <point x="509" y="71" type="curve" smooth="yes"/>
      <point x="436" y="71"/>
      <point x="370" y="146"/>
      <point x="357" y="221" type="curve"/>
      <point x="348" y="221" type="line"/>
      <point x="334" y="145"/>
      <point x="269" y="71"/>
      <point x="196" y="71" type="curve" smooth="yes"/>
      <point x="143" y="71"/>
      <point x="116" y="114"/>
      <point x="116" y="156" type="curve" smooth="yes"/>
      <point x="116" y="187"/>
      <point x="140" y="223"/>
      <point x="174" y="257" type="curve" smooth="yes"/>
      <point x="215" y="298"/>
      <point x="263" y="349"/>
      <point x="263" y="399" type="curve" smooth="yes"/>
      <point x="263" y="465"/>
      <point x="215" y="519"/>
      <point x="139" y="519" type="curve" smooth="yes"/>
      <point x="64" y="519"/>
      <point x="25" y="465"/>
      <point x="25" y="413" type="curve" smooth="yes"/>
      <point x="25" y="381"/>
      <point x="33" y="352"/>
      <point x="54" y="330" type="curve"/>
      <point x="74" y="345" type="line"/>
      <point x="67" y="360"/>
      <point x="64" y="372"/>
      <point x="64" y="383" type="curve" smooth="yes"/>
      <point x="64" y="421"/>
      <point x="87" y="452"/>
      <point x="139" y="452" type="curve" smooth="yes"/>
      <point x="176" y="452"/>
      <point x="210" y="427"/>
      <point x="210" y="385" type="curve" smooth="yes"/>
      <point x="210" y="344"/>
      <point x="179" y="311"/>
      <point x="147" y="278" type="curve" smooth="yes"/>
      <point x="108" y="238"/>
      <point x="65" y="193"/>
      <point x="65" y="125" type="curve" smooth="yes"/>
      <point x="65" y="38"/>
      <point x="126" y="-14"/>
      <point x="193" y="-14" type="curve" smooth="yes"/>
    </contour>
  </outline>
</glyph>
<glyph name="knJHA" format="1">
  <advance width="1226"/>
  <unicode hex="0C9D"/>
  <outline>
    <contour>
      <point x="421" y="-14"/>
      <point x="515" y="86"/>
      <point x="515" y="226" type="curve" smooth="yes"/>
      <point x="515" y="315"/>
      <point x="469" y="398"/>
      <point x="395" y="436" type="curve" smooth="yes"/>
      <point x="363" y="453"/>
      <point x="326" y="461"/>
      <point x="285" y="461" type="curve" smooth="yes"/>
      <point x="244" y="461"/>
      <point x="207" y="453"/>
      <point x="175" y="436" type="curve" smooth="yes"/>
      <point x="101" y="398"/>
      <point x="55" y="315"/>
      <point x="55" y="226" type="curve" smooth="yes"/>
      <point x="55" y="86"/>
      <point x="149" y="-14"/>
      <point x="285" y="-14" type="curve" smooth="yes"/>
    </contour>
    <contour>
      <point x="175" y="71"/>
      <point x="100" y="144"/>
      <point x="100" y="247" type="curve" smooth="yes"/>
      <point x="100" y="348"/>
      <point x="184" y="433"/>
      <point x="285" y="433" type="curve" smooth="yes"/>
      <point x="386" y="433"/>
      <point x="470" y="349"/>
      <point x="470" y="248" type="curve" smooth="yes"/>
      <point x="470" y="145"/>
      <point x="394" y="71"/>
      <point x="285" y="71" type="curve" smooth="yes"/>
    </contour>
    <contour>
      <point x="836" y="-220"/>
      <point x="861" y="-201"/>
      <point x="861" y="-161" type="curve" smooth="yes"/>
      <point x="861" y="-117"/>
      <point x="832" y="-104"/>
      <point x="818" y="16" type="curve"/>
      <point x="802" y="16" type="line"/>
      <point x="789" y="-104"/>
      <point x="758" y="-117"/>
      <point x="758" y="-161" type="curve" smooth="yes"/>
      <point x="758" y="-197"/>
      <point x="783" y="-220"/>
      <point x="810" y="-220" type="curve" smooth="yes"/>
    </contour>
    <contour>
      <point x="218" y="434" type="line"/>
      <point x="284" y="451" type="line"/>
      <point x="348" y="434" type="line"/>
      <point x="380" y="434" type="line" smooth="yes"/>
      <point x="461" y="434"/>
      <point x="515" y="480"/>
      <point x="515" y="552" type="curve" smooth="yes"/>
      <point x="515" y="607"/>
      <point x="484" y="648"/>
      <point x="441" y="664" type="curve"/>
      <point x="426" y="644" type="line"/>
      <point x="450" y="635"/>
      <point x="472" y="610"/>
      <point x="472" y="576" type="curve" smooth="yes"/>
      <point x="472" y="536"/>
      <point x="441" y="509"/>
      <point x="380" y="509" type="curve" smooth="yes"/>
      <point x="55" y="509" type="line"/>
      <point x="55" y="434" type="line"/>
    </contour>
    <contour>
      <point x="755" y="-14"/>
      <point x="835" y="95"/>
      <point x="835" y="242" type="curve" smooth="yes"/>
      <point x="835" y="415"/>
      <point x="739" y="513"/>
      <point x="668" y="513" type="curve" smooth="yes"/>
      <point x="637" y="513"/>
      <point x="620" y="493"/>
      <point x="620" y="470" type="curve" smooth="yes"/>
      <point x="620" y="451"/>
      <point x="632" y="435"/>
      <point x="648" y="430" type="curve" smooth="yes"/>
      <point x="671" y="423"/>
      <point x="692" y="428"/>
      <point x="716" y="420" type="curve" smooth="yes"/>
      <point x="753" y="407"/>
      <point x="800" y="344"/>
      <point x="800" y="255" type="curve" smooth="yes"/>
      <point x="800" y="137"/>
      <point x="730" y="71"/>
      <point x="642" y="71" type="curve" smooth="yes"/>
      <point x="573" y="71"/>
      <point x="520" y="105"/>
      <point x="483" y="207" type="curve"/>
      <point x="463" y="188" type="line"/>
      <point x="481" y="61"/>
      <point x="556" y="-14"/>
      <point x="642" y="-14" type="curve" smooth="yes"/>
    </contour>
    <contour>
      <point x="1091" y="-14"/>
      <point x="1171" y="95"/>
      <point x="1171" y="242" type="curve" smooth="yes"/>
      <point x="1171" y="415"/>
      <point x="1075" y="513"/>
      <point x="1004" y="513" type="curve" smooth="yes"/>
      <point x="973" y="513"/>
      <point x="956" y="493"/>
      <point x="956" y="470" type="curve" smooth="yes"/>
      <point x="956" y="451"/>
      <point x="968" y="435"/>
      <point x="984" y="430" type="curve" smooth="yes"/>
      <point x="1007" y="423"/>
      <point x="1028" y="428"/>
      <point x="1052" y="420" type="curve" smooth="yes"/>
      <point x="1089" y="407"/>
      <point x="1136" y="344"/>
      <point x="1136" y="255" type="curve" smooth="yes"/>
      <point x="1136" y="137"/>
      <point x="1066" y="71"/>
      <point x="978" y="71" type="curve" smooth="yes"/>
      <point x="909" y="71"/>
      <point x="856" y="105"/>
      <point x="819" y="207" type="curve"/>
      <point x="799" y="188" type="line"/>
      <point x="817" y="61"/>
      <point x="892" y="-14"/>
      <point x="978" y="-14" type="curve" smooth="yes"/>
    </contour>
  </outline>
</glyph>
<glyph name="knNNA" format="1">
  <advance width="795"/>
  <unicode hex="0CA3"/>
  <outline>
    <contour>
      <point x="249" y="-14"/>
      <point x="287" y="78"/>
      <point x="290" y="139" type="curve"/>
      <point x="267" y="151" type="line"/>
      <point x="246" y="88"/>
      <point x="213" y="66"/>
      <point x="168" y="66" type="curve" smooth="yes"/>
      <point x="125" y="66"/>
      <point x="102" y="90"/>
      <point x="102" y="124" type="curve" smooth="yes"/>
      <point x="102" y="172"/>
      <point x="146" y="217"/>
      <point x="233" y="231" type="curve"/>
      <point x="233" y="240" type="line"/>
      <point x="152" y="255"/>
      <point x="101" y="302"/>
      <point x="101" y="357" type="curve" smooth="yes"/>
      <point x="101" y="407"/>
      <point x="136" y="441"/>
      <point x="196" y="441" type="curve" smooth="yes"/>
      <point x="273" y="441"/>
      <point x="332" y="366"/>
      <point x="346" y="283" type="curve"/>
      <point x="355" y="283" type="line"/>
      <point x="368" y="365"/>
      <point x="433" y="441"/>
      <point x="517" y="441" type="curve" smooth="yes"/>
      <point x="630" y="441"/>
      <point x="695" y="357"/>
      <point x="695" y="249" type="curve" smooth="yes"/>
      <point x="695" y="128"/>
      <point x="623" y="71"/>
      <point x="550" y="71" type="curve" smooth="yes"/>
      <point x="488" y="71"/>
      <point x="449" y="104"/>
      <point x="449" y="156" type="curve" smooth="yes"/>
      <point x="449" y="201"/>
      <point x="478" y="227"/>
      <point x="515" y="227" type="curve" smooth="yes"/>
      <point x="545" y="227"/>
      <point x="570" y="217"/>
      <point x="581" y="193" type="curve"/>
      <point x="597" y="208" type="line"/>
      <point x="584" y="250"/>
      <point x="560" y="287"/>
      <point x="512" y="287" type="curve" smooth="yes"/>
      <point x="452" y="287"/>
      <point x="409" y="237"/>
      <point x="409" y="148" type="curve" smooth="yes"/>
      <point x="409" y="51"/>
      <point x="471" y="-14"/>
      <point x="552" y="-14" type="curve" smooth="yes"/>
      <point x="656" y="-14"/>
      <point x="730" y="97"/>
      <point x="730" y="235" type="curve" smooth="yes"/>
      <point x="730" y="392"/>
      <point x="651" y="519"/>
      <point x="529" y="519" type="curve" smooth="yes"/>
      <point x="443" y="519"/>
      <point x="375" y="461"/>
      <point x="352" y="377" type="curve"/>
      <point x="349" y="377" type="line"/>
      <point x="326" y="461"/>
      <point x="264" y="519"/>
      <point x="188" y="519" type="curve" smooth="yes"/>
      <point x="113" y="519"/>
      <point x="55" y="464"/>
      <point x="55" y="385" type="curve" smooth="yes"/>
      <point x="55" y="312"/>
      <point x="114" y="246"/>
      <point x="161" y="238" type="curve"/>
      <point x="99" y="217"/>
      <point x="55" y="164"/>
      <point x="55" y="102" type="curve" smooth="yes"/>
      <point x="55" y="36"/>
      <point x="98" y="-14"/>
      <point x="168" y="-14" type="curve" smooth="yes"/>
    </contour>
  </outline>
</glyph>
<glyph name="knTA" format="1">
  <advance width="594"/>
  <unicode hex="0CA4"/>
  <outline>
    <contour>
      <point x="444" y="-14"/>
      <point x="539" y="75"/>
      <point x="539" y="191" type="curve" smooth="yes"/>
      <point x="539" y="307"/>
      <point x="440" y="380"/>
      <point x="332" y="380" type="curve" smooth="yes"/>
      <point x="235" y="380"/>
      <point x="178" y="342"/>
      <point x="178" y="287" type="curve" smooth="yes"/>
      <point x="178" y="230"/>
      <point x="234" y="189"/>
      <point x="305" y="189" type="curve" smooth="yes"/>
      <point x="385" y="189"/>
      <point x="452" y="242"/>
      <point x="452" y="322" type="curve" smooth="yes"/>
      <point x="452" y="385"/>
      <point x="405" y="437"/>
      <point x="359" y="449" type="curve"/>
      <point x="294" y="440" type="line"/>
      <point x="348" y="440"/>
      <point x="414" y="394"/>
      <point x="414" y="338" type="curve" smooth="yes"/>
      <point x="414" y="279"/>
      <point x="367" y="247"/>
      <point x="311" y="247" type="curve" smooth="yes"/>
      <point x="263" y="247"/>
      <point x="233" y="265"/>
      <point x="233" y="294" type="curve" smooth="yes"/>
      <point x="233" y="325"/>
      <point x="271" y="344"/>
      <point x="331" y="344" type="curve" smooth="yes"/>
      <point x="420" y="344"/>
      <point x="493" y="293"/>
      <point x="493" y="213" type="curve" smooth="yes"/>
      <point x="493" y="139"/>
      <point x="422" y="71"/>
      <point x="300" y="71" type="curve" smooth="yes"/>
      <point x="173" y="71"/>
      <point x="97" y="129"/>
      <point x="97" y="199" type="curve" smooth="yes"/>
      <point x="97" y="220"/>
      <point x="100" y="239"/>
      <point x="108" y="254" type="curve"/>
      <point x="84" y="258" type="line"/>
      <point x="72" y="240"/>
      <point x="60" y="204"/>
      <point x="60" y="170" type="curve" smooth="yes"/>
      <point x="60" y="76"/>
      <point x="145" y="-14"/>
      <point x="296" y="-14" type="curve" smooth="yes"/>
    </contour>
    <contour>
      <point x="394" y="434" type="line" smooth="yes"/>
      <point x="475" y="434"/>
      <point x="529" y="480"/>
      <point x="529" y="552" type="curve" smooth="yes"/>
      <point x="529" y="607"/>
      <point x="498" y="648"/>
      <point x="455" y="664" type="curve"/>
      <point x="440" y="644" type="line"/>
      <point x="464" y="635"/>
      <point x="486" y="610"/>
      <point x="486" y="576" type="curve" smooth="yes"/>
      <point x="486" y="536"/>
      <point x="455" y="509"/>
      <point x="394" y="509" type="curve" smooth="yes"/>
      <point x="73" y="509" type="line"/>
      <point x="73" y="434" type="line"/>
    </contour>
  </outline>
</glyph>
<glyph name="knLA" format="1">
  <advance width="717"/>
  <unicode hex="0CB2"/>
  <outline>
    <contour>
      <point x="552" y="-13"/>
      <point x="657" y="116"/>
      <point x="657" y="283" type="curve" smooth="yes"/>
      <point x="657" y="416"/>
      <point x="572" y="514"/>
      <point x="508" y="514" type="curve" smooth="yes"/>
      <point x="473" y="514"/>
      <point x="453" y="494"/>
      <point x="453" y="471" type="curve" smooth="yes"/>
      <point x="453" y="452"/>
      <point x="465" y="436"/>
      <point x="481" y="431" type="curve" smooth="yes"/>
      <point x="504" y="424"/>
      <point x="525" y="429"/>
      <point x="549" y="421" type="curve" smooth="yes"/>
      <point x="586" y="408"/>
      <point x="622" y="365"/>
      <point x="622" y="293" type="curve" smooth="yes"/>
      <point x="622" y="157"/>
      <point x="522" y="72"/>
      <point x="371" y="71" type="curve" smooth="yes"/>
      <point x="200" y="70"/>
      <point x="100" y="171"/>
      <point x="100" y="294" type="curve" smooth="yes"/>
      <point x="100" y="387"/>
      <point x="142" y="454"/>
      <point x="235" y="454" type="curve" smooth="yes"/>
      <point x="273" y="454"/>
      <point x="307" y="440"/>
      <point x="307" y="401" type="curve" smooth="yes"/>
      <point x="307" y="365"/>
      <point x="279" y="344"/>
      <point x="232" y="344" type="curve" smooth="yes"/>
      <point x="190" y="344"/>
      <point x="159" y="365"/>
      <point x="159" y="408" type="curve" smooth="yes"/>
      <point x="159" y="419"/>
      <point x="163" y="440"/>
      <point x="166" y="450" type="curve"/>
      <point x="177" y="475"/>
      <point x="172" y="501"/>
      <point x="157" y="497" type="curve"/>
      <point x="135" y="429" type="line"/>
      <point x="132" y="407"/>
      <point x="131" y="394"/>
      <point x="131" y="381" type="curve" smooth="yes"/>
      <point x="131" y="308"/>
      <point x="174" y="273"/>
      <point x="232" y="273" type="curve" smooth="yes"/>
      <point x="295" y="273"/>
      <point x="337" y="325"/>
      <point x="337" y="391" type="curve" smooth="yes"/>
      <point x="337" y="457"/>
      <point x="301" y="519"/>
      <point x="230" y="519" type="curve" smooth="yes"/>
      <point x="128" y="519"/>
      <point x="60" y="414"/>
      <point x="60" y="283" type="curve" smooth="yes"/>
      <point x="60" y="104"/>
      <point x="180" y="-14"/>
      <point x="371" y="-14" type="curve" smooth="yes"/>
    </contour>
  </outline>
</glyph>
<glyph name="knLLA" format="1">
  <advance width="630"/>
  <unicode hex="0CB3"/>
  <outline>
    <contour>
      <point x="398" y="-14"/>
      <point x="442" y="34"/>
      <point x="442" y="97" type="curve" smooth="yes"/>
      <point x="442" y="301"/>
      <point x="80" y="191"/>
      <point x="80" y="363" type="curve" smooth="yes"/>
      <point x="80" y="422"/>
      <point x="146" y="454"/>
      <point x="214" y="454" type="curve" smooth="yes"/>
      <point x="265" y="454"/>
      <point x="280" y="430"/>
      <point x="280" y="413" type="curve" smooth="yes"/>
      <point x="280" y="390"/>
      <point x="260" y="373"/>
      <point x="221" y="373" type="curve" smooth="yes"/>
      <point x="178" y="373"/>
      <point x="158" y="394"/>
      <point x="158" y="427" type="curve" smooth="yes"/>
      <point x="158" y="450"/>
      <point x="163" y="471"/>
      <point x="170" y="477" type="curve"/>
      <point x="146" y="482" type="line"/>
      <point x="134" y="460"/>
      <point x="128" y="436"/>
      <point x="128" y="410" type="curve" smooth="yes"/>
      <point x="128" y="350"/>
      <point x="164" y="310"/>
      <point x="220" y="310" type="curve" smooth="yes"/>
      <point x="286" y="310"/>
      <point x="310" y="363"/>
      <point x="310" y="414" type="curve" smooth="yes"/>
      <point x="310" y="467"/>
      <point x="277" y="519"/>
      <point x="207" y="519" type="curve" smooth="yes"/>
      <point x="110" y="519"/>
      <point x="45" y="460"/>
      <point x="45" y="363" type="curve" smooth="yes"/>
      <point x="45" y="107"/>
      <point x="406" y="207"/>
      <point x="406" y="109" type="curve" smooth="yes"/>
      <point x="406" y="83"/>
      <point x="373" y="71"/>
      <point x="336" y="71" type="curve" smooth="yes"/>
      <point x="293" y="71"/>
      <point x="261" y="85"/>
      <point x="261" y="112" type="curve" smooth="yes"/>
      <point x="261" y="203"/>
      <point x="582" y="186"/>
      <point x="582" y="354" type="curve" smooth="yes"/>
      <point x="582" y="434"/>
      <point x="509" y="471"/>
      <point x="448" y="471" type="curve"/>
      <point x="439" y="434" type="line"/>
      <point x="509" y="434"/>
      <point x="547" y="400"/>
      <point x="547" y="355" type="curve" smooth="yes"/>
      <point x="547" y="211"/>
      <point x="215" y="246"/>
      <point x="215" y="86" type="curve" smooth="yes"/>
      <point x="215" y="28"/>
      <point x="260" y="-14"/>
      <point x="331" y="-14" type="curve" smooth="yes"/>
    </contour>
    <contour>
      <point x="485" y="434" type="line" smooth="yes"/>
      <point x="566" y="434"/>
      <point x="620" y="480"/>
      <point x="620" y="552" type="curve" smooth="yes"/>
      <point x="620" y="607"/>
      <point x="589" y="648"/>
      <point x="546" y="664" type="curve"/>
      <point x="531" y="644" type="line"/>
      <point x="555" y="635"/>
      <point x="577" y="610"/>
      <point x="577" y="576" type="curve" smooth="yes"/>
      <point x="577" y="536"/>
      <point x="546" y="509"/>
      <point x="485" y="509" type="curve" smooth="yes"/>
      <point x="404" y="509" type="line"/>
      <point x="404" y="434" type="line"/>
    </contour>
  </outline>
</glyph>
<glyph name="knSHA" format="1">
  <advance width="558"/>
  <unicode hex="0CB6"/>
  <outline>
    <contour>
      <point x="398" y="-14"/>
      <point x="499" y="90"/>
      <point x="499" y="236" type="curve" smooth="yes"/>
      <point x="499" y="379"/>
      <point x="398" y="469"/>
      <point x="255" y="470" type="curve" smooth="yes"/>
      <point x="162" y="471"/>
      <point x="121" y="426"/>
      <point x="121" y="377" type="curve" smooth="yes"/>
      <point x="121" y="342"/>
      <point x="147" y="308"/>
      <point x="194" y="308" type="curve" smooth="yes"/>
      <point x="228" y="308"/>
      <point x="246" y="331"/>
      <point x="246" y="353" type="curve" smooth="yes"/>
      <point x="246" y="375"/>
      <point x="230" y="393"/>
      <point x="208" y="393" type="curve" smooth="yes"/>
      <point x="188" y="393"/>
      <point x="174" y="376"/>
      <point x="174" y="354" type="curve" smooth="yes"/>
      <point x="174" y="351"/>
      <point x="173" y="347"/>
      <point x="169" y="347" type="curve" smooth="yes"/>
      <point x="160" y="347"/>
      <point x="152" y="360"/>
      <point x="152" y="378" type="curve" smooth="yes"/>
      <point x="152" y="412"/>
      <point x="186" y="439"/>
      <point x="229" y="439" type="curve" smooth="yes"/>
      <point x="272" y="439"/>
      <point x="310" y="399"/>
      <point x="310" y="346" type="curve" smooth="yes"/>
      <point x="310" y="273"/>
      <point x="251" y="261"/>
      <point x="155" y="261" type="curve" smooth="yes"/>
      <point x="82" y="261"/>
      <point x="35" y="222"/>
      <point x="35" y="163" type="curve" smooth="yes"/>
      <point x="35" y="66"/>
      <point x="113" y="-14"/>
      <point x="240" y="-14" type="curve" smooth="yes"/>
    </contour>
    <contour>
      <point x="145" y="71"/>
      <point x="82" y="126"/>
      <point x="82" y="174" type="curve" smooth="yes"/>
      <point x="82" y="209"/>
      <point x="105" y="231"/>
      <point x="189" y="231" type="curve" smooth="yes"/>
      <point x="302" y="231"/>
      <point x="342" y="274"/>
      <point x="342" y="339" type="curve" smooth="yes"/>
      <point x="342" y="383"/>
      <point x="325" y="420"/>
      <point x="293" y="440" type="curve"/>
      <point x="374" y="435"/>
      <point x="449" y="373"/>
      <point x="449" y="263" type="curve" smooth="yes"/>
      <point x="449" y="138"/>
      <point x="370" y="71"/>
      <point x="239" y="71" type="curve" smooth="yes"/>
    </contour>
    <contour>
      <point x="174" y="434" type="line"/>
      <point x="275" y="459" type="line"/>
      <point x="383" y="434" type="line"/>
      <point x="464" y="434"/>
      <point x="518" y="480"/>
      <point x="518" y="552" type="curve" smooth="yes"/>
      <point x="518" y="607"/>
      <point x="487" y="648"/>
      <point x="444" y="664" type="curve"/>
      <point x="429" y="644" type="line"/>
      <point x="453" y="635"/>
      <point x="475" y="610"/>
      <point x="475" y="576" type="curve" smooth="yes"/>
      <point x="475" y="536"/>
      <point x="444" y="509"/>
      <point x="383" y="509" type="curve" smooth="yes"/>
      <point x="38" y="509" type="line"/>
      <point x="38" y="434" type="line"/>
    </contour>
  </outline>
</glyph>
<glyph name="knHA" format="1">
  <advance width="724"/>
  <unicode hex="0CB9"/>
  <outline>
    <contour>
      <point x="533" y="434" type="line" smooth="yes"/>
      <point x="614" y="434"/>
      <point x="668" y="480"/>
      <point x="668" y="552" type="curve" smooth="yes"/>
      <point x="668" y="607"/>
      <point x="637" y="648"/>
      <point x="594" y="664" type="curve"/>
      <point x="579" y="644" type="line"/>
      <point x="603" y="635"/>
      <point x="625" y="610"/>
      <point x="625" y="576" type="curve" smooth="yes"/>
      <point x="625" y="536"/>
      <point x="594" y="509"/>
      <point x="533" y="509" type="curve" smooth="yes"/>
      <point x="55" y="509" type="line"/>
      <point x="55" y="434" type="line"/>
    </contour>
    <contour>
      <point x="292" y="-14"/>
      <point x="342" y="32"/>
      <point x="368" y="106" type="curve"/>
      <point x="365" y="247" type="line"/>
      <point x="338" y="302"/>
      <point x="296" y="340"/>
      <point x="221" y="340" type="curve" smooth="yes"/>
      <point x="126" y="340"/>
      <point x="55" y="266"/>
      <point x="55" y="162" type="curve" smooth="yes"/>
      <point x="55" y="64"/>
      <point x="126" y="-14"/>
      <point x="221" y="-14" type="curve" smooth="yes"/>
    </contour>
    <contour>
      <point x="159" y="71"/>
      <point x="105" y="113"/>
      <point x="105" y="187" type="curve" smooth="yes"/>
      <point x="105" y="256"/>
      <point x="159" y="302"/>
      <point x="221" y="302" type="curve" smooth="yes"/>
      <point x="289" y="302"/>
      <point x="341" y="259"/>
      <point x="341" y="187" type="curve" smooth="yes"/>
      <point x="341" y="113"/>
      <point x="288" y="71"/>
      <point x="221" y="71" type="curve" smooth="yes"/>
    </contour>
    <contour>
      <point x="380" y="381"/>
      <point x="345" y="448"/>
      <point x="229" y="470" type="curve"/>
      <point x="229" y="435" type="line"/>
      <point x="311" y="427"/>
      <point x="340" y="363"/>
      <point x="340" y="269" type="curve"/>
      <point x="380" y="234" type="line"/>
    </contour>
    <contour>
      <point x="598" y="-14"/>
      <point x="669" y="64"/>
      <point x="669" y="162" type="curve" smooth="yes"/>
      <point x="669" y="266"/>
      <point x="598" y="340"/>
      <point x="503" y="340" type="curve" smooth="yes"/>
      <point x="428" y="340"/>
      <point x="386" y="302"/>
      <point x="359" y="247" type="curve"/>
      <point x="356" y="106" type="line"/>
      <point x="382" y="32"/>
      <point x="431" y="-14"/>
      <point x="503" y="-14" type="curve" smooth="yes"/>
    </contour>
    <contour>
      <point x="435" y="71"/>
      <point x="383" y="113"/>
      <point x="383" y="187" type="curve" smooth="yes"/>
      <point x="383" y="259"/>
      <point x="435" y="302"/>
      <point x="497" y="302" type="curve" smooth="yes"/>
      <point x="565" y="302"/>
      <point x="619" y="256"/>
      <point x="619" y="187" type="curve" smooth="yes"/>
      <point x="619" y="113"/>
      <point x="564" y="71"/>
      <point x="497" y="71" type="curve" smooth="yes"/>
    </contour>
  </outline>
</glyph>
<glyph name="knmvR" format="1">
  <advance width="107"/>
  <unicode hex="0CC3"/>
  <outline>
    <contour>
      <point x="107" y="-308"/>
      <point x="157" y="-239"/>
      <point x="157" y="-157" type="curve" smooth="yes"/>
      <point x="157" y="-73"/>
      <point x="115" y="12"/>
      <point x="74" y="68" type="curve" smooth="yes"/>
      <point x="62" y="85"/>
      <point x="54" y="89"/>
      <point x="44" y="89" type="curve" smooth="yes"/>
      <point x="34" y="89"/>
      <point x="26" y="83"/>
      <point x="26" y="71" type="curve" smooth="yes"/>
      <point x="26" y="55"/>
      <point x="39" y="37"/>
      <point x="70" y="6" type="curve" smooth="yes"/>
      <point x="105" y="-31"/>
      <point x="134" y="-84"/>
      <point x="134" y="-155" type="curve" smooth="yes"/>
      <point x="134" y="-215"/>
      <point x="92" y="-269"/>
      <point x="24" y="-269" type="curve" smooth="yes"/>
      <point x="-36" y="-269"/>
      <point x="-85" y="-229"/>
      <point x="-85" y="-175" type="curve" smooth="yes"/>
      <point x="-85" y="-115"/>
      <point x="-49" y="-91"/>
      <point x="-23" y="-91" type="curve" smooth="yes"/>
      <point x="-4" y="-91"/>
      <point x="11" y="-105"/>
      <point x="11" y="-124" type="curve" smooth="yes"/>
      <point x="11" y="-144"/>
      <point x="0" y="-160"/>
      <point x="-19" y="-160" type="curve" smooth="yes"/>
      <point x="-37" y="-160"/>
      <point x="-50" y="-145"/>
      <point x="-50" y="-123" type="curve" smooth="yes"/>
      <point x="-50" y="-108"/>
      <point x="-44" y="-89"/>
      <point x="-30" y="-76" type="curve"/>
      <point x="-53" y="-77" type="line"/>
      <point x="-63" y="-93"/>
      <point x="-66" y="-108"/>
      <point x="-66" y="-134" type="curve" smooth="yes"/>
      <point x="-66" y="-162"/>
      <point x="-46" y="-188"/>
      <point x="-19" y="-188" type="curve" smooth="yes"/>
      <point x="13" y="-188"/>
      <point x="26" y="-161"/>
      <point x="26" y="-127" type="curve" smooth="yes"/>
      <point x="26" y="-78"/>
      <point x="-2" y="-62"/>
      <point x="-28" y="-62" type="curve" smooth="yes"/>
      <point x="-61" y="-62"/>
      <point x="-105" y="-95"/>
      <point x="-105" y="-175" type="curve" smooth="yes"/>
      <point x="-105" y="-259"/>
      <point x="-41" y="-308"/>
      <point x="21" y="-308" type="curve" smooth="yes"/>
    </contour>
  </outline>
</glyph>
<glyph name="knmvRR" format="1">
  <advance width="340"/>
  <unicode hex="0CC4"/>
  <outline>
    <contour>
      <point x="99" y="-308"/>
      <point x="155" y="-243"/>
      <point x="155" y="-170" type="curve" smooth="yes"/>
      <point x="155" y="-95"/>
      <point x="121" y="-30"/>
      <point x="82" y="21" type="curve"/>
      <point x="251" y="21" type="line" smooth="yes"/>
      <point x="324" y="21"/>
      <point x="371" y="-40"/>
      <point x="371" y="-103" type="curve" smooth="yes"/>
      <point x="371" y="-159"/>
      <point x="341" y="-201"/>
      <point x="286" y="-201" type="curve" smooth="yes"/>
      <point x="245" y="-201"/>
      <point x="219" y="-176"/>
      <point x="219" y="-143" type="curve" smooth="yes"/>
      <point x="219" y="-117"/>
      <point x="225" y="-102"/>
      <point x="232" y="-102" type="curve" smooth="yes"/>
      <point x="236" y="-102"/>
      <point x="236" y="-104"/>
      <point x="236" y="-107" type="curve" smooth="yes"/>
      <point x="236" y="-129"/>
      <point x="249" y="-144"/>
      <point x="268" y="-144" type="curve" smooth="yes"/>
      <point x="289" y="-144"/>
      <point x="304" y="-127"/>
      <point x="304" y="-105" type="curve" smooth="yes"/>
      <point x="304" y="-86"/>
      <point x="289" y="-65"/>
      <point x="257" y="-65" type="curve" smooth="yes"/>
      <point x="210" y="-65"/>
      <point x="188" y="-104"/>
      <point x="188" y="-151" type="curve" smooth="yes"/>
      <point x="188" y="-210"/>
      <point x="227" y="-251"/>
      <point x="276" y="-251" type="curve" smooth="yes"/>
      <point x="343" y="-251"/>
      <point x="395" y="-193"/>
      <point x="395" y="-95" type="curve" smooth="yes"/>
      <point x="395" y="9"/>
      <point x="326" y="60"/>
      <point x="244" y="60" type="curve" smooth="yes"/>
      <point x="26" y="60" type="line"/>
      <point x="26" y="46" type="line"/>
      <point x="72" y="-3"/>
      <point x="134" y="-78"/>
      <point x="134" y="-168" type="curve" smooth="yes"/>
      <point x="134" y="-224"/>
      <point x="83" y="-269"/>
      <point x="18" y="-269" type="curve" smooth="yes"/>
      <point x="-46" y="-269"/>
      <point x="-95" y="-229"/>
      <point x="-95" y="-175" type="curve" smooth="yes"/>
      <point x="-95" y="-144"/>
      <point x="-88" y="-120"/>
      <point x="-73" y="-105" type="curve"/>
      <point x="-73" y="-110"/>
      <point x="-73" y="-116"/>
      <point x="-73" y="-122" type="curve" smooth="yes"/>
      <point x="-73" y="-155"/>
      <point x="-55" y="-171"/>
      <point x="-32" y="-171" type="curve" smooth="yes"/>
      <point x="-8" y="-171"/>
      <point x="7" y="-148"/>
      <point x="7" y="-117" type="curve" smooth="yes"/>
      <point x="7" y="-87"/>
      <point x="-5" y="-62"/>
      <point x="-38" y="-62" type="curve" smooth="yes"/>
      <point x="-81" y="-62"/>
      <point x="-115" y="-118"/>
      <point x="-115" y="-175" type="curve" smooth="yes"/>
      <point x="-115" y="-254"/>
      <point x="-60" y="-308"/>
      <point x="19" y="-308" type="curve" smooth="yes"/>
    </contour>
    <contour>
      <point x="-47" y="-139"/>
      <point x="-60" y="-131"/>
      <point x="-60" y="-109" type="curve" smooth="yes"/>
      <point x="-60" y="-104"/>
      <point x="-60" y="-99"/>
      <point x="-59" y="-94" type="curve"/>
      <point x="-53" y="-92"/>
      <point x="-47" y="-90"/>
      <point x="-40" y="-90" type="curve" smooth="yes"/>
      <point x="-18" y="-90"/>
      <point x="-7" y="-99"/>
      <point x="-7" y="-117" type="curve" smooth="yes"/>
      <point x="-7" y="-129"/>
      <point x="-16" y="-139"/>
      <point x="-32" y="-139" type="curve" smooth="yes"/>
    </contour>
  </outline>
</glyph>
<glyph name="knmEE" format="1">
  <advance width="350"/>
  <unicode hex="0CC7"/>
  <outline>
    <contour>
      <point x="217" y="-15" type="line"/>
      <point x="216" y="14" type="line"/>
      <point x="137" y="91"/>
      <point x="93" y="170"/>
      <point x="93" y="240" type="curve"/>
      <point x="93" y="346"/>
      <point x="135" y="408"/>
      <point x="205" y="408" type="curve" smooth="yes"/>
      <point x="243" y="408"/>
      <point x="272" y="386"/>
      <point x="272" y="347" type="curve" smooth="yes"/>
      <point x="272" y="317"/>
      <point x="247" y="287"/>
      <point x="208" y="287" type="curve" smooth="yes"/>
      <point x="173" y="287"/>
      <point x="155" y="314"/>
      <point x="155" y="347" type="curve" smooth="yes"/>
      <point x="155" y="381"/>
      <point x="168" y="408"/>
      <point x="195" y="438" type="curve"/>
      <point x="151" y="420" type="line"/>
      <point x="141" y="392"/>
      <point x="131" y="361"/>
      <point x="131" y="325" type="curve" smooth="yes"/>
      <point x="131" y="267"/>
      <point x="158" y="229"/>
      <point x="206" y="229" type="curve" smooth="yes"/>
      <point x="243" y="229"/>
      <point x="300" y="269"/>
      <point x="300" y="345" type="curve" smooth="yes"/>
      <point x="300" y="421"/>
      <point x="263" y="476"/>
      <point x="198" y="476" type="curve" smooth="yes"/>
      <point x="108" y="476"/>
      <point x="57" y="363"/>
      <point x="57" y="248" type="curve" smooth="yes"/>
      <point x="57" y="151"/>
      <point x="95" y="59"/>
      <point x="164" y="-15" type="curve"/>
    </contour>
    <contour>
      <point x="-121" y="434"/>
      <point x="-67" y="480"/>
      <point x="-67" y="553" type="curve" smooth="yes"/>
      <point x="-67" y="651"/>
      <point x="-145" y="685"/>
      <point x="-202" y="685" type="curve" smooth="yes"/>
      <point x="-257" y="685"/>
      <point x="-285" y="657"/>
      <point x="-285" y="625" type="curve" smooth="yes"/>
      <point x="-285" y="592"/>
      <point x="-262" y="571"/>
      <point x="-228" y="571" type="curve" smooth="yes"/>
      <point x="-194" y="571"/>
      <point x="-173" y="597"/>
      <point x="-173" y="633" type="curve" smooth="yes"/>
      <point x="-173" y="639"/>
      <point x="-171" y="643"/>
      <point x="-167" y="643" type="curve" smooth="yes"/>
      <point x="-154" y="643"/>
      <point x="-110" y="629"/>
      <point x="-110" y="577" type="curve"/>
      <point x="-110" y="530"/>
      <point x="-150" y="509"/>
      <point x="-201" y="509" type="curve"/>
      <point x="-202" y="434" type="line"/>
    </contour>
  </outline>
</glyph>
<glyph name="knvLL" format="1">
  <advance width="1370"/>
  <unicode hex="0CE1"/>
  <outline>
    <contour>
      <point x="803" y="-14"/>
      <point x="896" y="105"/>
      <point x="896" y="233" type="curve" smooth="yes"/>
      <point x="896" y="325"/>
      <point x="856" y="399"/>
      <point x="794" y="444" type="curve"/>
      <point x="733" y="435" type="line"/>
      <point x="790" y="418"/>
      <point x="861" y="344"/>
      <point x="861" y="244" type="curve" smooth="yes"/>
      <point x="861" y="129"/>
      <point x="766" y="71"/>
      <point x="634" y="71" type="curve" smooth="yes"/>
      <point x="519" y="71"/>
      <point x="464" y="100"/>
      <point x="464" y="155" type="curve" smooth="yes"/>
      <point x="464" y="236"/>
      <point x="607" y="275"/>
      <point x="607" y="387" type="curve" smooth="yes"/>
      <point x="607" y="464"/>
      <point x="560" y="519"/>
      <point x="484" y="519" type="curve" smooth="yes"/>
      <point x="413" y="519"/>
      <point x="341" y="461"/>
      <point x="318" y="377" type="curve"/>
      <point x="316" y="377" type="line"/>
      <point x="293" y="461"/>
      <point x="228" y="519"/>
      <point x="153" y="519" type="curve" smooth="yes"/>
      <point x="79" y="519"/>
      <point x="30" y="467"/>
      <point x="30" y="391" type="curve" smooth="yes"/>
      <point x="30" y="346"/>
      <point x="49" y="308"/>
      <point x="87" y="269" type="curve"/>
      <point x="109" y="286" type="line"/>
      <point x="86" y="312"/>
      <point x="77" y="329"/>
      <point x="77" y="359" type="curve" smooth="yes"/>
      <point x="77" y="402"/>
      <point x="108" y="442"/>
      <point x="164" y="442" type="curve" smooth="yes"/>
      <point x="249" y="442"/>
      <point x="298" y="358"/>
      <point x="312" y="283" type="curve"/>
      <point x="321" y="283" type="line"/>
      <point x="334" y="358"/>
      <point x="396" y="442"/>
      <point x="479" y="442" type="curve" smooth="yes"/>
      <point x="533" y="442"/>
      <point x="561" y="415"/>
      <point x="561" y="371" type="curve" smooth="yes"/>
      <point x="561" y="278"/>
      <point x="417" y="245"/>
      <point x="417" y="141" type="curve" smooth="yes"/>
      <point x="417" y="56"/>
      <point x="465" y="-14"/>
      <point x="632" y="-14" type="curve" smooth="yes"/>
    </contour>
    <contour>
      <point x="1241" y="-13"/>
      <point x="1315" y="93"/>
      <point x="1315" y="239" type="curve" smooth="yes"/>
      <point x="1315" y="390"/>
      <point x="1245" y="509"/>
      <point x="1007" y="509" type="curve" smooth="yes"/>
      <point x="730" y="509" type="line"/>
      <point x="730" y="434" type="line"/>
      <point x="1016" y="434" type="line" smooth="yes"/>
      <point x="1210" y="434"/>
      <point x="1280" y="346"/>
      <point x="1280" y="236" type="curve" smooth="yes"/>
      <point x="1280" y="130"/>
      <point x="1218" y="69"/>
      <point x="1128" y="69" type="curve" smooth="yes"/>
      <point x="1055" y="69"/>
      <point x="1011" y="112"/>
      <point x="1010" y="170" type="curve" smooth="yes"/>
      <point x="1009" y="212"/>
      <point x="1031" y="238"/>
      <point x="1043" y="238" type="curve" smooth="yes"/>
      <point x="1048" y="238"/>
      <point x="1050" y="234"/>
      <point x="1049" y="228" type="curve"/>
      <point x="1050" y="192"/>
      <point x="1071" y="166"/>
      <point x="1104" y="166" type="curve" smooth="yes"/>
      <point x="1139" y="166"/>
      <point x="1165" y="195"/>
      <point x="1164" y="231" type="curve"/>
      <point x="1165" y="263"/>
      <point x="1140" y="300"/>
      <point x="1085" y="300" type="curve" smooth="yes"/>
      <point x="1013" y="300"/>
      <point x="973" y="236"/>
      <point x="972" y="158" type="curve" smooth="yes"/>
      <point x="973" y="59"/>
      <point x="1033" y="-13"/>
      <point x="1129" y="-13" type="curve" smooth="yes"/>
    </contour>
  </outline>
</glyph>
<glyph name="knmvLL" format="1">
  <advance width="357"/>
  <unicode hex="0CE3"/>
  <outline>
    <contour>
      <point x="258" y="-361"/>
      <point x="312" y="-291"/>
      <point x="312" y="-216" type="curve" smooth="yes"/>
      <point x="312" y="-162"/>
      <point x="289" y="-119"/>
      <point x="252" y="-92" type="curve"/>
      <point x="216" y="-98" type="line"/>
      <point x="250" y="-107"/>
      <point x="292" y="-151"/>
      <point x="292" y="-209" type="curve" smooth="yes"/>
      <point x="292" y="-276"/>
      <point x="236" y="-310"/>
      <point x="158" y="-310" type="curve" smooth="yes"/>
      <point x="92" y="-310"/>
      <point x="59" y="-294"/>
      <point x="59" y="-261" type="curve" smooth="yes"/>
      <point x="59" y="-214"/>
      <point x="143" y="-191"/>
      <point x="143" y="-126" type="curve" smooth="yes"/>
      <point x="143" y="-80"/>
      <point x="116" y="-49"/>
      <point x="71" y="-49" type="curve" smooth="yes"/>
      <point x="29" y="-49"/>
      <point x="-13" y="-82"/>
      <point x="-26" y="-132" type="curve"/>
      <point x="-27" y="-132" type="line"/>
      <point x="-41" y="-82"/>
      <point x="-79" y="-49"/>
      <point x="-123" y="-49" type="curve" smooth="yes"/>
      <point x="-166" y="-49"/>
      <point x="-195" y="-78"/>
      <point x="-195" y="-123" type="curve" smooth="yes"/>
      <point x="-195" y="-150"/>
      <point x="-184" y="-172"/>
      <point x="-161" y="-194" type="curve"/>
      <point x="-149" y="-185" type="line"/>
      <point x="-162" y="-169"/>
      <point x="-167" y="-160"/>
      <point x="-167" y="-142" type="curve" smooth="yes"/>
      <point x="-167" y="-117"/>
      <point x="-149" y="-93"/>
      <point x="-116" y="-93" type="curve" smooth="yes"/>
      <point x="-67" y="-93"/>
      <point x="-38" y="-142"/>
      <point x="-30" y="-187" type="curve"/>
      <point x="-24" y="-187" type="line"/>
      <point x="-17" y="-142"/>
      <point x="19" y="-93"/>
      <point x="68" y="-93" type="curve" smooth="yes"/>
      <point x="99" y="-93"/>
      <point x="116" y="-109"/>
      <point x="116" y="-134" type="curve" smooth="yes"/>
      <point x="116" y="-190"/>
      <point x="32" y="-209"/>
      <point x="32" y="-270" type="curve" smooth="yes"/>
      <point x="32" y="-319"/>
      <point x="60" y="-361"/>
      <point x="157" y="-361" type="curve" smooth="yes"/>
    </contour>
    <contour>
      <point x="514" y="-360"/>
      <point x="557" y="-298"/>
      <point x="557" y="-212" type="curve" smooth="yes"/>
      <point x="557" y="-124"/>
      <point x="517" y="-54"/>
      <point x="377" y="-54" type="curve" smooth="yes"/>
      <point x="215" y="-54" type="line"/>
      <point x="215" y="-98" type="line"/>
      <point x="382" y="-98" type="line" smooth="yes"/>
      <point x="495" y="-98"/>
      <point x="537" y="-150"/>
      <point x="537" y="-214" type="curve" smooth="yes"/>
      <point x="537" y="-275"/>
      <point x="500" y="-311"/>
      <point x="448" y="-311" type="curve" smooth="yes"/>
      <point x="405" y="-311"/>
      <point x="380" y="-286"/>
      <point x="379" y="-252" type="curve" smooth="yes"/>
      <point x="379" y="-228"/>
      <point x="391" y="-213"/>
      <point x="398" y="-213" type="curve" smooth="yes"/>
      <point x="401" y="-213"/>
      <point x="402" y="-215"/>
      <point x="402" y="-219" type="curve"/>
      <point x="402" y="-240"/>
      <point x="414" y="-255"/>
      <point x="434" y="-255" type="curve" smooth="yes"/>
      <point x="454" y="-255"/>
      <point x="469" y="-238"/>
      <point x="468" y="-217" type="curve"/>
      <point x="469" y="-198"/>
      <point x="455" y="-176"/>
      <point x="423" y="-176" type="curve" smooth="yes"/>
      <point x="380" y="-176"/>
      <point x="357" y="-214"/>
      <point x="356" y="-260" type="curve" smooth="yes"/>
      <point x="357" y="-318"/>
      <point x="392" y="-360"/>
      <point x="448" y="-360" type="curve" smooth="yes"/>
    </contour>
    <contour>
      <point x="51" y="0" type="move" name="_bottom"/>
    </contour>
  </outline>
</glyph>
<glyph name="knZero" format="1">
  <advance width="538"/>
  <unicode hex="0CE6"/>
  <outline>
    <contour>
      <point x="384" y="-14"/>
      <point x="483" y="85"/>
      <point x="483" y="249" type="curve" smooth="yes"/>
      <point x="483" y="411"/>
      <point x="395" y="519"/>
      <point x="269" y="519" type="curve" smooth="yes"/>
      <point x="143" y="519"/>
      <point x="55" y="411"/>
      <point x="55" y="249" type="curve" smooth="yes"/>
      <point x="55" y="85"/>
      <point x="154" y="-14"/>
      <point x="269" y="-14" type="curve" smooth="yes"/>
    </contour>
    <contour>
      <point x="171" y="62"/>
      <point x="101" y="117"/>
      <point x="101" y="261" type="curve" smooth="yes"/>
      <point x="101" y="392"/>
      <point x="180" y="444"/>
      <point x="269" y="444" type="curve" smooth="yes"/>
      <point x="358" y="444"/>
      <point x="437" y="392"/>
      <point x="437" y="261" type="curve" smooth="yes"/>
      <point x="437" y="117"/>
      <point x="367" y="62"/>
      <point x="269" y="62" type="curve" smooth="yes"/>
    </contour>
  </outline>
</glyph>
<glyph name="knFour" format="1">
  <advance width="567"/>
  <unicode hex="0CEA"/>
  <outline>
    <contour>
      <point x="383" y="-14"/>
      <point x="427" y="34"/>
      <point x="427" y="97" type="curve" smooth="yes"/>
      <point x="427" y="291"/>
      <point x="78" y="208"/>
      <point x="78" y="370" type="curve"/>
      <point x="78" y="435"/>
      <point x="141" y="459"/>
      <point x="209" y="459" type="curve" smooth="yes"/>
      <point x="260" y="459"/>
      <point x="275" y="445"/>
      <point x="275" y="428" type="curve" smooth="yes"/>
      <point x="275" y="405"/>
      <point x="252" y="394"/>
      <point x="216" y="394" type="curve" smooth="yes"/>
      <point x="169" y="394"/>
      <point x="153" y="418"/>
      <point x="153" y="441" type="curve" smooth="yes"/>
      <point x="153" y="464"/>
      <point x="161" y="471"/>
      <point x="168" y="477" type="curve"/>
      <point x="144" y="482" type="line"/>
      <point x="132" y="460"/>
      <point x="123" y="450"/>
      <point x="123" y="414" type="curve" smooth="yes"/>
      <point x="123" y="364"/>
      <point x="163" y="336"/>
      <point x="212" y="336" type="curve" smooth="yes"/>
      <point x="276" y="336"/>
      <point x="305" y="373"/>
      <point x="305" y="429" type="curve" smooth="yes"/>
      <point x="305" y="482"/>
      <point x="272" y="519"/>
      <point x="202" y="519" type="curve" smooth="yes"/>
      <point x="115" y="519"/>
      <point x="40" y="460"/>
      <point x="40" y="363" type="curve"/>
      <point x="40" y="127"/>
      <point x="387" y="197"/>
      <point x="387" y="109" type="curve"/>
      <point x="387" y="83"/>
      <point x="358" y="71"/>
      <point x="321" y="71" type="curve"/>
      <point x="278" y="71"/>
      <point x="248" y="85"/>
      <point x="248" y="112" type="curve"/>
      <point x="248" y="203"/>
      <point x="537" y="196"/>
      <point x="537" y="364" type="curve"/>
      <point x="537" y="461"/>
      <point x="461" y="519"/>
      <point x="412" y="519" type="curve" smooth="yes"/>
      <point x="388" y="519"/>
      <point x="374" y="507"/>
      <point x="374" y="491" type="curve" smooth="yes"/>
      <point x="374" y="484"/>
      <point x="379" y="477"/>
      <point x="386" y="472" type="curve" smooth="yes"/>
      <point x="395" y="467"/>
      <point x="413" y="470"/>
      <point x="428" y="467" type="curve" smooth="yes"/>
      <point x="473" y="456"/>
      <point x="498" y="415"/>
      <point x="498" y="364" type="curve"/>
      <point x="498" y="222"/>
      <point x="200" y="245"/>
      <point x="200" y="86" type="curve"/>
      <point x="200" y="28"/>
      <point x="245" y="-14"/>
      <point x="316" y="-14" type="curve"/>
    </contour>
  </outline>
</glyph>
<glyph name="knEight" format="1">
  <advance width="623"/>
  <unicode hex="0CEE"/>
  <outline>
    <contour>
      <point x="471" y="-14"/>
      <point x="551" y="72"/>
      <point x="551" y="187" type="curve" smooth="yes"/>
      <point x="551" y="314"/>
      <point x="460" y="325"/>
      <point x="460" y="394" type="curve" smooth="yes"/>
      <point x="460" y="429"/>
      <point x="488" y="448"/>
      <point x="532" y="448" type="curve"/>
      <point x="573" y="448" type="line"/>
      <point x="573" y="508" type="line"/>
      <point x="526" y="508" type="line"/>
      <point x="466" y="508"/>
      <point x="414" y="465"/>
      <point x="414" y="404" type="curve" smooth="yes"/>
      <point x="414" y="316"/>
      <point x="497" y="286"/>
      <point x="497" y="212" type="curve" smooth="yes"/>
      <point x="497" y="135"/>
      <point x="441" y="93"/>
      <point x="327" y="93" type="curve"/>
      <point x="195" y="93"/>
      <point x="107" y="176"/>
      <point x="107" y="302" type="curve" smooth="yes"/>
      <point x="107" y="354"/>
      <point x="124" y="400"/>
      <point x="151" y="429" type="curve"/>
      <point x="149" y="417"/>
      <point x="148" y="404"/>
      <point x="148" y="392" type="curve" smooth="yes"/>
      <point x="148" y="318"/>
      <point x="189" y="283"/>
      <point x="235" y="283" type="curve" smooth="yes"/>
      <point x="290" y="283"/>
      <point x="322" y="335"/>
      <point x="322" y="404" type="curve" smooth="yes"/>
      <point x="322" y="467"/>
      <point x="296" y="519"/>
      <point x="232" y="519" type="curve" smooth="yes"/>
      <point x="140" y="519"/>
      <point x="60" y="414"/>
      <point x="60" y="276" type="curve" smooth="yes"/>
      <point x="60" y="103"/>
      <point x="173" y="-14"/>
      <point x="327" y="-14" type="curve"/>
    </contour>
    <contour>
      <point x="205" y="354"/>
      <point x="178" y="372"/>
      <point x="178" y="419" type="curve" smooth="yes"/>
      <point x="178" y="429"/>
      <point x="179" y="440"/>
      <point x="181" y="450" type="curve"/>
      <point x="193" y="455"/>
      <point x="206" y="459"/>
      <point x="225" y="459" type="curve" smooth="yes"/>
      <point x="268" y="459"/>
      <point x="293" y="440"/>
      <point x="293" y="404" type="curve" smooth="yes"/>
      <point x="293" y="375"/>
      <point x="274" y="354"/>
      <point x="239" y="354" type="curve" smooth="yes"/>
    </contour>
  </outline>
</glyph>
<glyph name="knNine" format="1">
  <advance width="525"/>
  <unicode hex="0CEF"/>
  <outline>
    <contour>
      <point x="290" y="-14"/>
      <point x="310" y="5"/>
      <point x="310" y="28" type="curve" smooth="yes"/>
      <point x="310" y="46"/>
      <point x="299" y="61"/>
      <point x="285" y="68" type="curve" smooth="yes"/>
      <point x="270" y="76"/>
      <point x="247" y="71"/>
      <point x="215" y="78" type="curve" smooth="yes"/>
      <point x="154" y="91"/>
      <point x="109" y="125"/>
      <point x="109" y="189" type="curve"/>
      <point x="109" y="252"/>
      <point x="151" y="301"/>
      <point x="212" y="301" type="curve" smooth="yes"/>
      <point x="251" y="301"/>
      <point x="270" y="284"/>
      <point x="270" y="260" type="curve" smooth="yes"/>
      <point x="270" y="231"/>
      <point x="245" y="219"/>
      <point x="204" y="219" type="curve" smooth="yes"/>
      <point x="143" y="219"/>
      <point x="80" y="260"/>
      <point x="80" y="329" type="curve" smooth="yes"/>
      <point x="80" y="391"/>
      <point x="127" y="421"/>
      <point x="203" y="421" type="curve" smooth="yes"/>
      <point x="520" y="421" type="line"/>
      <point x="520" y="508" type="line"/>
      <point x="226" y="508" type="line" smooth="yes"/>
      <point x="124" y="508"/>
      <point x="45" y="456"/>
      <point x="45" y="337" type="curve"/>
      <point x="45" y="169"/>
      <point x="159" y="149"/>
      <point x="214" y="149" type="curve" smooth="yes"/>
      <point x="283" y="149"/>
      <point x="328" y="192"/>
      <point x="328" y="249" type="curve" smooth="yes"/>
      <point x="328" y="299"/>
      <point x="289" y="344"/>
      <point x="215" y="344" type="curve"/>
      <point x="116" y="344"/>
      <point x="68" y="277"/>
      <point x="68" y="179" type="curve" smooth="yes"/>
      <point x="68" y="62"/>
      <point x="168" y="-14"/>
      <point x="254" y="-14" type="curve" smooth="yes"/>
    </contour>
  </outline>
</glyph>
<glyph name="quotedblbase" format="1">
  <advance width="420"/>
  <unicode hex="201E"/>
  <outline>
    <contour>
      <point x="238" y="-147" type="line"/>
      <point x="298" y="-144"/>
      <point x="380" y="-72"/>
      <point x="380" y="20" type="curve" smooth="yes"/>
      <point x="380" y="76"/>
      <point x="343" y="117"/>
      <point x="304" y="117" type="curve" smooth="yes"/>
      <point x="265" y="117"/>
      <point x="242" y="97"/>
      <point x="242" y="73" type="curve" smooth="yes"/>
      <point x="242" y="48"/>
      <point x="261" y="32"/>
      <point x="286" y="30" type="curve" smooth="yes"/>
      <point x="310" y="28"/>
      <point x="328" y="2"/>
      <point x="328" y="-15" type="curve" smooth="yes"/>
      <point x="328" y="-79"/>
      <point x="284" y="-113"/>
      <point x="232" y="-124" type="curve" smooth="yes"/>
      <point x="223" y="-126"/>
      <point x="218" y="-130"/>
      <point x="218" y="-136" type="curve" smooth="yes"/>
      <point x="218" y="-143"/>
      <point x="224" y="-147"/>
      <point x="236" y="-147" type="curve" smooth="yes"/>
    </contour>
    <contour>
      <point x="60" y="-147" type="line"/>
      <point x="120" y="-144"/>
      <point x="202" y="-72"/>
      <point x="202" y="20" type="curve" smooth="yes"/>
      <point x="202" y="76"/>
      <point x="165" y="117"/>
      <point x="126" y="117" type="curve" smooth="yes"/>
      <point x="87" y="117"/>
      <point x="64" y="97"/>
      <point x="64" y="73" type="curve" smooth="yes"/>
      <point x="64" y="48"/>
      <point x="83" y="32"/>
      <point x="108" y="30" type="curve" smooth="yes"/>
      <point x="132" y="28"/>
      <point x="150" y="2"/>
      <point x="150" y="-15" type="curve" smooth="yes"/>
      <point x="150" y="-79"/>
      <point x="106" y="-113"/>
      <point x="54" y="-124" type="curve" smooth="yes"/>
      <point x="45" y="-126"/>
      <point x="40" y="-130"/>
      <point x="40" y="-136" type="curve" smooth="yes"/>
      <point x="40" y="-143"/>
      <point x="46" y="-147"/>
      <point x="58" y="-147" type="curve" smooth="yes"/>
    </contour>
  </outline>
</glyph>
<glyph name="uni20B9" format="1">
  <advance width="475"/>
  <unicode hex="20B9"/>
  <outline>
    <contour>
      <point x="407" y="-21"/>
      <point x="445" y="-6"/>
      <point x="445" y="9" type="curve" smooth="yes"/>
      <point x="445" y="17"/>
      <point x="434" y="25"/>
      <point x="425" y="25" type="curve" smooth="yes"/>
      <point x="391" y="25"/>
      <point x="362" y="36"/>
      <point x="337" y="58" type="curve" smooth="yes"/>
      <point x="270" y="119"/>
      <point x="208" y="200"/>
      <point x="151" y="299" type="curve"/>
      <point x="146" y="310"/>
      <point x="147" y="310"/>
      <point x="159" y="314" type="curve" smooth="yes"/>
      <point x="199" y="327"/>
      <point x="233" y="349"/>
      <point x="260" y="379" type="curve" smooth="yes"/>
      <point x="271" y="392"/>
      <point x="282" y="409"/>
      <point x="291" y="432" type="curve"/>
      <point x="414" y="432" type="line" smooth="yes"/>
      <point x="427" y="432"/>
      <point x="438" y="442"/>
      <point x="445" y="462" type="curve"/>
      <point x="446" y="464" type="line"/>
      <point x="446" y="465" type="line" smooth="yes"/>
      <point x="446" y="470"/>
      <point x="439" y="476"/>
      <point x="432" y="476" type="curve" smooth="yes"/>
      <point x="303" y="476" type="line"/>
      <point x="304" y="479"/>
      <point x="304" y="483"/>
      <point x="304" y="489" type="curve" smooth="yes"/>
      <point x="304" y="541"/>
      <point x="286" y="581"/>
      <point x="251" y="608" type="curve"/>
      <point x="414" y="608" type="line" smooth="yes"/>
      <point x="427" y="608"/>
      <point x="438" y="618"/>
      <point x="445" y="638" type="curve"/>
      <point x="446" y="640" type="line"/>
      <point x="446" y="641" type="line" smooth="yes"/>
      <point x="446" y="646"/>
      <point x="439" y="652"/>
      <point x="432" y="652" type="curve" smooth="yes"/>
      <point x="42" y="652" type="line" smooth="yes"/>
      <point x="27" y="652"/>
      <point x="18" y="631"/>
      <point x="18" y="623" type="curve" smooth="yes"/>
      <point x="18" y="614"/>
      <point x="25" y="608"/>
      <point x="32" y="608" type="curve" smooth="yes"/>
      <point x="151" y="608" type="line"/>
      <point x="193" y="588"/>
      <point x="214" y="548"/>
      <point x="214" y="489" type="curve" smooth="yes"/>
      <point x="214" y="476" type="line"/>
      <point x="42" y="476" type="line" smooth="yes"/>
      <point x="27" y="476"/>
      <point x="18" y="455"/>
      <point x="18" y="447" type="curve" smooth="yes"/>
      <point x="18" y="438"/>
      <point x="25" y="432"/>
      <point x="32" y="432" type="curve" smooth="yes"/>
      <point x="207" y="432" type="line"/>
      <point x="201" y="409"/>
      <point x="188" y="387"/>
      <point x="169" y="368" type="curve"/>
      <point x="140" y="342"/>
      <point x="112" y="329"/>
      <point x="85" y="329" type="curve"/>
      <point x="38" y="337" type="line"/>
      <point x="31" y="337"/>
      <point x="27" y="334"/>
      <point x="27" y="328" type="curve" smooth="yes"/>
      <point x="27" y="317"/>
      <point x="37" y="304"/>
      <point x="58" y="290" type="curve" smooth="yes"/>
      <point x="78" y="276"/>
      <point x="93" y="260"/>
      <point x="104" y="241" type="curve" smooth="yes"/>
      <point x="135" y="189"/>
      <point x="185" y="120"/>
      <point x="256" y="33" type="curve" smooth="yes"/>
      <point x="287" y="-6"/>
      <point x="341" y="-21"/>
      <point x="374" y="-21" type="curve" smooth="yes"/>
    </contour>
  </outline>
</glyph>
<glyph name="uni2101" format="1">
  <advance width="553"/>
  <unicode hex="2101"/>
  <outline>
    <contour>
      <point x="53" y="-97"/>
      <point x="65" y="-92"/>
      <point x="71" y="-82" type="curve" smooth="yes"/>
      <point x="509" y="613" type="line"/>
      <point x="510" y="614"/>
      <point x="510" y="615"/>
      <point x="510" y="618" type="curve" smooth="yes"/>
      <point x="510" y="623"/>
      <point x="503" y="630"/>
      <point x="496" y="630" type="curve" smooth="yes"/>
      <point x="477" y="630"/>
      <point x="464" y="624"/>
      <point x="457" y="613" type="curve" smooth="yes"/>
      <point x="19" y="-82" type="line"/>
      <point x="18" y="-83"/>
      <point x="18" y="-84"/>
      <point x="18" y="-86" type="curve" smooth="yes"/>
      <point x="18" y="-90"/>
      <point x="27" y="-97"/>
      <point x="35" y="-97" type="curve" smooth="yes"/>
    </contour>
    <contour>
      <point x="475" y="-39"/>
      <point x="512" y="-9"/>
      <point x="512" y="35" type="curve" smooth="yes"/>
      <point x="512" y="48"/>
      <point x="505" y="63"/>
      <point x="490" y="79" type="curve" smooth="yes"/>
      <point x="485" y="84"/>
      <point x="479" y="90"/>
      <point x="470" y="97" type="curve" smooth="yes"/>
      <point x="461" y="104"/>
      <point x="456" y="108"/>
      <point x="454" y="110" type="curve" smooth="yes"/>
      <point x="452" y="112"/>
      <point x="446" y="117"/>
      <point x="435" y="126" type="curve" smooth="yes"/>
      <point x="414" y="143"/>
      <point x="403" y="154"/>
      <point x="403" y="167" type="curve" smooth="yes"/>
      <point x="403" y="179"/>
      <point x="412" y="195"/>
      <point x="436" y="195" type="curve" smooth="yes"/>
      <point x="459" y="195"/>
      <point x="471" y="187"/>
      <point x="473" y="171" type="curve"/>
      <point x="474" y="166"/>
      <point x="491" y="159"/>
      <point x="499" y="159" type="curve" smooth="yes"/>
      <point x="503" y="159"/>
      <point x="505" y="160"/>
      <point x="505" y="162" type="curve" smooth="yes"/>
      <point x="505" y="201"/>
      <point x="479" y="228"/>
      <point x="439" y="228" type="curve" smooth="yes"/>
      <point x="436" y="228" type="line" smooth="yes"/>
      <point x="384" y="228"/>
      <point x="346" y="198"/>
      <point x="346" y="156" type="curve" smooth="yes"/>
      <point x="346" y="135"/>
      <point x="357" y="114"/>
      <point x="379" y="95" type="curve" smooth="yes"/>
      <point x="386" y="89"/>
      <point x="397" y="81"/>
      <point x="410" y="72" type="curve" smooth="yes"/>
      <point x="437" y="53"/>
      <point x="450" y="36"/>
      <point x="451" y="21" type="curve"/>
      <point x="451" y="8"/>
      <point x="439" y="-9"/>
      <point x="415" y="-9" type="curve" smooth="yes"/>
      <point x="390" y="-9"/>
      <point x="367" y="1"/>
      <point x="363" y="20" type="curve"/>
      <point x="362" y="27"/>
      <point x="336" y="26"/>
      <point x="336" y="19" type="curve" smooth="yes"/>
      <point x="336" y="6"/>
      <point x="339" y="-6"/>
      <point x="344" y="-18" type="curve"/>
      <point x="348" y="-26"/>
      <point x="388" y="-39"/>
      <point x="403" y="-39" type="curve" smooth="yes"/>
    </contour>
    <contour>
      <point x="80" y="440"/>
      <point x="63" y="453"/>
      <point x="63" y="474" type="curve" smooth="yes"/>
      <point x="63" y="494"/>
      <point x="85" y="510"/>
      <point x="128" y="522" type="curve" smooth="yes"/>
      <point x="138" y="525"/>
      <point x="143" y="521"/>
      <point x="143" y="511" type="curve" smooth="yes"/>
      <point x="142" y="482" type="line" smooth="yes"/>
      <point x="142" y="471"/>
      <point x="140" y="463"/>
      <point x="135" y="459" type="curve" smooth="yes"/>
      <point x="119" y="446"/>
      <point x="107" y="440"/>
      <point x="98" y="440" type="curve" smooth="yes"/>
    </contour>
    <contour>
      <point x="95" y="400"/>
      <point x="118" y="408"/>
      <point x="135" y="423" type="curve" smooth="yes"/>
      <point x="141" y="428"/>
      <point x="145" y="431"/>
      <point x="146" y="431" type="curve" smooth="yes"/>
      <point x="147" y="431"/>
      <point x="150" y="428"/>
      <point x="155" y="423" type="curve"/>
      <point x="163" y="412"/>
      <point x="181" y="400"/>
      <point x="202" y="400" type="curve" smooth="yes"/>
      <point x="213" y="400"/>
      <point x="224" y="405"/>
      <point x="235" y="415" type="curve"/>
      <point x="246" y="424"/>
      <point x="251" y="431"/>
      <point x="251" y="434" type="curve" smooth="yes"/>
      <point x="251" y="441"/>
      <point x="245" y="455"/>
      <point x="238" y="448" type="curve"/>
      <point x="235" y="443"/>
      <point x="228" y="440"/>
      <point x="217" y="440" type="curve" smooth="yes"/>
      <point x="203" y="440"/>
      <point x="196" y="453"/>
      <point x="196" y="479" type="curve" smooth="yes"/>
      <point x="199" y="603" type="line" smooth="yes"/>
      <point x="200" y="631"/>
      <point x="169" y="656"/>
      <point x="138" y="656" type="curve" smooth="yes"/>
      <point x="122" y="656"/>
      <point x="104" y="652"/>
      <point x="84" y="643" type="curve" smooth="yes"/>
      <point x="44" y="625"/>
      <point x="24" y="607"/>
      <point x="16" y="587" type="curve" smooth="yes"/>
      <point x="12" y="576"/>
      <point x="11" y="570"/>
      <point x="12" y="568" type="curve" smooth="yes"/>
      <point x="13" y="566"/>
      <point x="14" y="565"/>
      <point x="16" y="566" type="curve"/>
      <point x="46" y="574"/>
      <point x="61" y="580"/>
      <point x="61" y="585" type="curve" smooth="yes"/>
      <point x="61" y="612"/>
      <point x="62" y="623"/>
      <point x="97" y="623" type="curve" smooth="yes"/>
      <point x="132" y="623"/>
      <point x="143" y="608"/>
      <point x="143" y="587" type="curve" smooth="yes"/>
      <point x="143" y="564" type="line" smooth="yes"/>
      <point x="143" y="548"/>
      <point x="142" y="545"/>
      <point x="125" y="540" type="curve"/>
      <point x="46" y="512" type="line" smooth="yes"/>
      <point x="15" y="501"/>
      <point x="8" y="485"/>
      <point x="8" y="460" type="curve" smooth="yes"/>
      <point x="8" y="435"/>
      <point x="40" y="400"/>
      <point x="67" y="400" type="curve" smooth="yes"/>
    </contour>
  </outline>
</glyph>
<glyph name="uni2196" format="1">
  <advance width="796"/>
  <unicode hex="2196"/>
  <outline>
    <contour>
      <point x="746" y="-153"/>
      <point x="753" y="-133"/>
      <point x="753" y="-120" type="curve" smooth="yes"/>
      <point x="753" y="-113"/>
      <point x="751" y="-108"/>
      <point x="746" y="-103" type="curve" smooth="yes"/>
      <point x="168" y="474" type="line"/>
      <point x="230" y="475"/>
      <point x="287" y="487"/>
      <point x="338" y="510" type="curve"/>
      <point x="342" y="512"/>
      <point x="344" y="515"/>
      <point x="344" y="519" type="curve" smooth="yes"/>
      <point x="344" y="526"/>
      <point x="326" y="536"/>
      <point x="314" y="536" type="curve" smooth="yes"/>
      <point x="273" y="536" type="line" smooth="yes"/>
      <point x="188" y="536"/>
      <point x="120" y="544"/>
      <point x="68" y="561" type="curve"/>
      <point x="63" y="562"/>
      <point x="59" y="563"/>
      <point x="57" y="563" type="curve" smooth="yes"/>
      <point x="50" y="563"/>
      <point x="47" y="560"/>
      <point x="47" y="554" type="curve" smooth="yes"/>
      <point x="47" y="550"/>
      <point x="48" y="546"/>
      <point x="50" y="541" type="curve"/>
      <point x="67" y="489"/>
      <point x="75" y="421"/>
      <point x="75" y="336" type="curve" smooth="yes"/>
      <point x="75" y="295" type="line" smooth="yes"/>
      <point x="75" y="283"/>
      <point x="85" y="265"/>
      <point x="92" y="265" type="curve" smooth="yes"/>
      <point x="95" y="265"/>
      <point x="98" y="267"/>
      <point x="100" y="271" type="curve"/>
      <point x="122" y="321"/>
      <point x="134" y="378"/>
      <point x="135" y="442" type="curve"/>
      <point x="726" y="-149" type="line" smooth="yes"/>
      <point x="729" y="-152"/>
      <point x="732" y="-153"/>
      <point x="737" y="-153" type="curve" smooth="yes"/>
    </contour>
  </outline>
</glyph>
<glyph name="divisionslash" format="1">
  <advance width="324"/>
  <unicode hex="2215"/>
  <outline>
    <contour>
      <point x="-9" y="0" type="line"/>
      <point x="448" y="712" type="line"/>
      <point x="386" y="712" type="line"/>
      <point x="-70" y="0" type="line"/>
    </contour>
  </outline>
</glyph>
<glyph name="uni226E" format="1">
  <advance width="590"/>
  <unicode hex="226E"/>
  <outline>
    <contour>
      <point x="160" y="-121"/>
      <point x="170" y="-116"/>
      <point x="174" y="-106" type="curve" smooth="yes"/>
      <point x="472" y="591" type="line"/>
      <point x="472" y="593" type="line" smooth="yes"/>
      <point x="472" y="600"/>
      <point x="465" y="606"/>
      <point x="458" y="606" type="curve" smooth="yes"/>
      <point x="437" y="606"/>
      <point x="424" y="600"/>
      <point x="419" y="589" type="curve" smooth="yes"/>
      <point x="122" y="-106" type="line"/>
      <point x="122" y="-107"/>
      <point x="122" y="-107"/>
      <point x="122" y="-108" type="curve"/>
      <point x="121" y="-109" type="line"/>
      <point x="121" y="-117"/>
      <point x="129" y="-121"/>
      <point x="145" y="-121" type="curve" smooth="yes"/>
    </contour>
    <contour>
      <point x="550" y="-6" type="line" smooth="yes"/>
      <point x="555" y="-6"/>
      <point x="561" y="1"/>
      <point x="561" y="11" type="curve" smooth="yes"/>
      <point x="561" y="21"/>
      <point x="553" y="47"/>
      <point x="537" y="55" type="curve" smooth="yes"/>
      <point x="157" y="229" type="line"/>
      <point x="154" y="231"/>
      <point x="154" y="233"/>
      <point x="156" y="234" type="curve" smooth="yes"/>
      <point x="529" y="408" type="line"/>
      <point x="548" y="416"/>
      <point x="560" y="445"/>
      <point x="560" y="459" type="curve" smooth="yes"/>
      <point x="560" y="466"/>
      <point x="557" y="469"/>
      <point x="550" y="469" type="curve"/>
      <point x="548" y="468" type="line"/>
      <point x="547" y="468" type="line"/>
      <point x="110" y="268" type="line" smooth="yes"/>
      <point x="93" y="260"/>
      <point x="77" y="234"/>
      <point x="77" y="223" type="curve" smooth="yes"/>
      <point x="77" y="217"/>
      <point x="91" y="208"/>
      <point x="118" y="195" type="curve" smooth="yes"/>
      <point x="547" y="-5" type="line"/>
      <point x="548" y="-6"/>
      <point x="548" y="-6"/>
      <point x="549" y="-6" type="curve" smooth="yes"/>
    </contour>
  </outline>
</glyph>
<glyph name="uni2303" format="1">
  <advance width="500"/>
  <unicode hex="2303"/>
  <outline>
    <contour>
      <point x="59" y="284" type="line"/>
      <point x="76" y="288"/>
      <point x="88" y="295"/>
      <point x="97" y="304" type="curve" smooth="yes"/>
      <point x="106" y="313"/>
      <point x="155" y="383"/>
      <point x="244" y="514" type="curve"/>
      <point x="247" y="519"/>
      <point x="250" y="519"/>
      <point x="254" y="514" type="curve"/>
      <point x="267" y="494"/>
      <point x="292" y="457"/>
      <point x="328" y="404" type="curve" smooth="yes"/>
      <point x="340" y="387"/>
      <point x="354" y="368"/>
      <point x="369" y="347" type="curve" smooth="yes"/>
      <point x="400" y="306"/>
      <point x="405" y="293"/>
      <point x="441" y="284" type="curve"/>
      <point x="443" y="284" type="line" smooth="yes"/>
      <point x="449" y="284"/>
      <point x="452" y="288"/>
      <point x="452" y="295" type="curve" smooth="yes"/>
      <point x="452" y="309"/>
      <point x="385" y="412"/>
      <point x="250" y="603" type="curve"/>
      <point x="213" y="551"/>
      <point x="48" y="311"/>
      <point x="48" y="295" type="curve" smooth="yes"/>
      <point x="48" y="288"/>
      <point x="51" y="284"/>
      <point x="57" y="284" type="curve" smooth="yes"/>
    </contour>
  </outline>
</glyph>
<glyph name="uni24A5" format="1">
  <advance width="820"/>
  <unicode hex="24A5"/>
  <outline>
    <contour>
      <point x="577" y="-213"/>
      <point x="583" y="-211"/>
      <point x="587" y="-207" type="curve" smooth="yes"/>
      <point x="666" y="-128"/>
      <point x="770" y="123"/>
      <point x="770" y="280" type="curve" smooth="yes"/>
      <point x="770" y="436"/>
      <point x="680" y="609"/>
      <point x="595" y="694" type="curve" smooth="yes"/>
      <point x="588" y="701"/>
      <point x="578" y="704"/>
      <point x="565" y="704" type="curve" smooth="yes"/>
      <point x="551" y="704"/>
      <point x="544" y="700"/>
      <point x="544" y="691" type="curve" smooth="yes"/>
      <point x="544" y="688"/>
      <point x="547" y="684"/>
      <point x="552" y="679" type="curve" smooth="yes"/>
      <point x="632" y="599"/>
      <point x="710" y="425"/>
      <point x="710" y="266" type="curve" smooth="yes"/>
      <point x="710" y="106"/>
      <point x="626" y="-105"/>
      <point x="550" y="-181" type="curve" smooth="yes"/>
      <point x="543" y="-188"/>
      <point x="540" y="-193"/>
      <point x="540" y="-196" type="curve" smooth="yes"/>
      <point x="540" y="-204"/>
      <point x="555" y="-213"/>
      <point x="570" y="-213" type="curve" smooth="yes"/>
    </contour>
    <contour>
      <point x="252" y="-214"/>
      <point x="264" y="-205"/>
      <point x="264" y="-192" type="curve" smooth="yes"/>
      <point x="264" y="-190"/>
      <point x="259" y="-184"/>
      <point x="248" y="-173" type="curve" smooth="yes"/>
      <point x="175" y="-100"/>
      <point x="100" y="117"/>
      <point x="100" y="278" type="curve" smooth="yes"/>
      <point x="100" y="439"/>
      <point x="171" y="589"/>
      <point x="252" y="670" type="curve" smooth="yes"/>
      <point x="261" y="679"/>
      <point x="265" y="685"/>
      <point x="265" y="689" type="curve" smooth="yes"/>
      <point x="265" y="697"/>
      <point x="253" y="705"/>
      <point x="238" y="705" type="curve" smooth="yes"/>
      <point x="231" y="705"/>
      <point x="223" y="701"/>
      <point x="216" y="694" type="curve" smooth="yes"/>
      <point x="132" y="610"/>
      <point x="40" y="425"/>
      <point x="40" y="268" type="curve" smooth="yes"/>
      <point x="40" y="111"/>
      <point x="141" y="-128"/>
      <point x="220" y="-207" type="curve" smooth="yes"/>
      <point x="225" y="-212"/>
      <point x="231" y="-214"/>
      <point x="238" y="-214" type="curve" smooth="yes"/>
    </contour>
    <contour>
      <point x="340" y="-287"/>
      <point x="404" y="-220"/>
      <point x="429" y="-152" type="curve" smooth="yes"/>
      <point x="449" y="-97"/>
      <point x="459" y="-16"/>
      <point x="459" y="91" type="curve" smooth="yes"/>
      <point x="459" y="275" type="line" smooth="yes"/>
      <point x="459" y="330"/>
      <point x="461" y="381"/>
      <point x="466" y="429" type="curve"/>
      <point x="466" y="432"/>
      <point x="464" y="434"/>
      <point x="459" y="434" type="curve" smooth="yes"/>
      <point x="458" y="434"/>
      <point x="452" y="431"/>
      <point x="441" y="424" type="curve" smooth="yes"/>
      <point x="406" y="401"/>
      <point x="372" y="385"/>
      <point x="339" y="377" type="curve"/>
      <point x="334" y="376"/>
      <point x="332" y="372"/>
      <point x="332" y="365" type="curve" smooth="yes"/>
      <point x="332" y="358"/>
      <point x="335" y="353"/>
      <point x="340" y="352" type="curve" smooth="yes"/>
      <point x="371" y="346"/>
      <point x="386" y="322"/>
      <point x="386" y="279" type="curve" smooth="yes"/>
      <point x="386" y="69" type="line" smooth="yes"/>
      <point x="386" y="-68"/>
      <point x="377" y="-155"/>
      <point x="359" y="-193" type="curve" smooth="yes"/>
      <point x="341" y="-231"/>
      <point x="318" y="-253"/>
      <point x="291" y="-260" type="curve"/>
      <point x="284" y="-264"/>
      <point x="280" y="-269"/>
      <point x="280" y="-276" type="curve" smooth="yes"/>
      <point x="280" y="-283"/>
      <point x="289" y="-287"/>
      <point x="306" y="-287" type="curve" smooth="yes"/>
    </contour>
    <contour>
      <point x="447" y="514"/>
      <point x="467" y="535"/>
      <point x="467" y="564" type="curve" smooth="yes"/>
      <point x="467" y="593"/>
      <point x="446" y="614"/>
      <point x="417" y="614" type="curve" smooth="yes"/>
      <point x="388" y="614"/>
      <point x="367" y="594"/>
      <point x="366" y="563" type="curve"/>
      <point x="367" y="535"/>
      <point x="388" y="514"/>
      <point x="416" y="513" type="curve"/>
    </contour>
  </outline>
</glyph>
<glyph name="bar.sc" format="1">
  <advance width="260"/>
  <outline>
    <contour>
      <point x="129" y="-289"/>
      <point x="160" y="-282"/>
      <point x="160" y="-265" type="curve" smooth="yes"/>
      <point x="160" y="694" type="line" smooth="yes"/>
      <point x="160" y="701"/>
      <point x="154" y="707"/>
      <point x="144" y="707" type="curve" smooth="yes"/>
      <point x="134" y="707"/>
      <point x="100" y="695"/>
      <point x="100" y="676" type="curve" smooth="yes"/>
      <point x="100" y="-275" type="line" smooth="yes"/>
      <point x="100" y="-282"/>
      <point x="105" y="-289"/>
      <point x="117" y="-289" type="curve" smooth="yes"/>
    </contour>
  </outline>
</glyph>
<glyph name="dollar.sc" format="1">
  <advance width="458"/>
  <outline>
    <contour>
      <point x="209" y="-116"/>
      <point x="217" y="-111"/>
      <point x="218" y="-101" type="curve" smooth="yes"/>
      <point x="227" y="-25" type="line"/>
      <point x="228" y="-21"/>
      <point x="231" y="-19"/>
      <point x="236" y="-19" type="curve" smooth="yes"/>
      <point x="372" y="-19"/>
      <point x="442" y="76"/>
      <point x="442" y="171" type="curve" smooth="yes"/>
      <point x="442" y="193"/>
      <point x="437" y="216"/>
      <point x="426" y="240" type="curve" smooth="yes"/>
      <point x="422" y="249"/>
      <point x="416" y="258"/>
      <point x="408" y="269" type="curve"/>
      <point x="391" y="289"/>
      <point x="385" y="297"/>
      <point x="362" y="316" type="curve" smooth="yes"/>
      <point x="338" y="335"/>
      <point x="337" y="336"/>
      <point x="313" y="353" type="curve"/>
      <point x="300" y="361"/>
      <point x="293" y="366"/>
      <point x="292" y="367" type="curve"/>
      <point x="283" y="372" type="line"/>
      <point x="280" y="373"/>
      <point x="278" y="376"/>
      <point x="278" y="379" type="curve"/>
      <point x="279" y="386" type="line"/>
      <point x="307" y="613" type="line"/>
      <point x="307" y="616"/>
      <point x="308" y="618"/>
      <point x="311" y="618" type="curve" smooth="yes"/>
      <point x="312" y="618" type="line"/>
      <point x="353" y="601"/>
      <point x="380" y="567"/>
      <point x="394" y="515" type="curve"/>
      <point x="398" y="502"/>
      <point x="413" y="490"/>
      <point x="420" y="490" type="curve" smooth="yes"/>
      <point x="427" y="490"/>
      <point x="430" y="502"/>
      <point x="430" y="526" type="curve" smooth="yes"/>
      <point x="430" y="537"/>
      <point x="425" y="569"/>
      <point x="416" y="622" type="curve"/>
      <point x="413" y="635"/>
      <point x="407" y="642"/>
      <point x="398" y="644" type="curve" smooth="yes"/>
      <point x="355" y="653"/>
      <point x="330" y="657"/>
      <point x="323" y="658" type="curve" smooth="yes"/>
      <point x="316" y="659"/>
      <point x="313" y="661"/>
      <point x="313" y="665" type="curve"/>
      <point x="317" y="691" type="line"/>
      <point x="317" y="693" type="line" smooth="yes"/>
      <point x="317" y="700"/>
      <point x="311" y="708"/>
      <point x="304" y="708" type="curve" smooth="yes"/>
      <point x="287" y="708"/>
      <point x="277" y="702"/>
      <point x="275" y="691" type="curve" smooth="yes"/>
      <point x="271" y="665" type="line"/>
      <point x="271" y="662"/>
      <point x="268" y="660"/>
      <point x="261" y="659" type="curve"/>
      <point x="149" y="652"/>
      <point x="83" y="567"/>
      <point x="83" y="496" type="curve" smooth="yes"/>
      <point x="83" y="424"/>
      <point x="131" y="371"/>
      <point x="214" y="314" type="curve"/>
      <point x="222" y="308"/>
      <point x="226" y="302"/>
      <point x="226" y="297" type="curve"/>
      <point x="193" y="28" type="line"/>
      <point x="193" y="26"/>
      <point x="192" y="25"/>
      <point x="189" y="25" type="curve"/>
      <point x="185" y="26" type="line"/>
      <point x="142" y="47"/>
      <point x="107" y="106"/>
      <point x="89" y="145" type="curve" smooth="yes"/>
      <point x="80" y="164"/>
      <point x="74" y="174"/>
      <point x="73" y="174" type="curve" smooth="yes"/>
      <point x="62" y="174"/>
      <point x="53" y="166"/>
      <point x="53" y="158" type="curve"/>
      <point x="54" y="122"/>
      <point x="74" y="37"/>
      <point x="86" y="13" type="curve"/>
      <point x="87" y="12"/>
      <point x="88" y="12"/>
      <point x="90" y="11" type="curve" smooth="yes"/>
      <point x="92" y="10"/>
      <point x="95" y="9"/>
      <point x="98" y="8" type="curve" smooth="yes"/>
      <point x="101" y="7"/>
      <point x="113" y="4"/>
      <point x="132" y="-2" type="curve" smooth="yes"/>
      <point x="151" y="-8"/>
      <point x="167" y="-12"/>
      <point x="181" y="-15" type="curve"/>
      <point x="185" y="-15"/>
      <point x="187" y="-17"/>
      <point x="187" y="-22" type="curve"/>
      <point x="177" y="-101" type="line"/>
      <point x="177" y="-102" type="line" smooth="yes"/>
      <point x="177" y="-109"/>
      <point x="185" y="-116"/>
      <point x="193" y="-116" type="curve" smooth="yes"/>
    </contour>
    <contour>
      <point x="237" y="16"/>
      <point x="234" y="18"/>
      <point x="234" y="23" type="curve" smooth="yes"/>
      <point x="234" y="25"/>
      <point x="234" y="26"/>
      <point x="234" y="26" type="curve"/>
      <point x="264" y="270" type="line"/>
      <point x="266" y="276" type="line"/>
      <point x="297" y="260"/>
      <point x="352" y="192"/>
      <point x="352" y="148" type="curve" smooth="yes"/>
      <point x="352" y="56"/>
      <point x="319" y="21"/>
      <point x="242" y="16" type="curve"/>
    </contour>
    <contour>
      <point x="236" y="409"/>
      <point x="234" y="410"/>
      <point x="231" y="411" type="curve"/>
      <point x="184" y="447"/>
      <point x="160" y="482"/>
      <point x="160" y="517" type="curve" smooth="yes"/>
      <point x="160" y="570"/>
      <point x="203" y="622"/>
      <point x="259" y="627" type="curve"/>
      <point x="264" y="627"/>
      <point x="266" y="624"/>
      <point x="266" y="619" type="curve"/>
      <point x="240" y="413" type="line"/>
      <point x="240" y="410"/>
      <point x="239" y="409"/>
      <point x="238" y="409" type="curve" smooth="yes"/>
    </contour>
  </outline>
</glyph>
<glyph name="greater.subs" format="1">
  <advance width="354"/>
  <outline>
    <contour>
      <point x="32" y="-3" type="line"/>
      <point x="316" y="117" type="line"/>
      <point x="328" y="121"/>
      <point x="337" y="139"/>
      <point x="337" y="145" type="curve" smooth="yes"/>
      <point x="337" y="148"/>
      <point x="328" y="153"/>
      <point x="311" y="161" type="curve" smooth="yes"/>
      <point x="32" y="281" type="line"/>
      <point x="30" y="281" type="line" smooth="yes"/>
      <point x="25" y="281"/>
      <point x="23" y="279"/>
      <point x="23" y="274" type="curve" smooth="yes"/>
      <point x="23" y="259"/>
      <point x="28" y="249"/>
      <point x="38" y="245" type="curve" smooth="yes"/>
      <point x="285" y="140" type="line"/>
      <point x="287" y="139"/>
      <point x="287" y="138"/>
      <point x="286" y="137" type="curve"/>
      <point x="44" y="33" type="line"/>
      <point x="30" y="28"/>
      <point x="23" y="18"/>
      <point x="23" y="4" type="curve" smooth="yes"/>
      <point x="23" y="-1"/>
      <point x="25" y="-3"/>
      <point x="30" y="-3" type="curve" smooth="yes"/>
    </contour>
  </outline>
</glyph>
<glyph name="greater.sups" format="1">
  <advance width="354"/>
  <outline>
    <contour>
      <point x="32" y="437" type="line"/>
      <point x="316" y="557" type="line"/>
      <point x="328" y="561"/>
      <point x="337" y="579"/>
      <point x="337" y="585" type="curve" smooth="yes"/>
      <point x="337" y="588"/>
      <point x="328" y="593"/>
      <point x="311" y="601" type="curve" smooth="yes"/>
      <point x="32" y="721" type="line"/>
      <point x="30" y="721" type="line" smooth="yes"/>
      <point x="25" y="721"/>
      <point x="23" y="719"/>
      <point x="23" y="714" type="curve" smooth="yes"/>
      <point x="23" y="699"/>
      <point x="28" y="689"/>
      <point x="38" y="685" type="curve" smooth="yes"/>
      <point x="285" y="580" type="line"/>
      <point x="287" y="579"/>
      <point x="287" y="578"/>
      <point x="286" y="577" type="curve"/>
      <point x="44" y="473" type="line"/>
      <point x="30" y="468"/>
      <point x="23" y="458"/>
      <point x="23" y="444" type="curve" smooth="yes"/>
      <point x="23" y="439"/>
      <point x="25" y="437"/>
      <point x="30" y="437" type="curve" smooth="yes"/>
    </contour>
  </outline>
</glyph>
<glyph name="hook" format="1">
  <advance width="656"/>
  <outline>
    <contour>
      <point x="167" y="91" type="line"/>
      <point x="112" y="91"/>
      <point x="82" y="124"/>
      <point x="82" y="164" type="curve" smooth="yes"/>
      <point x="82" y="201"/>
      <point x="108" y="225"/>
      <point x="145" y="225" type="curve" smooth="yes"/>
      <point x="175" y="225"/>
      <point x="200" y="215"/>
      <point x="211" y="191" type="curve"/>
      <point x="227" y="206" type="line"/>
      <point x="214" y="248"/>
      <point x="190" y="285"/>
      <point x="142" y="285" type="curve" smooth="yes"/>
      <point x="82" y="285"/>
      <point x="39" y="230"/>
      <point x="39" y="141" type="curve" smooth="yes"/>
      <point x="39" y="54"/>
      <point x="84" y="-16"/>
      <point x="160" y="-16" type="curve"/>
    </contour>
  </outline>
</glyph>
<glyph name="knCA.base" format="1">
  <advance width="705"/>
  <outline>
    <contour>
      <point x="259" y="-14"/>
      <point x="327" y="43"/>
      <point x="350" y="126" type="curve"/>
      <point x="352" y="126" type="line"/>
      <point x="375" y="43"/>
      <point x="443" y="-14"/>
      <point x="511" y="-14" type="curve" smooth="yes"/>
      <point x="577" y="-14"/>
      <point x="638" y="38"/>
      <point x="638" y="125" type="curve" smooth="yes"/>
      <point x="638" y="195"/>
      <point x="592" y="311"/>
      <point x="508" y="327" type="curve"/>
      <point x="489" y="310" type="line"/>
      <point x="549" y="287"/>
      <point x="590" y="221"/>
      <point x="590" y="154" type="curve" smooth="yes"/>
      <point x="590" y="116"/>
      <point x="565" y="71"/>
      <point x="507" y="71" type="curve" smooth="yes"/>
      <point x="434" y="71"/>
      <point x="368" y="146"/>
      <point x="355" y="221" type="curve"/>
      <point x="346" y="221" type="line"/>
      <point x="332" y="145"/>
      <point x="267" y="71"/>
      <point x="194" y="71" type="curve" smooth="yes"/>
      <point x="141" y="71"/>
      <point x="114" y="114"/>
      <point x="114" y="156" type="curve" smooth="yes"/>
      <point x="114" y="187"/>
      <point x="139" y="223"/>
      <point x="172" y="257" type="curve" smooth="yes"/>
      <point x="212" y="298"/>
      <point x="261" y="349"/>
      <point x="261" y="399" type="curve" smooth="yes"/>
      <point x="261" y="465"/>
      <point x="213" y="519"/>
      <point x="137" y="519" type="curve" smooth="yes"/>
      <point x="62" y="519"/>
      <point x="23" y="465"/>
      <point x="23" y="413" type="curve" smooth="yes"/>
      <point x="23" y="381"/>
      <point x="31" y="352"/>
      <point x="52" y="330" type="curve"/>
      <point x="72" y="345" type="line"/>
      <point x="65" y="360"/>
      <point x="62" y="372"/>
      <point x="62" y="383" type="curve" smooth="yes"/>
      <point x="62" y="421"/>
      <point x="85" y="452"/>
      <point x="137" y="452" type="curve" smooth="yes"/>
      <point x="174" y="452"/>
      <point x="208" y="427"/>
      <point x="208" y="385" type="curve" smooth="yes"/>
      <point x="208" y="344"/>
      <point x="177" y="311"/>
      <point x="145" y="278" type="curve" smooth="yes"/>
      <point x="106" y="238"/>
      <point x="63" y="193"/>
      <point x="63" y="125" type="curve" smooth="yes"/>
      <point x="63" y="38"/>
      <point x="124" y="-14"/>
      <point x="191" y="-14" type="curve" smooth="yes"/>
    </contour>
    <contour>
      <point x="649" y="294" type="line"/>
      <point x="649" y="365" type="line"/>
      <point x="373" y="365" type="line"/>
      <point x="373" y="294" type="line"/>
    </contour>
    <contour>
      <point x="525" y="434" type="line"/>
      <point x="525" y="509" type="line"/>
      <point x="373" y="509" type="line"/>
      <point x="373" y="434" type="line"/>
    </contour>
    <contour>
      <point x="549" y="331"/>
      <point x="567" y="363"/>
      <point x="567" y="396" type="curve" smooth="yes"/>
      <point x="567" y="429"/>
      <point x="540" y="462"/>
      <point x="508" y="479" type="curve"/>
      <point x="493" y="448" type="line"/>
      <point x="520" y="437"/>
      <point x="533" y="416"/>
      <point x="533" y="395" type="curve" smooth="yes"/>
      <point x="533" y="374"/>
      <point x="520" y="354"/>
      <point x="493" y="342" type="curve"/>
      <point x="508" y="313" type="line"/>
    </contour>
  </outline>
</glyph>
<glyph name="knCH" format="1">
  <advance width="1036"/>
  <outline>
    <contour>
      <point x="318" y="-14"/>
      <point x="386" y="43"/>
      <point x="409" y="126" type="curve"/>
      <point x="411" y="126" type="line"/>
      <point x="434" y="43"/>
      <point x="502" y="-14"/>
      <point x="572" y="-14" type="curve" smooth="yes"/>
      <point x="683" y="-14"/>
      <point x="745" y="78"/>
      <point x="745" y="224" type="curve" smooth="yes"/>
      <point x="745" y="416"/>
      <point x="591" y="509"/>
      <point x="458" y="509" type="curve"/>
      <point x="498" y="434" type="line"/>
      <point x="627" y="434"/>
      <point x="706" y="372"/>
      <point x="706" y="237" type="curve" smooth="yes"/>
      <point x="706" y="158"/>
      <point x="664" y="71"/>
      <point x="566" y="71" type="curve" smooth="yes"/>
      <point x="493" y="71"/>
      <point x="427" y="146"/>
      <point x="414" y="221" type="curve"/>
      <point x="405" y="221" type="line"/>
      <point x="391" y="145"/>
      <point x="323" y="71"/>
      <point x="248" y="71" type="curve" smooth="yes"/>
      <point x="157" y="71"/>
      <point x="100" y="149"/>
      <point x="100" y="272" type="curve" smooth="yes"/>
      <point x="100" y="365"/>
      <point x="142" y="454"/>
      <point x="235" y="454" type="curve" smooth="yes"/>
      <point x="273" y="454"/>
      <point x="307" y="440"/>
      <point x="307" y="401" type="curve" smooth="yes"/>
      <point x="307" y="365"/>
      <point x="279" y="344"/>
      <point x="232" y="344" type="curve" smooth="yes"/>
      <point x="190" y="344"/>
      <point x="159" y="365"/>
      <point x="159" y="408" type="curve" smooth="yes"/>
      <point x="159" y="419"/>
      <point x="163" y="440"/>
      <point x="166" y="450" type="curve"/>
      <point x="177" y="475"/>
      <point x="172" y="501"/>
      <point x="157" y="497" type="curve"/>
      <point x="135" y="429" type="line"/>
      <point x="132" y="407"/>
      <point x="131" y="394"/>
      <point x="131" y="381" type="curve" smooth="yes"/>
      <point x="131" y="308"/>
      <point x="174" y="273"/>
      <point x="232" y="273" type="curve" smooth="yes"/>
      <point x="295" y="273"/>
      <point x="337" y="325"/>
      <point x="337" y="391" type="curve" smooth="yes"/>
      <point x="337" y="457"/>
      <point x="301" y="519"/>
      <point x="230" y="519" type="curve" smooth="yes"/>
      <point x="128" y="519"/>
      <point x="60" y="392"/>
      <point x="60" y="261" type="curve" smooth="yes"/>
      <point x="60" y="82"/>
      <point x="137" y="-14"/>
      <point x="248" y="-14" type="curve" smooth="yes"/>
    </contour>
    <contour>
      <point x="437" y="-220"/>
      <point x="462" y="-201"/>
      <point x="462" y="-161" type="curve" smooth="yes"/>
      <point x="462" y="-117"/>
      <point x="433" y="-104"/>
      <point x="419" y="16" type="curve"/>
      <point x="403" y="16" type="line"/>
      <point x="390" y="-104"/>
      <point x="359" y="-117"/>
      <point x="359" y="-161" type="curve" smooth="yes"/>
      <point x="359" y="-197"/>
      <point x="384" y="-220"/>
      <point x="411" y="-220" type="curve" smooth="yes"/>
    </contour>
    <contour>
      <point x="611" y="434" type="line" smooth="yes"/>
      <point x="692" y="434"/>
      <point x="746" y="480"/>
      <point x="746" y="552" type="curve" smooth="yes"/>
      <point x="746" y="607"/>
      <point x="715" y="648"/>
      <point x="672" y="664" type="curve"/>
      <point x="657" y="644" type="line"/>
      <point x="681" y="635"/>
      <point x="703" y="610"/>
      <point x="703" y="576" type="curve" smooth="yes"/>
      <point x="703" y="536"/>
      <point x="672" y="509"/>
      <point x="611" y="509" type="curve" smooth="yes"/>
      <point x="450" y="509" type="line"/>
      <point x="450" y="434" type="line"/>
    </contour>
    <component base="virama" xOffset="790"/>
  </outline>
</glyph>
<glyph name="knCHA.base" format="1">
  <advance width="809"/>
  <outline>
    <contour>
      <point x="317" y="-14"/>
      <point x="385" y="43"/>
      <point x="408" y="126" type="curve"/>
      <point x="410" y="126" type="line"/>
      <point x="433" y="43"/>
      <point x="501" y="-14"/>
      <point x="571" y="-14" type="curve" smooth="yes"/>
      <point x="682" y="-14"/>
      <point x="744" y="78"/>
      <point x="744" y="224" type="curve" smooth="yes"/>
      <point x="744" y="416"/>
      <point x="590" y="509"/>
      <point x="457" y="509" type="curve"/>
      <point x="497" y="434" type="line"/>
      <point x="626" y="434"/>
      <point x="705" y="372"/>
      <point x="705" y="237" type="curve" smooth="yes"/>
      <point x="705" y="158"/>
      <point x="663" y="71"/>
      <point x="565" y="71" type="curve" smooth="yes"/>
      <point x="492" y="71"/>
      <point x="426" y="146"/>
      <point x="413" y="221" type="curve"/>
      <point x="404" y="221" type="line"/>
      <point x="390" y="145"/>
      <point x="322" y="71"/>
      <point x="247" y="71" type="curve" smooth="yes"/>
      <point x="156" y="71"/>
      <point x="99" y="149"/>
      <point x="99" y="272" type="curve" smooth="yes"/>
      <point x="99" y="365"/>
      <point x="141" y="454"/>
      <point x="234" y="454" type="curve" smooth="yes"/>
      <point x="272" y="454"/>
      <point x="306" y="440"/>
      <point x="306" y="401" type="curve" smooth="yes"/>
      <point x="306" y="365"/>
      <point x="278" y="344"/>
      <point x="231" y="344" type="curve" smooth="yes"/>
      <point x="189" y="344"/>
      <point x="158" y="365"/>
      <point x="158" y="408" type="curve" smooth="yes"/>
      <point x="158" y="419"/>
      <point x="162" y="440"/>
      <point x="165" y="450" type="curve"/>
      <point x="176" y="475"/>
      <point x="171" y="501"/>
      <point x="156" y="497" type="curve"/>
      <point x="134" y="429" type="line"/>
      <point x="131" y="407"/>
      <point x="130" y="394"/>
      <point x="130" y="381" type="curve" smooth="yes"/>
      <point x="130" y="308"/>
      <point x="173" y="273"/>
      <point x="231" y="273" type="curve" smooth="yes"/>
      <point x="294" y="273"/>
      <point x="336" y="325"/>
      <point x="336" y="391" type="curve" smooth="yes"/>
      <point x="336" y="457"/>
      <point x="300" y="519"/>
      <point x="229" y="519" type="curve" smooth="yes"/>
      <point x="127" y="519"/>
      <point x="59" y="392"/>
      <point x="59" y="261" type="curve" smooth="yes"/>
      <point x="59" y="82"/>
      <point x="136" y="-14"/>
      <point x="247" y="-14" type="curve" smooth="yes"/>
    </contour>
    <contour>
      <point x="436" y="-220"/>
      <point x="461" y="-201"/>
      <point x="461" y="-161" type="curve" smooth="yes"/>
      <point x="461" y="-117"/>
      <point x="432" y="-104"/>
      <point x="418" y="16" type="curve"/>
      <point x="402" y="16" type="line"/>
      <point x="389" y="-104"/>
      <point x="358" y="-117"/>
      <point x="358" y="-161" type="curve" smooth="yes"/>
      <point x="358" y="-197"/>
      <point x="383" y="-220"/>
      <point x="410" y="-220" type="curve" smooth="yes"/>
    </contour>
    <contour>
      <point x="610" y="434" type="line"/>
      <point x="610" y="509" type="line"/>
      <point x="449" y="509" type="line"/>
      <point x="449" y="434" type="line"/>
    </contour>
  </outline>
</glyph>
<glyph name="knCHI" format="1">
  <advance width="806"/>
  <outline>
    <contour>
      <point x="437" y="-220"/>
      <point x="462" y="-201"/>
      <point x="462" y="-161" type="curve" smooth="yes"/>
      <point x="462" y="-117"/>
      <point x="433" y="-104"/>
      <point x="419" y="16" type="curve"/>
      <point x="403" y="16" type="line"/>
      <point x="390" y="-104"/>
      <point x="359" y="-117"/>
      <point x="359" y="-161" type="curve" smooth="yes"/>
      <point x="359" y="-197"/>
      <point x="384" y="-220"/>
      <point x="411" y="-220" type="curve" smooth="yes"/>
    </contour>
    <contour>
      <point x="706" y="167"/>
      <point x="664" y="71"/>
      <point x="566" y="71" type="curve" smooth="yes"/>
      <point x="493" y="71"/>
      <point x="427" y="146"/>
      <point x="414" y="221" type="curve"/>
      <point x="405" y="221" type="line"/>
      <point x="391" y="145"/>
      <point x="323" y="71"/>
      <point x="248" y="71" type="curve" smooth="yes"/>
      <point x="157" y="71"/>
      <point x="100" y="149"/>
      <point x="100" y="272" type="curve" smooth="yes"/>
      <point x="100" y="365"/>
      <point x="142" y="454"/>
      <point x="235" y="454" type="curve" smooth="yes"/>
      <point x="273" y="454"/>
      <point x="307" y="440"/>
      <point x="307" y="401" type="curve" smooth="yes"/>
      <point x="307" y="365"/>
      <point x="279" y="344"/>
      <point x="232" y="344" type="curve" smooth="yes"/>
      <point x="190" y="344"/>
      <point x="159" y="365"/>
      <point x="159" y="408" type="curve" smooth="yes"/>
      <point x="159" y="419"/>
      <point x="163" y="440"/>
      <point x="166" y="450" type="curve"/>
      <point x="177" y="475"/>
      <point x="172" y="501"/>
      <point x="157" y="497" type="curve"/>
      <point x="135" y="429" type="line"/>
      <point x="132" y="407"/>
      <point x="131" y="394"/>
      <point x="131" y="381" type="curve" smooth="yes"/>
      <point x="131" y="308"/>
      <point x="174" y="273"/>
      <point x="232" y="273" type="curve" smooth="yes"/>
      <point x="295" y="273"/>
      <point x="337" y="325"/>
      <point x="337" y="391" type="curve" smooth="yes"/>
      <point x="337" y="457"/>
      <point x="301" y="519"/>
      <point x="230" y="519" type="curve" smooth="yes"/>
      <point x="128" y="519"/>
      <point x="60" y="392"/>
      <point x="60" y="261" type="curve" smooth="yes"/>
      <point x="60" y="82"/>
      <point x="137" y="-14"/>
      <point x="248" y="-14" type="curve" smooth="yes"/>
      <point x="318" y="-14"/>
      <point x="386" y="43"/>
      <point x="409" y="126" type="curve"/>
      <point x="411" y="126" type="line"/>
      <point x="434" y="43"/>
      <point x="502" y="-14"/>
      <point x="572" y="-14" type="curve" smooth="yes"/>
      <point x="683" y="-14"/>
      <point x="746" y="104"/>
      <point x="746" y="300" type="curve" smooth="yes"/>
      <point x="746" y="551"/>
      <point x="636" y="724"/>
      <point x="527" y="724" type="curve" smooth="yes"/>
      <point x="468" y="724"/>
      <point x="432" y="679"/>
      <point x="432" y="610" type="curve" smooth="yes"/>
      <point x="432" y="549"/>
      <point x="472" y="500"/>
      <point x="528" y="501" type="curve" smooth="yes"/>
      <point x="586" y="502"/>
      <point x="616" y="555"/>
      <point x="616" y="613" type="curve" smooth="yes"/>
      <point x="616" y="644"/>
      <point x="609" y="662"/>
      <point x="598" y="677" type="curve"/>
      <point x="570" y="681" type="line"/>
      <point x="584" y="667"/>
      <point x="588" y="651"/>
      <point x="588" y="628" type="curve" smooth="yes"/>
      <point x="588" y="598"/>
      <point x="569" y="561"/>
      <point x="522" y="561" type="curve" smooth="yes"/>
      <point x="486" y="561"/>
      <point x="465" y="580"/>
      <point x="465" y="610" type="curve" smooth="yes"/>
      <point x="465" y="633"/>
      <point x="485" y="658"/>
      <point x="529" y="658" type="curve" smooth="yes"/>
      <point x="595" y="658"/>
      <point x="706" y="539"/>
      <point x="706" y="310" type="curve" smooth="yes"/>
    </contour>
  </outline>
</glyph>
<glyph name="knCI" format="1">
  <advance width="724"/>
  <outline>
    <contour>
      <point x="261" y="-14"/>
      <point x="329" y="43"/>
      <point x="352" y="126" type="curve"/>
      <point x="354" y="126" type="line"/>
      <point x="377" y="43"/>
      <point x="445" y="-14"/>
      <point x="513" y="-14" type="curve" smooth="yes"/>
      <point x="579" y="-14"/>
      <point x="640" y="38"/>
      <point x="640" y="125" type="curve" smooth="yes"/>
      <point x="640" y="195"/>
      <point x="594" y="311"/>
      <point x="510" y="327" type="curve"/>
      <point x="491" y="310" type="line"/>
      <point x="551" y="287"/>
      <point x="592" y="221"/>
      <point x="592" y="154" type="curve" smooth="yes"/>
      <point x="592" y="116"/>
      <point x="567" y="71"/>
      <point x="509" y="71" type="curve" smooth="yes"/>
      <point x="436" y="71"/>
      <point x="370" y="146"/>
      <point x="357" y="221" type="curve"/>
      <point x="348" y="221" type="line"/>
      <point x="334" y="145"/>
      <point x="269" y="71"/>
      <point x="196" y="71" type="curve" smooth="yes"/>
      <point x="143" y="71"/>
      <point x="116" y="114"/>
      <point x="116" y="156" type="curve" smooth="yes"/>
      <point x="116" y="187"/>
      <point x="141" y="223"/>
      <point x="174" y="257" type="curve" smooth="yes"/>
      <point x="214" y="298"/>
      <point x="263" y="349"/>
      <point x="263" y="399" type="curve" smooth="yes"/>
      <point x="263" y="465"/>
      <point x="215" y="519"/>
      <point x="139" y="519" type="curve" smooth="yes"/>
      <point x="64" y="519"/>
      <point x="25" y="465"/>
      <point x="25" y="413" type="curve" smooth="yes"/>
      <point x="25" y="381"/>
      <point x="33" y="352"/>
      <point x="54" y="330" type="curve"/>
      <point x="74" y="345" type="line"/>
      <point x="67" y="360"/>
      <point x="64" y="372"/>
      <point x="64" y="383" type="curve" smooth="yes"/>
      <point x="64" y="421"/>
      <point x="87" y="452"/>
      <point x="139" y="452" type="curve" smooth="yes"/>
      <point x="176" y="452"/>
      <point x="210" y="427"/>
      <point x="210" y="385" type="curve" smooth="yes"/>
      <point x="210" y="344"/>
      <point x="179" y="311"/>
      <point x="147" y="278" type="curve" smooth="yes"/>
      <point x="108" y="238"/>
      <point x="65" y="193"/>
      <point x="65" y="125" type="curve" smooth="yes"/>
      <point x="65" y="38"/>
      <point x="126" y="-14"/>
      <point x="193" y="-14" type="curve" smooth="yes"/>
    </contour>
    <contour>
      <point x="651" y="294" type="line"/>
      <point x="651" y="365" type="line"/>
      <point x="375" y="365" type="line"/>
      <point x="375" y="294" type="line"/>
    </contour>
    <contour>
      <point x="540" y="320"/>
      <point x="627" y="395"/>
      <point x="627" y="500" type="curve" smooth="yes"/>
      <point x="627" y="587"/>
      <point x="566" y="680"/>
      <point x="482" y="680" type="curve" smooth="yes"/>
      <point x="423" y="680"/>
      <point x="387" y="635"/>
      <point x="387" y="566" type="curve" smooth="yes"/>
      <point x="387" y="505"/>
      <point x="427" y="456"/>
      <point x="483" y="457" type="curve" smooth="yes"/>
      <point x="541" y="458"/>
      <point x="571" y="511"/>
      <point x="571" y="569" type="curve" smooth="yes"/>
      <point x="571" y="600"/>
      <point x="564" y="618"/>
      <point x="553" y="633" type="curve"/>
      <point x="525" y="637" type="line"/>
      <point x="539" y="623"/>
      <point x="543" y="607"/>
      <point x="543" y="584" type="curve" smooth="yes"/>
      <point x="543" y="554"/>
      <point x="524" y="517"/>
      <point x="477" y="517" type="curve" smooth="yes"/>
      <point x="441" y="517"/>
      <point x="420" y="536"/>
      <point x="420" y="566" type="curve" smooth="yes"/>
      <point x="420" y="589"/>
      <point x="440" y="614"/>
      <point x="484" y="614" type="curve" smooth="yes"/>
      <point x="550" y="614"/>
      <point x="595" y="555"/>
      <point x="595" y="504" type="curve" smooth="yes"/>
      <point x="595" y="437"/>
      <point x="525" y="379"/>
      <point x="404" y="365" type="curve"/>
      <point x="390" y="307" type="line"/>
    </contour>
  </outline>
</glyph>
<glyph name="knDA.base" format="1">
  <advance width="700"/>
  <outline>
    <contour>
      <point x="253" y="-14"/>
      <point x="321" y="43"/>
      <point x="344" y="126" type="curve"/>
      <point x="346" y="126" type="line"/>
      <point x="369" y="43"/>
      <point x="437" y="-14"/>
      <point x="505" y="-14" type="curve" smooth="yes"/>
      <point x="572" y="-14"/>
      <point x="635" y="33"/>
      <point x="635" y="160" type="curve" smooth="yes"/>
      <point x="635" y="339"/>
      <point x="482" y="467"/>
      <point x="345" y="467" type="curve" smooth="yes"/>
      <point x="208" y="467"/>
      <point x="55" y="339"/>
      <point x="55" y="160" type="curve" smooth="yes"/>
      <point x="55" y="33"/>
      <point x="117" y="-14"/>
      <point x="185" y="-14" type="curve" smooth="yes"/>
    </contour>
    <contour>
      <point x="138" y="71"/>
      <point x="104" y="114"/>
      <point x="104" y="192" type="curve" smooth="yes"/>
      <point x="104" y="300"/>
      <point x="213" y="441"/>
      <point x="345" y="441" type="curve" smooth="yes"/>
      <point x="477" y="441"/>
      <point x="586" y="300"/>
      <point x="586" y="192" type="curve" smooth="yes"/>
      <point x="586" y="114"/>
      <point x="552" y="71"/>
      <point x="495" y="71" type="curve" smooth="yes"/>
      <point x="429" y="71"/>
      <point x="364" y="145"/>
      <point x="350" y="221" type="curve"/>
      <point x="341" y="221" type="line"/>
      <point x="327" y="145"/>
      <point x="261" y="71"/>
      <point x="196" y="71" type="curve" smooth="yes"/>
    </contour>
    <contour>
      <point x="241" y="434" type="line"/>
      <point x="345" y="444" type="line"/>
      <point x="448" y="434" type="line"/>
      <point x="499" y="434" type="line"/>
      <point x="499" y="509" type="line"/>
      <point x="55" y="509" type="line"/>
      <point x="55" y="434" type="line"/>
    </contour>
  </outline>
</glyph>
<glyph name="knDHA.base" format="1">
  <advance width="1135"/>
  <outline>
    <contour>
      <point x="1001" y="-13"/>
      <point x="1075" y="93"/>
      <point x="1075" y="239" type="curve" smooth="yes"/>
      <point x="1075" y="390"/>
      <point x="1005" y="509"/>
      <point x="767" y="509" type="curve" smooth="yes"/>
      <point x="490" y="509" type="line"/>
      <point x="490" y="434" type="line"/>
      <point x="776" y="434" type="line" smooth="yes"/>
      <point x="970" y="434"/>
      <point x="1040" y="346"/>
      <point x="1040" y="236" type="curve" smooth="yes"/>
      <point x="1040" y="130"/>
      <point x="978" y="69"/>
      <point x="888" y="69" type="curve" smooth="yes"/>
      <point x="815" y="69"/>
      <point x="771" y="112"/>
      <point x="770" y="170" type="curve" smooth="yes"/>
      <point x="769" y="212"/>
      <point x="791" y="238"/>
      <point x="803" y="238" type="curve" smooth="yes"/>
      <point x="808" y="238"/>
      <point x="810" y="234"/>
      <point x="809" y="228" type="curve"/>
      <point x="810" y="192"/>
      <point x="831" y="166"/>
      <point x="864" y="166" type="curve" smooth="yes"/>
      <point x="899" y="166"/>
      <point x="925" y="195"/>
      <point x="924" y="231" type="curve"/>
      <point x="925" y="263"/>
      <point x="900" y="300"/>
      <point x="845" y="300" type="curve" smooth="yes"/>
      <point x="773" y="300"/>
      <point x="733" y="236"/>
      <point x="732" y="158" type="curve" smooth="yes"/>
      <point x="733" y="59"/>
      <point x="793" y="-13"/>
      <point x="889" y="-13" type="curve" smooth="yes"/>
    </contour>
    <contour>
      <point x="370" y="-220"/>
      <point x="395" y="-201"/>
      <point x="395" y="-161" type="curve" smooth="yes"/>
      <point x="395" y="-117"/>
      <point x="366" y="-104"/>
      <point x="352" y="16" type="curve"/>
      <point x="336" y="16" type="line"/>
      <point x="323" y="-104"/>
      <point x="292" y="-117"/>
      <point x="292" y="-161" type="curve" smooth="yes"/>
      <point x="292" y="-197"/>
      <point x="317" y="-220"/>
      <point x="344" y="-220" type="curve" smooth="yes"/>
    </contour>
    <contour>
      <point x="253" y="-14"/>
      <point x="321" y="43"/>
      <point x="344" y="126" type="curve"/>
      <point x="346" y="126" type="line"/>
      <point x="369" y="43"/>
      <point x="437" y="-14"/>
      <point x="505" y="-14" type="curve" smooth="yes"/>
      <point x="572" y="-14"/>
      <point x="635" y="33"/>
      <point x="635" y="160" type="curve" smooth="yes"/>
      <point x="635" y="339"/>
      <point x="482" y="467"/>
      <point x="345" y="467" type="curve" smooth="yes"/>
      <point x="208" y="467"/>
      <point x="55" y="339"/>
      <point x="55" y="160" type="curve" smooth="yes"/>
      <point x="55" y="33"/>
      <point x="117" y="-14"/>
      <point x="185" y="-14" type="curve" smooth="yes"/>
    </contour>
    <contour>
      <point x="138" y="71"/>
      <point x="104" y="114"/>
      <point x="104" y="192" type="curve" smooth="yes"/>
      <point x="104" y="300"/>
      <point x="213" y="441"/>
      <point x="345" y="441" type="curve" smooth="yes"/>
      <point x="477" y="441"/>
      <point x="586" y="300"/>
      <point x="586" y="192" type="curve" smooth="yes"/>
      <point x="586" y="114"/>
      <point x="552" y="71"/>
      <point x="495" y="71" type="curve" smooth="yes"/>
      <point x="429" y="71"/>
      <point x="364" y="145"/>
      <point x="350" y="221" type="curve"/>
      <point x="341" y="221" type="line"/>
      <point x="327" y="145"/>
      <point x="261" y="71"/>
      <point x="196" y="71" type="curve" smooth="yes"/>
    </contour>
    <contour>
      <point x="241" y="434" type="line"/>
      <point x="345" y="444" type="line"/>
      <point x="448" y="434" type="line"/>
      <point x="499" y="434" type="line"/>
      <point x="499" y="509" type="line"/>
      <point x="55" y="509" type="line"/>
      <point x="55" y="434" type="line"/>
    </contour>
  </outline>
</glyph>
<glyph name="knDHE" format="1">
  <advance width="700"/>
  <outline>
    <contour>
      <point x="253" y="-14"/>
      <point x="321" y="43"/>
      <point x="344" y="126" type="curve"/>
      <point x="346" y="126" type="line"/>
      <point x="369" y="43"/>
      <point x="437" y="-14"/>
      <point x="505" y="-14" type="curve" smooth="yes"/>
      <point x="572" y="-14"/>
      <point x="635" y="33"/>
      <point x="635" y="160" type="curve" smooth="yes"/>
      <point x="635" y="339"/>
      <point x="482" y="467"/>
      <point x="345" y="467" type="curve" smooth="yes"/>
      <point x="208" y="467"/>
      <point x="55" y="339"/>
      <point x="55" y="160" type="curve" smooth="yes"/>
      <point x="55" y="33"/>
      <point x="117" y="-14"/>
      <point x="185" y="-14" type="curve" smooth="yes"/>
    </contour>
    <contour>
      <point x="370" y="-220"/>
      <point x="395" y="-201"/>
      <point x="395" y="-161" type="curve" smooth="yes"/>
      <point x="395" y="-117"/>
      <point x="366" y="-104"/>
      <point x="352" y="16" type="curve"/>
      <point x="336" y="16" type="line"/>
      <point x="323" y="-104"/>
      <point x="292" y="-117"/>
      <point x="292" y="-161" type="curve" smooth="yes"/>
      <point x="292" y="-197"/>
      <point x="317" y="-220"/>
      <point x="344" y="-220" type="curve" smooth="yes"/>
    </contour>
    <contour>
      <point x="138" y="71"/>
      <point x="104" y="114"/>
      <point x="104" y="192" type="curve" smooth="yes"/>
      <point x="104" y="300"/>
      <point x="213" y="441"/>
      <point x="345" y="441" type="curve" smooth="yes"/>
      <point x="477" y="441"/>
      <point x="586" y="300"/>
      <point x="586" y="192" type="curve" smooth="yes"/>
      <point x="586" y="114"/>
      <point x="552" y="71"/>
      <point x="495" y="71" type="curve" smooth="yes"/>
      <point x="429" y="71"/>
      <point x="364" y="145"/>
      <point x="350" y="221" type="curve"/>
      <point x="341" y="221" type="line"/>
      <point x="327" y="145"/>
      <point x="261" y="71"/>
      <point x="196" y="71" type="curve" smooth="yes"/>
    </contour>
    <contour>
      <point x="241" y="434" type="line"/>
      <point x="345" y="444" type="line"/>
      <point x="448" y="434" type="line"/>
      <point x="499" y="434" type="line" smooth="yes"/>
      <point x="580" y="434"/>
      <point x="634" y="480"/>
      <point x="634" y="552" type="curve" smooth="yes"/>
      <point x="634" y="607"/>
      <point x="603" y="648"/>
      <point x="560" y="664" type="curve"/>
      <point x="545" y="644" type="line"/>
      <point x="569" y="635"/>
      <point x="591" y="610"/>
      <point x="591" y="576" type="curve" smooth="yes"/>
      <point x="591" y="536"/>
      <point x="560" y="509"/>
      <point x="499" y="509" type="curve" smooth="yes"/>
      <point x="55" y="509" type="line"/>
      <point x="55" y="434" type="line"/>
    </contour>
    <contour>
      <point x="580" y="434"/>
      <point x="634" y="480"/>
      <point x="634" y="553" type="curve" smooth="yes"/>
      <point x="634" y="651"/>
      <point x="556" y="685"/>
      <point x="499" y="685" type="curve" smooth="yes"/>
      <point x="444" y="685"/>
      <point x="416" y="657"/>
      <point x="416" y="625" type="curve" smooth="yes"/>
      <point x="416" y="592"/>
      <point x="439" y="571"/>
      <point x="473" y="571" type="curve" smooth="yes"/>
      <point x="507" y="571"/>
      <point x="528" y="597"/>
      <point x="528" y="633" type="curve" smooth="yes"/>
      <point x="528" y="639"/>
      <point x="530" y="643"/>
      <point x="534" y="643" type="curve" smooth="yes"/>
      <point x="547" y="643"/>
      <point x="591" y="629"/>
      <point x="591" y="577" type="curve"/>
      <point x="591" y="530"/>
      <point x="551" y="509"/>
      <point x="500" y="509" type="curve"/>
      <point x="499" y="434" type="line"/>
    </contour>
  </outline>
</glyph>
<glyph name="knGE" format="1">
  <advance width="604"/>
  <outline>
    <contour>
      <point x="143" y="0" type="line"/>
      <point x="143" y="78" type="line" smooth="yes"/>
      <point x="143" y="247"/>
      <point x="197" y="438"/>
      <point x="302" y="438" type="curve" smooth="yes"/>
      <point x="407" y="438"/>
      <point x="461" y="247"/>
      <point x="461" y="78" type="curve" smooth="yes"/>
      <point x="461" y="0" type="line"/>
      <point x="539" y="0" type="line"/>
      <point x="539" y="51" type="line" smooth="yes"/>
      <point x="539" y="186"/>
      <point x="476" y="388"/>
      <point x="373" y="449" type="curve"/>
      <point x="302" y="465" type="line"/>
      <point x="231" y="449" type="line"/>
      <point x="128" y="388"/>
      <point x="65" y="186"/>
      <point x="65" y="51" type="curve" smooth="yes"/>
      <point x="65" y="0" type="line"/>
    </contour>
    <contour>
      <point x="237" y="434" type="line"/>
      <point x="302" y="444" type="line"/>
      <point x="368" y="434" type="line"/>
      <point x="398" y="434" type="line" smooth="yes"/>
      <point x="479" y="434"/>
      <point x="533" y="480"/>
      <point x="533" y="552" type="curve" smooth="yes"/>
      <point x="533" y="607"/>
      <point x="502" y="648"/>
      <point x="459" y="664" type="curve"/>
      <point x="444" y="644" type="line"/>
      <point x="468" y="635"/>
      <point x="490" y="610"/>
      <point x="490" y="576" type="curve" smooth="yes"/>
      <point x="490" y="536"/>
      <point x="459" y="509"/>
      <point x="398" y="509" type="curve" smooth="yes"/>
      <point x="77" y="509" type="line"/>
      <point x="77" y="434" type="line"/>
    </contour>
    <contour>
      <point x="479" y="434"/>
      <point x="533" y="480"/>
      <point x="533" y="553" type="curve" smooth="yes"/>
      <point x="533" y="651"/>
      <point x="455" y="685"/>
      <point x="398" y="685" type="curve" smooth="yes"/>
      <point x="343" y="685"/>
      <point x="315" y="657"/>
      <point x="315" y="625" type="curve" smooth="yes"/>
      <point x="315" y="592"/>
      <point x="338" y="571"/>
      <point x="372" y="571" type="curve" smooth="yes"/>
      <point x="406" y="571"/>
      <point x="427" y="597"/>
      <point x="427" y="633" type="curve" smooth="yes"/>
      <point x="427" y="639"/>
      <point x="429" y="643"/>
      <point x="433" y="643" type="curve" smooth="yes"/>
      <point x="446" y="643"/>
      <point x="490" y="629"/>
      <point x="490" y="577" type="curve"/>
      <point x="490" y="530"/>
      <point x="450" y="509"/>
      <point x="399" y="509" type="curve"/>
      <point x="398" y="434" type="line"/>
    </contour>
  </outline>
</glyph>
<glyph name="knGHA.base" format="1">
  <advance width="831"/>
  <outline>
    <contour>
      <point x="251" y="-14"/>
      <point x="321" y="43"/>
      <point x="344" y="126" type="curve"/>
      <point x="346" y="126" type="line"/>
      <point x="369" y="43"/>
      <point x="438" y="-14"/>
      <point x="506" y="-14" type="curve" smooth="yes"/>
      <point x="598" y="-14"/>
      <point x="635" y="84"/>
      <point x="635" y="174" type="curve" smooth="yes"/>
      <point x="635" y="251"/>
      <point x="618" y="335"/>
      <point x="585" y="390" type="curve"/>
      <point x="562" y="372" type="line"/>
      <point x="582" y="330"/>
      <point x="599" y="270"/>
      <point x="599" y="202" type="curve" smooth="yes"/>
      <point x="599" y="141"/>
      <point x="569" y="71"/>
      <point x="493" y="71" type="curve" smooth="yes"/>
      <point x="428" y="71"/>
      <point x="363" y="145"/>
      <point x="349" y="221" type="curve"/>
      <point x="340" y="221" type="line"/>
      <point x="326" y="145"/>
      <point x="261" y="71"/>
      <point x="186" y="71" type="curve" smooth="yes"/>
      <point x="135" y="71"/>
      <point x="100" y="104"/>
      <point x="100" y="156" type="curve" smooth="yes"/>
      <point x="100" y="201"/>
      <point x="129" y="227"/>
      <point x="166" y="227" type="curve" smooth="yes"/>
      <point x="196" y="227"/>
      <point x="221" y="217"/>
      <point x="232" y="193" type="curve"/>
      <point x="248" y="208" type="line"/>
      <point x="235" y="250"/>
      <point x="211" y="287"/>
      <point x="163" y="287" type="curve" smooth="yes"/>
      <point x="103" y="287"/>
      <point x="60" y="232"/>
      <point x="60" y="143" type="curve" smooth="yes"/>
      <point x="60" y="56"/>
      <point x="109" y="-14"/>
      <point x="183" y="-14" type="curve" smooth="yes"/>
    </contour>
    <contour>
      <point x="370" y="-220"/>
      <point x="395" y="-201"/>
      <point x="395" y="-161" type="curve" smooth="yes"/>
      <point x="395" y="-117"/>
      <point x="366" y="-104"/>
      <point x="352" y="16" type="curve"/>
      <point x="336" y="16" type="line"/>
      <point x="323" y="-104"/>
      <point x="292" y="-117"/>
      <point x="292" y="-161" type="curve" smooth="yes"/>
      <point x="292" y="-197"/>
      <point x="317" y="-220"/>
      <point x="344" y="-220" type="curve" smooth="yes"/>
    </contour>
    <contour>
      <point x="376" y="271"/>
      <point x="403" y="298"/>
      <point x="403" y="331" type="curve" smooth="yes"/>
      <point x="403" y="363"/>
      <point x="376" y="390"/>
      <point x="343" y="390" type="curve" smooth="yes"/>
      <point x="309" y="390"/>
      <point x="284" y="363"/>
      <point x="284" y="331" type="curve" smooth="yes"/>
      <point x="284" y="298"/>
      <point x="309" y="271"/>
      <point x="343" y="271" type="curve" smooth="yes"/>
    </contour>
    <contour>
      <point x="551" y="434" type="line"/>
      <point x="551" y="509" type="line"/>
      <point x="60" y="509" type="line"/>
      <point x="60" y="434" type="line"/>
    </contour>
    <contour>
      <point x="766" y="201"/>
      <point x="806" y="248"/>
      <point x="806" y="308" type="curve" smooth="yes"/>
      <point x="806" y="362"/>
      <point x="777" y="411"/>
      <point x="715" y="449" type="curve"/>
      <point x="696" y="429" type="line"/>
      <point x="739" y="399"/>
      <point x="757" y="367"/>
      <point x="757" y="337" type="curve" smooth="yes"/>
      <point x="757" y="301"/>
      <point x="736" y="275"/>
      <point x="703" y="275" type="curve" smooth="yes"/>
      <point x="662" y="275"/>
      <point x="629" y="298"/>
      <point x="585" y="390" type="curve"/>
      <point x="579" y="372" type="line"/>
      <point x="619" y="228"/>
      <point x="660" y="201"/>
      <point x="716" y="201" type="curve" smooth="yes"/>
    </contour>
  </outline>
</glyph>
<glyph name="knGI" format="1">
  <advance width="604"/>
  <outline>
    <contour>
      <point x="520" y="295"/>
      <point x="363" y="644"/>
      <point x="169" y="644" type="curve" smooth="yes"/>
      <point x="93" y="644"/>
      <point x="45" y="599"/>
      <point x="45" y="531" type="curve"/>
      <point x="45" y="435"/>
      <point x="130" y="406"/>
      <point x="214" y="420" type="curve"/>
      <point x="244" y="434" type="line"/>
      <point x="263" y="460" type="line"/>
      <point x="159" y="425"/>
      <point x="123" y="478"/>
      <point x="123" y="526" type="curve"/>
      <point x="123" y="569"/>
      <point x="154" y="595"/>
      <point x="196" y="595" type="curve" smooth="yes"/>
      <point x="268" y="595"/>
      <point x="371" y="510"/>
      <point x="456" y="297" type="curve"/>
      <point x="493" y="128" type="line"/>
      <point x="535" y="113" type="line"/>
    </contour>
    <contour>
      <point x="143" y="0" type="line"/>
      <point x="143" y="78" type="line" smooth="yes"/>
      <point x="143" y="247"/>
      <point x="197" y="438"/>
      <point x="302" y="438" type="curve"/>
      <point x="407" y="438"/>
      <point x="461" y="247"/>
      <point x="461" y="78" type="curve" smooth="yes"/>
      <point x="461" y="0" type="line"/>
      <point x="539" y="0" type="line"/>
      <point x="539" y="41" type="line" smooth="yes"/>
      <point x="539" y="226"/>
      <point x="447" y="466"/>
      <point x="302" y="466" type="curve"/>
      <point x="157" y="466"/>
      <point x="65" y="226"/>
      <point x="65" y="41" type="curve" smooth="yes"/>
      <point x="65" y="0" type="line"/>
    </contour>
  </outline>
</glyph>
<glyph name="knJHI" format="1">
  <advance width="1247"/>
  <outline>
    <contour>
      <point x="836" y="-220"/>
      <point x="861" y="-201"/>
      <point x="861" y="-161" type="curve" smooth="yes"/>
      <point x="861" y="-117"/>
      <point x="832" y="-104"/>
      <point x="818" y="16" type="curve"/>
      <point x="802" y="16" type="line"/>
      <point x="789" y="-104"/>
      <point x="758" y="-117"/>
      <point x="758" y="-161" type="curve" smooth="yes"/>
      <point x="758" y="-197"/>
      <point x="783" y="-220"/>
      <point x="810" y="-220" type="curve" smooth="yes"/>
    </contour>
    <contour>
      <point x="755" y="-14"/>
      <point x="835" y="95"/>
      <point x="835" y="242" type="curve" smooth="yes"/>
      <point x="835" y="415"/>
      <point x="739" y="513"/>
      <point x="668" y="513" type="curve" smooth="yes"/>
      <point x="637" y="513"/>
      <point x="620" y="493"/>
      <point x="620" y="470" type="curve" smooth="yes"/>
      <point x="620" y="451"/>
      <point x="632" y="435"/>
      <point x="648" y="430" type="curve" smooth="yes"/>
      <point x="671" y="423"/>
      <point x="692" y="428"/>
      <point x="716" y="420" type="curve" smooth="yes"/>
      <point x="753" y="407"/>
      <point x="800" y="344"/>
      <point x="800" y="255" type="curve" smooth="yes"/>
      <point x="800" y="137"/>
      <point x="730" y="71"/>
      <point x="642" y="71" type="curve" smooth="yes"/>
      <point x="573" y="71"/>
      <point x="520" y="105"/>
      <point x="483" y="207" type="curve"/>
      <point x="463" y="188" type="line"/>
      <point x="481" y="61"/>
      <point x="556" y="-14"/>
      <point x="642" y="-14" type="curve" smooth="yes"/>
    </contour>
    <contour>
      <point x="1091" y="-14"/>
      <point x="1171" y="95"/>
      <point x="1171" y="242" type="curve" smooth="yes"/>
      <point x="1171" y="415"/>
      <point x="1075" y="513"/>
      <point x="1004" y="513" type="curve" smooth="yes"/>
      <point x="973" y="513"/>
      <point x="956" y="493"/>
      <point x="956" y="470" type="curve" smooth="yes"/>
      <point x="956" y="451"/>
      <point x="968" y="435"/>
      <point x="984" y="430" type="curve" smooth="yes"/>
      <point x="1007" y="423"/>
      <point x="1028" y="428"/>
      <point x="1052" y="420" type="curve" smooth="yes"/>
      <point x="1089" y="407"/>
      <point x="1136" y="344"/>
      <point x="1136" y="255" type="curve" smooth="yes"/>
      <point x="1136" y="137"/>
      <point x="1066" y="71"/>
      <point x="978" y="71" type="curve" smooth="yes"/>
      <point x="909" y="71"/>
      <point x="856" y="105"/>
      <point x="819" y="207" type="curve"/>
      <point x="799" y="188" type="line"/>
      <point x="817" y="61"/>
      <point x="892" y="-14"/>
      <point x="978" y="-14" type="curve" smooth="yes"/>
    </contour>
    <contour>
      <point x="421" y="-14"/>
      <point x="515" y="86"/>
      <point x="515" y="226" type="curve" smooth="yes"/>
      <point x="515" y="315"/>
      <point x="469" y="398"/>
      <point x="395" y="436" type="curve" smooth="yes"/>
      <point x="363" y="453"/>
      <point x="326" y="461"/>
      <point x="285" y="461" type="curve" smooth="yes"/>
      <point x="244" y="461"/>
      <point x="207" y="453"/>
      <point x="175" y="436" type="curve" smooth="yes"/>
      <point x="101" y="398"/>
      <point x="55" y="315"/>
      <point x="55" y="226" type="curve" smooth="yes"/>
      <point x="55" y="86"/>
      <point x="149" y="-14"/>
      <point x="285" y="-14" type="curve" smooth="yes"/>
    </contour>
    <contour>
      <point x="175" y="71"/>
      <point x="100" y="144"/>
      <point x="100" y="247" type="curve" smooth="yes"/>
      <point x="100" y="348"/>
      <point x="184" y="433"/>
      <point x="285" y="433" type="curve" smooth="yes"/>
      <point x="386" y="433"/>
      <point x="470" y="349"/>
      <point x="470" y="248" type="curve" smooth="yes"/>
      <point x="470" y="145"/>
      <point x="394" y="71"/>
      <point x="285" y="71" type="curve" smooth="yes"/>
    </contour>
    <contour>
      <point x="319" y="203"/>
      <point x="344" y="227"/>
      <point x="344" y="261" type="curve" smooth="yes"/>
      <point x="344" y="295"/>
      <point x="319" y="321"/>
      <point x="285" y="321" type="curve" smooth="yes"/>
      <point x="251" y="321"/>
      <point x="225" y="295"/>
      <point x="225" y="261" type="curve" smooth="yes"/>
      <point x="225" y="227"/>
      <point x="251" y="203"/>
      <point x="285" y="203" type="curve" smooth="yes"/>
    </contour>
    <contour>
      <point x="495" y="325" type="line"/>
      <point x="437" y="468"/>
      <point x="290" y="634"/>
      <point x="126" y="634" type="curve" smooth="yes"/>
      <point x="40" y="634"/>
      <point x="-8" y="589"/>
      <point x="-8" y="521" type="curve"/>
      <point x="-8" y="425"/>
      <point x="77" y="396"/>
      <point x="161" y="410" type="curve"/>
      <point x="191" y="424" type="line"/>
      <point x="210" y="450" type="line"/>
      <point x="106" y="415"/>
      <point x="70" y="468"/>
      <point x="70" y="516" type="curve"/>
      <point x="70" y="558"/>
      <point x="101" y="585"/>
      <point x="157" y="585" type="curve" smooth="yes"/>
      <point x="245" y="585"/>
      <point x="426" y="466"/>
      <point x="471" y="293" type="curve"/>
    </contour>
  </outline>
</glyph>
<glyph name="knKA.base" format="1">
  <advance width="480"/>
  <outline>
    <contour>
      <point x="333" y="-14"/>
      <point x="406" y="64"/>
      <point x="406" y="159" type="curve" smooth="yes"/>
      <point x="406" y="249"/>
      <point x="333" y="327"/>
      <point x="239" y="327" type="curve" smooth="yes"/>
      <point x="142" y="327"/>
      <point x="69" y="249"/>
      <point x="69" y="159" type="curve" smooth="yes"/>
      <point x="69" y="64"/>
      <point x="142" y="-14"/>
      <point x="239" y="-14" type="curve" smooth="yes"/>
    </contour>
    <contour>
      <point x="167" y="71"/>
      <point x="117" y="117"/>
      <point x="117" y="186" type="curve" smooth="yes"/>
      <point x="117" y="252"/>
      <point x="176" y="297"/>
      <point x="239" y="297" type="curve" smooth="yes"/>
      <point x="301" y="297"/>
      <point x="359" y="252"/>
      <point x="359" y="186" type="curve" smooth="yes"/>
      <point x="359" y="117"/>
      <point x="310" y="71"/>
      <point x="239" y="71" type="curve" smooth="yes"/>
    </contour>
    <contour>
      <point x="183" y="294" type="line"/>
      <point x="239" y="306" type="line"/>
      <point x="298" y="294" type="line"/>
      <point x="450" y="294" type="line"/>
      <point x="450" y="360" type="line"/>
      <point x="25" y="360" type="line"/>
      <point x="25" y="294" type="line"/>
    </contour>
    <contour>
      <point x="249" y="331"/>
      <point x="266" y="364"/>
      <point x="266" y="401" type="curve" smooth="yes"/>
      <point x="266" y="438"/>
      <point x="249" y="471"/>
      <point x="209" y="488" type="curve"/>
      <point x="196" y="465" type="line"/>
      <point x="220" y="453"/>
      <point x="232" y="430"/>
      <point x="232" y="401" type="curve" smooth="yes"/>
      <point x="232" y="372"/>
      <point x="216" y="350"/>
      <point x="192" y="337" type="curve"/>
      <point x="209" y="314" type="line"/>
    </contour>
    <contour>
      <point x="315" y="434" type="line"/>
      <point x="315" y="509" type="line"/>
      <point x="25" y="509" type="line"/>
      <point x="25" y="434" type="line"/>
    </contour>
  </outline>
</glyph>
<glyph name="knKE" format="1">
  <advance width="480"/>
  <outline>
    <contour>
      <point x="333" y="-14"/>
      <point x="406" y="64"/>
      <point x="406" y="159" type="curve" smooth="yes"/>
      <point x="406" y="249"/>
      <point x="333" y="327"/>
      <point x="239" y="327" type="curve" smooth="yes"/>
      <point x="142" y="327"/>
      <point x="69" y="249"/>
      <point x="69" y="159" type="curve" smooth="yes"/>
      <point x="69" y="64"/>
      <point x="142" y="-14"/>
      <point x="239" y="-14" type="curve" smooth="yes"/>
    </contour>
    <contour>
      <point x="167" y="71"/>
      <point x="117" y="117"/>
      <point x="117" y="186" type="curve" smooth="yes"/>
      <point x="117" y="252"/>
      <point x="176" y="297"/>
      <point x="239" y="297" type="curve" smooth="yes"/>
      <point x="301" y="297"/>
      <point x="359" y="252"/>
      <point x="359" y="186" type="curve" smooth="yes"/>
      <point x="359" y="117"/>
      <point x="310" y="71"/>
      <point x="239" y="71" type="curve" smooth="yes"/>
    </contour>
    <contour>
      <point x="183" y="294" type="line"/>
      <point x="239" y="306" type="line"/>
      <point x="298" y="294" type="line"/>
      <point x="450" y="294" type="line"/>
      <point x="450" y="360" type="line"/>
      <point x="25" y="360" type="line"/>
      <point x="25" y="294" type="line"/>
    </contour>
    <contour>
      <point x="249" y="331"/>
      <point x="266" y="364"/>
      <point x="266" y="401" type="curve" smooth="yes"/>
      <point x="266" y="438"/>
      <point x="249" y="471"/>
      <point x="209" y="488" type="curve"/>
      <point x="196" y="465" type="line"/>
      <point x="220" y="453"/>
      <point x="232" y="430"/>
      <point x="232" y="401" type="curve" smooth="yes"/>
      <point x="232" y="372"/>
      <point x="216" y="350"/>
      <point x="192" y="337" type="curve"/>
      <point x="209" y="314" type="line"/>
    </contour>
    <contour>
      <point x="315" y="434" type="line" smooth="yes"/>
      <point x="397" y="434"/>
      <point x="450" y="480"/>
      <point x="450" y="552" type="curve" smooth="yes"/>
      <point x="450" y="607"/>
      <point x="419" y="648"/>
      <point x="376" y="664" type="curve"/>
      <point x="361" y="644" type="line"/>
      <point x="385" y="635"/>
      <point x="407" y="610"/>
      <point x="407" y="576" type="curve" smooth="yes"/>
      <point x="407" y="537"/>
      <point x="376" y="509"/>
      <point x="315" y="509" type="curve" smooth="yes"/>
      <point x="25" y="509" type="line"/>
      <point x="25" y="434" type="line"/>
    </contour>
    <contour>
      <point x="396" y="434"/>
      <point x="450" y="480"/>
      <point x="450" y="553" type="curve" smooth="yes"/>
      <point x="450" y="651"/>
      <point x="372" y="685"/>
      <point x="315" y="685" type="curve" smooth="yes"/>
      <point x="260" y="685"/>
      <point x="232" y="657"/>
      <point x="232" y="625" type="curve" smooth="yes"/>
      <point x="232" y="592"/>
      <point x="255" y="571"/>
      <point x="289" y="571" type="curve" smooth="yes"/>
      <point x="323" y="571"/>
      <point x="344" y="597"/>
      <point x="344" y="633" type="curve" smooth="yes"/>
      <point x="344" y="639"/>
      <point x="346" y="643"/>
      <point x="350" y="643" type="curve" smooth="yes"/>
      <point x="363" y="643"/>
      <point x="407" y="629"/>
      <point x="407" y="577" type="curve"/>
      <point x="407" y="530"/>
      <point x="367" y="509"/>
      <point x="316" y="509" type="curve"/>
      <point x="315" y="434" type="line"/>
    </contour>
    <contour>
      <point x="270" y="0" type="move" name="blwm.kssa"/>
    </contour>
  </outline>
</glyph>
<glyph name="knKH" format="1">
  <advance width="1036"/>
  <outline>
    <contour>
      <point x="348" y="-14"/>
      <point x="436" y="169"/>
      <point x="436" y="279" type="curve" smooth="yes"/>
      <point x="436" y="445"/>
      <point x="357" y="520"/>
      <point x="258" y="520" type="curve" smooth="yes"/>
      <point x="197" y="520"/>
      <point x="146" y="469"/>
      <point x="146" y="407" type="curve" smooth="yes"/>
      <point x="146" y="350"/>
      <point x="180" y="300"/>
      <point x="236" y="300" type="curve" smooth="yes"/>
      <point x="280" y="300"/>
      <point x="304" y="330"/>
      <point x="304" y="356" type="curve" smooth="yes"/>
      <point x="304" y="385"/>
      <point x="283" y="408"/>
      <point x="256" y="408" type="curve" smooth="yes"/>
      <point x="228" y="408"/>
      <point x="211" y="387"/>
      <point x="211" y="357" type="curve" smooth="yes"/>
      <point x="211" y="352"/>
      <point x="210" y="351"/>
      <point x="207" y="351" type="curve" smooth="yes"/>
      <point x="194" y="351"/>
      <point x="185" y="369"/>
      <point x="185" y="390" type="curve" smooth="yes"/>
      <point x="185" y="426"/>
      <point x="217" y="455"/>
      <point x="265" y="455" type="curve" smooth="yes"/>
      <point x="336" y="455"/>
      <point x="397" y="397"/>
      <point x="397" y="287" type="curve" smooth="yes"/>
      <point x="397" y="159"/>
      <point x="326" y="71"/>
      <point x="199" y="71" type="curve" smooth="yes"/>
      <point x="125" y="71"/>
      <point x="94" y="104"/>
      <point x="94" y="136" type="curve" smooth="yes"/>
      <point x="94" y="167"/>
      <point x="117" y="196"/>
      <point x="169" y="196" type="curve" smooth="yes"/>
      <point x="311" y="196"/>
      <point x="380" y="-14"/>
      <point x="528" y="-14" type="curve" smooth="yes"/>
      <point x="641" y="-14"/>
      <point x="721" y="95"/>
      <point x="723" y="242" type="curve"/>
      <point x="721" y="415"/>
      <point x="625" y="513"/>
      <point x="556" y="513" type="curve" smooth="yes"/>
      <point x="523" y="513"/>
      <point x="506" y="493"/>
      <point x="508" y="470" type="curve"/>
      <point x="506" y="451"/>
      <point x="518" y="435"/>
      <point x="536" y="430" type="curve"/>
      <point x="557" y="423"/>
      <point x="578" y="428"/>
      <point x="604" y="420" type="curve"/>
      <point x="639" y="407"/>
      <point x="686" y="344"/>
      <point x="688" y="255" type="curve"/>
      <point x="686" y="137"/>
      <point x="616" y="71"/>
      <point x="530" y="71" type="curve" smooth="yes"/>
      <point x="381" y="71"/>
      <point x="312" y="231"/>
      <point x="168" y="231" type="curve" smooth="yes"/>
      <point x="92" y="231"/>
      <point x="40" y="187"/>
      <point x="40" y="116" type="curve" smooth="yes"/>
      <point x="40" y="46"/>
      <point x="100" y="-14"/>
      <point x="194" y="-14" type="curve" smooth="yes"/>
    </contour>
    <component base="virama" xOffset="790"/>
  </outline>
</glyph>
